<svg width="6" height="6" viewBox="0 0 6 6" fill="none" xmlns="http://www.w3.org/2000/svg">
<path opacity="0.2" d="M2.4345 4.98202C2.4055 4.95377 2.2815 4.84709 2.1795 4.74773C1.538 4.16516 0.488 2.64544 0.1675 1.85002C0.116 1.72922 0.007 1.42381 0 1.26063C0 1.10428 0.036 0.955228 0.109 0.812997C0.211 0.635696 0.3715 0.493465 0.561 0.41553C0.6925 0.36536 1.086 0.287425 1.093 0.287425C1.5235 0.20949 2.223 0.166626 2.996 0.166626C3.7325 0.166626 4.4035 0.20949 4.8405 0.273299C4.8475 0.280606 5.3365 0.35854 5.504 0.443781C5.81 0.600138 6 0.905545 6 1.23238V1.26063C5.9925 1.47349 5.8025 1.92113 5.7955 1.92113C5.4745 2.67369 4.476 4.15835 3.8125 4.75503C3.8125 4.75503 3.642 4.92308 3.5355 4.99614C3.3825 5.11012 3.193 5.16663 3.0035 5.16663C2.792 5.16663 2.595 5.10282 2.4345 4.98202Z" fill="#030229"/>
</svg>
