<svg width="24" height="24" viewBox="0 0 24 24" fill="none" xmlns="http://www.w3.org/2000/svg">
<path fill-rule="evenodd" clip-rule="evenodd" d="M6.25 12C6.25 11.5858 6.58579 11.25 7 11.25H16.5C16.9142 11.25 17.25 11.5858 17.25 12C17.25 12.4142 16.9142 12.75 16.5 12.75H7C6.58579 12.75 6.25 12.4142 6.25 12Z" fill="#ffa827"/>
<path fill-rule="evenodd" clip-rule="evenodd" d="M12.9697 7.96967C13.2626 7.67678 13.7374 7.67678 14.0303 7.96967L17.5303 11.4697C17.8232 11.7626 17.8232 12.2374 17.5303 12.5303L14.0303 16.0303C13.7374 16.3232 13.2626 16.3232 12.9697 16.0303C12.6768 15.7374 12.6768 15.2626 12.9697 14.9697L15.9393 12L12.9697 9.03033C12.6768 8.73744 12.6768 8.26256 12.9697 7.96967Z" fill="#ffa827"/>
</svg>
