<svg width="24" height="24" viewBox="0 0 24 24" fill="none" xmlns="http://www.w3.org/2000/svg">
<path fill-rule="evenodd" clip-rule="evenodd" d="M4 3.25C3.58579 3.25 3.25 3.58579 3.25 4V22C3.25 22.4142 3.58579 22.75 4 22.75H20C20.4142 22.75 20.75 22.4142 20.75 22V4C20.75 3.58579 20.4142 3.25 20 3.25H4Z" fill="#FFC44D"/>
<path fill-rule="evenodd" clip-rule="evenodd" d="M8 1.25C8.41421 1.25 8.75 1.58579 8.75 2V6C8.75 6.41421 8.41421 6.75 8 6.75C7.58579 6.75 7.25 6.41421 7.25 6V2C7.25 1.58579 7.58579 1.25 8 1.25Z" fill="#8B98A6"/>
<path fill-rule="evenodd" clip-rule="evenodd" d="M12 1.25C12.4142 1.25 12.75 1.58579 12.75 2V6C12.75 6.41421 12.4142 6.75 12 6.75C11.5858 6.75 11.25 6.41421 11.25 6V2C11.25 1.58579 11.5858 1.25 12 1.25Z" fill="#8B98A6"/>
<path fill-rule="evenodd" clip-rule="evenodd" d="M16 1.25C16.4142 1.25 16.75 1.58579 16.75 2V6C16.75 6.41421 16.4142 6.75 16 6.75C15.5858 6.75 15.25 6.41421 15.25 6V2C15.25 1.58579 15.5858 1.25 16 1.25Z" fill="#8B98A6"/>
<path fill-rule="evenodd" clip-rule="evenodd" d="M6.25 10C6.25 9.58579 6.58579 9.25 7 9.25H14C14.4142 9.25 14.75 9.58579 14.75 10C14.75 10.4142 14.4142 10.75 14 10.75H7C6.58579 10.75 6.25 10.4142 6.25 10Z" fill="#F9F9F9"/>
<path fill-rule="evenodd" clip-rule="evenodd" d="M6.25 14C6.25 13.5858 6.58579 13.25 7 13.25H17.5C17.9142 13.25 18.25 13.5858 18.25 14C18.25 14.4142 17.9142 14.75 17.5 14.75H7C6.58579 14.75 6.25 14.4142 6.25 14Z" fill="#F9F9F9"/>
<path fill-rule="evenodd" clip-rule="evenodd" d="M6.25 18C6.25 17.5858 6.58579 17.25 7 17.25H15C15.4142 17.25 15.75 17.5858 15.75 18C15.75 18.4142 15.4142 18.75 15 18.75H7C6.58579 18.75 6.25 18.4142 6.25 18Z" fill="#F9F9F9"/>
</svg>
