<svg width="550" height="369" viewBox="0 0 550 369" fill="none" xmlns="http://www.w3.org/2000/svg">
<g filter="url(#filter0_d_4_101961)">
<g clip-path="url(#clip0_4_101961)">
<rect x="176.556" y="-336.042" width="832.03" height="138.672" transform="rotate(45 176.556 -336.042)" fill="#2F4644"/>
<rect x="78.5002" y="-237.987" width="832.03" height="138.672" transform="rotate(45 78.5002 -237.987)" fill="#202E2D"/>
<rect x="-19.5554" y="-139.931" width="832.03" height="138.672" transform="rotate(45 -19.5554 -139.931)" fill="#182322"/>
<rect x="-117.611" y="-41.8752" width="832.03" height="138.672" transform="rotate(45 -117.611 -41.8752)" fill="#101717"/>
<path d="M69.9025 86.0818V53.783H71.9716V86.0818H69.9025ZM76.8669 63.4727C76.7155 62.1942 76.1015 61.2017 75.0249 60.4951C73.9483 59.7886 72.6277 59.4353 71.0632 59.4353C69.9193 59.4353 68.9184 59.6204 68.0605 59.9904C67.2109 60.3605 66.5465 60.8694 66.067 61.5171C65.596 62.1647 65.3605 62.9007 65.3605 63.725C65.3605 64.4147 65.5245 65.0077 65.8525 65.504C66.189 65.9918 66.6179 66.3997 67.1394 66.7278C67.6609 67.0474 68.2077 67.3124 68.7796 67.5226C69.3516 67.7245 69.8773 67.8885 70.3567 68.0147L72.981 68.7212C73.6539 68.8979 74.4025 69.1418 75.2268 69.453C76.0595 69.7642 76.8543 70.189 77.6113 70.7273C78.3767 71.2572 79.0076 71.9385 79.5038 72.7712C80.0001 73.6039 80.2482 74.6259 80.2482 75.8371C80.2482 77.2333 79.8823 78.495 79.1506 79.6221C78.4272 80.7492 77.3674 81.645 75.9711 82.3094C74.5833 82.9739 72.8969 83.3062 70.9118 83.3062C69.0614 83.3062 67.4591 83.0076 66.1049 82.4104C64.7591 81.8132 63.6993 80.9805 62.9255 79.9123C62.16 78.844 61.7269 77.6034 61.6259 76.1903H64.8558C64.9399 77.166 65.268 77.9735 65.8399 78.6127C66.4203 79.2436 67.1521 79.7146 68.0352 80.0258C68.9268 80.3286 69.8857 80.48 70.9118 80.48C72.1062 80.48 73.1786 80.2866 74.1291 79.8996C75.0796 79.5043 75.8324 78.9576 76.3875 78.2595C76.9426 77.5529 77.2202 76.7286 77.2202 75.7866C77.2202 74.9287 76.9805 74.2305 76.5011 73.6922C76.0216 73.1539 75.3908 72.7165 74.6085 72.3801C73.8263 72.0436 72.981 71.7492 72.0726 71.4969L68.8932 70.5885C66.8745 70.0081 65.2764 69.1796 64.0988 68.103C62.9212 67.0264 62.3325 65.6175 62.3325 63.8764C62.3325 62.4297 62.7236 61.168 63.5058 60.0914C64.2965 59.0063 65.3563 58.1652 66.6852 57.568C68.0226 56.9624 69.5156 56.6596 71.1642 56.6596C72.8296 56.6596 74.3099 56.9582 75.6053 57.5554C76.9006 58.1442 77.9267 58.9517 78.6837 59.9778C79.4492 61.004 79.8529 62.1689 79.895 63.4727H76.8669ZM93.6693 83.2052C92.0039 83.2052 90.5193 82.9192 89.2156 82.3473C87.9202 81.7753 86.8899 80.9805 86.1245 79.9627C85.3675 78.9366 84.9553 77.7464 84.888 76.3922H88.0674C88.1347 77.2249 88.4207 77.9441 88.9254 78.5497C89.43 79.1468 90.0903 79.6095 90.9062 79.9375C91.7221 80.2655 92.6263 80.4295 93.6188 80.4295C94.7291 80.4295 95.7132 80.2361 96.5711 79.8492C97.429 79.4623 98.1019 78.924 98.5898 78.2342C99.0776 77.5445 99.3216 76.7455 99.3216 75.8371C99.3216 74.8866 99.086 74.0497 98.615 73.3263C98.144 72.5946 97.4543 72.0226 96.5459 71.6105C95.6375 71.1983 94.5272 70.9922 93.2151 70.9922H91.1459V68.2166H93.2151C94.2412 68.2166 95.1412 68.0315 95.915 67.6614C96.6973 67.2913 97.3071 66.7698 97.7445 66.0969C98.1903 65.4241 98.4132 64.6334 98.4132 63.725C98.4132 62.8502 98.2197 62.089 97.8328 61.4414C97.4459 60.7937 96.8991 60.289 96.1926 59.9274C95.4945 59.5657 94.6702 59.3848 93.7197 59.3848C92.8281 59.3848 91.987 59.5489 91.1964 59.8769C90.4141 60.1965 89.7749 60.6633 89.2786 61.2774C88.7824 61.883 88.5132 62.6147 88.4712 63.4727H85.4432C85.4936 62.1185 85.9016 60.9325 86.667 59.9147C87.4324 58.8886 88.4333 58.0895 89.6698 57.5176C90.9146 56.9456 92.2814 56.6596 93.7702 56.6596C95.3683 56.6596 96.7393 56.9835 97.8832 57.6311C99.0272 58.2704 99.9061 59.1157 100.52 60.1671C101.134 61.2185 101.441 62.354 101.441 63.5736C101.441 65.0287 101.058 66.2694 100.293 67.2955C99.536 68.3217 98.5057 69.0324 97.2019 69.4278V69.6296C98.8337 69.8988 100.108 70.5927 101.025 71.7114C101.942 72.8217 102.4 74.1969 102.4 75.8371C102.4 77.2417 102.017 78.5034 101.252 79.6221C100.495 80.7323 99.4603 81.6071 98.1482 82.2464C96.8361 82.8856 95.3431 83.2052 93.6693 83.2052ZM106.955 77.5529V74.9791L118.31 57.0129H120.177V60.9998H118.915L110.336 74.5754V74.7773H125.627V77.5529H106.955ZM119.117 82.852V76.7707V75.5721V57.0129H122.095V82.852H119.117ZM148.776 83.2052C146.875 83.2052 145.256 82.6879 143.919 81.6534C142.581 80.6104 141.559 79.1006 140.853 77.124C140.146 75.1389 139.793 72.7418 139.793 69.9324C139.793 67.1399 140.146 64.7554 140.853 62.7787C141.568 60.7937 142.594 59.2797 143.931 58.2367C145.277 57.1853 146.892 56.6596 148.776 56.6596C150.66 56.6596 152.271 57.1853 153.608 58.2367C154.954 59.2797 155.98 60.7937 156.687 62.7787C157.402 64.7554 157.759 67.1399 157.759 69.9324C157.759 72.7418 157.406 75.1389 156.699 77.124C155.993 79.1006 154.971 80.6104 153.633 81.6534C152.296 82.6879 150.677 83.2052 148.776 83.2052ZM148.776 80.4295C150.66 80.4295 152.124 79.5211 153.167 77.7043C154.21 75.8875 154.731 73.2969 154.731 69.9324C154.731 67.6951 154.491 65.7899 154.012 64.2171C153.541 62.6442 152.86 61.4456 151.968 60.6213C151.085 59.797 150.021 59.3848 148.776 59.3848C146.909 59.3848 145.449 60.3059 144.398 62.1479C143.347 63.9815 142.821 66.5764 142.821 69.9324C142.821 72.1698 143.056 74.0707 143.527 75.6352C143.998 77.1997 144.676 78.3898 145.559 79.2057C146.45 80.0216 147.523 80.4295 148.776 80.4295ZM170.981 83.2052C169.08 83.2052 167.461 82.6879 166.124 81.6534C164.787 80.6104 163.765 79.1006 163.058 77.124C162.352 75.1389 161.998 72.7418 161.998 69.9324C161.998 67.1399 162.352 64.7554 163.058 62.7787C163.773 60.7937 164.799 59.2797 166.137 58.2367C167.482 57.1853 169.097 56.6596 170.981 56.6596C172.866 56.6596 174.476 57.1853 175.814 58.2367C177.159 59.2797 178.186 60.7937 178.892 62.7787C179.607 64.7554 179.965 67.1399 179.965 69.9324C179.965 72.7418 179.611 75.1389 178.905 77.124C178.198 79.1006 177.176 80.6104 175.839 81.6534C174.501 82.6879 172.882 83.2052 170.981 83.2052ZM170.981 80.4295C172.866 80.4295 174.329 79.5211 175.372 77.7043C176.415 75.8875 176.936 73.2969 176.936 69.9324C176.936 67.6951 176.697 65.7899 176.217 64.2171C175.746 62.6442 175.065 61.4456 174.173 60.6213C173.29 59.797 172.226 59.3848 170.981 59.3848C169.114 59.3848 167.655 60.3059 166.603 62.1479C165.552 63.9815 165.026 66.5764 165.026 69.9324C165.026 72.1698 165.262 74.0707 165.733 75.6352C166.204 77.1997 166.881 78.3898 167.764 79.2057C168.656 80.0216 169.728 80.4295 170.981 80.4295ZM193.187 83.2052C191.286 83.2052 189.667 82.6879 188.329 81.6534C186.992 80.6104 185.97 79.1006 185.264 77.124C184.557 75.1389 184.204 72.7418 184.204 69.9324C184.204 67.1399 184.557 64.7554 185.264 62.7787C185.978 60.7937 187.005 59.2797 188.342 58.2367C189.688 57.1853 191.303 56.6596 193.187 56.6596C195.071 56.6596 196.682 57.1853 198.019 58.2367C199.365 59.2797 200.391 60.7937 201.098 62.7787C201.812 64.7554 202.17 67.1399 202.17 69.9324C202.17 72.7418 201.817 75.1389 201.11 77.124C200.404 79.1006 199.382 80.6104 198.044 81.6534C196.707 82.6879 195.088 83.2052 193.187 83.2052ZM193.187 80.4295C195.071 80.4295 196.534 79.5211 197.577 77.7043C198.62 75.8875 199.142 73.2969 199.142 69.9324C199.142 67.6951 198.902 65.7899 198.423 64.2171C197.952 62.6442 197.27 61.4456 196.379 60.6213C195.496 59.797 194.432 59.3848 193.187 59.3848C191.32 59.3848 189.86 60.3059 188.809 62.1479C187.757 63.9815 187.232 66.5764 187.232 69.9324C187.232 72.1698 187.467 74.0707 187.938 75.6352C188.409 77.1997 189.086 78.3898 189.97 79.2057C190.861 80.0216 191.934 80.4295 193.187 80.4295ZM208.283 83.0538C207.66 83.0538 207.126 82.8309 206.68 82.3851C206.235 81.9393 206.012 81.4052 206.012 80.7828C206.012 80.1604 206.235 79.6263 206.68 79.1805C207.126 78.7347 207.66 78.5118 208.283 78.5118C208.905 78.5118 209.439 78.7347 209.885 79.1805C210.331 79.6263 210.554 80.1604 210.554 80.7828C210.554 81.195 210.449 81.5735 210.238 81.9183C210.036 82.2632 209.763 82.5407 209.418 82.751C209.082 82.9529 208.703 83.0538 208.283 83.0538ZM223.372 83.2052C221.471 83.2052 219.852 82.6879 218.515 81.6534C217.178 80.6104 216.156 79.1006 215.449 77.124C214.743 75.1389 214.389 72.7418 214.389 69.9324C214.389 67.1399 214.743 64.7554 215.449 62.7787C216.164 60.7937 217.19 59.2797 218.528 58.2367C219.873 57.1853 221.488 56.6596 223.372 56.6596C225.256 56.6596 226.867 57.1853 228.205 58.2367C229.55 59.2797 230.577 60.7937 231.283 62.7787C231.998 64.7554 232.355 67.1399 232.355 69.9324C232.355 72.7418 232.002 75.1389 231.296 77.124C230.589 79.1006 229.567 80.6104 228.23 81.6534C226.892 82.6879 225.273 83.2052 223.372 83.2052ZM223.372 80.4295C225.256 80.4295 226.72 79.5211 227.763 77.7043C228.806 75.8875 229.327 73.2969 229.327 69.9324C229.327 67.6951 229.088 65.7899 228.608 64.2171C228.137 62.6442 227.456 61.4456 226.564 60.6213C225.681 59.797 224.617 59.3848 223.372 59.3848C221.505 59.3848 220.046 60.3059 218.994 62.1479C217.943 63.9815 217.417 66.5764 217.417 69.9324C217.417 72.1698 217.653 74.0707 218.124 75.6352C218.595 77.1997 219.272 78.3898 220.155 79.2057C221.047 80.0216 222.119 80.4295 223.372 80.4295ZM245.578 83.2052C243.677 83.2052 242.058 82.6879 240.72 81.6534C239.383 80.6104 238.361 79.1006 237.654 77.124C236.948 75.1389 236.595 72.7418 236.595 69.9324C236.595 67.1399 236.948 64.7554 237.654 62.7787C238.369 60.7937 239.396 59.2797 240.733 58.2367C242.079 57.1853 243.694 56.6596 245.578 56.6596C247.462 56.6596 249.073 57.1853 250.41 58.2367C251.756 59.2797 252.782 60.7937 253.488 62.7787C254.203 64.7554 254.561 67.1399 254.561 69.9324C254.561 72.7418 254.208 75.1389 253.501 77.124C252.795 79.1006 251.773 80.6104 250.435 81.6534C249.098 82.6879 247.479 83.2052 245.578 83.2052ZM245.578 80.4295C247.462 80.4295 248.925 79.5211 249.968 77.7043C251.011 75.8875 251.533 73.2969 251.533 69.9324C251.533 67.6951 251.293 65.7899 250.814 64.2171C250.343 62.6442 249.661 61.4456 248.77 60.6213C247.887 59.797 246.823 59.3848 245.578 59.3848C243.711 59.3848 242.251 60.3059 241.2 62.1479C240.148 63.9815 239.623 66.5764 239.623 69.9324C239.623 72.1698 239.858 74.0707 240.329 75.6352C240.8 77.1997 241.477 78.3898 242.361 79.2057C243.252 80.0216 244.325 80.4295 245.578 80.4295Z" fill="white"/>
<path d="M65.5308 162.597L65.7106 158.604L62.3419 160.771L61.3105 158.973L64.8874 157.147L61.3105 155.32L62.3419 153.522L65.7106 155.689L65.5308 151.696H67.5842L67.4044 155.689L70.7731 153.522L71.8045 155.32L68.2276 157.147L71.8045 158.973L70.7731 160.771L67.4044 158.604L67.5842 162.597H65.5308ZM79.4266 162.597L79.6063 158.604L76.2377 160.771L75.2063 158.973L78.7831 157.147L75.2063 155.32L76.2377 153.522L79.6063 155.689L79.4266 151.696H81.4799L81.3001 155.689L84.6688 153.522L85.7002 155.32L82.1234 157.147L85.7002 158.973L84.6688 160.771L81.3001 158.604L81.4799 162.597H79.4266ZM93.3223 162.597L93.5021 158.604L90.1334 160.771L89.102 158.973L92.6788 157.147L89.102 155.32L90.1334 153.522L93.5021 155.689L93.3223 151.696H95.3757L95.1959 155.689L98.5646 153.522L99.596 155.32L96.0191 157.147L99.596 158.973L98.5646 160.771L95.1959 158.604L95.3757 162.597H93.3223ZM107.218 162.597L107.398 158.604L104.029 160.771L102.998 158.973L106.575 157.147L102.998 155.32L104.029 153.522L107.398 155.689L107.218 151.696H109.271L109.092 155.689L112.46 153.522L113.492 155.32L109.915 157.147L113.492 158.973L112.46 160.771L109.092 158.604L109.271 162.597H107.218Z" fill="white"/>
<path d="M319.148 165.076L325.728 152.063V151.953H318.118V150.003H328.083V152.019L321.525 165.076H319.148ZM330.642 165.076V163.427L335.742 158.143C336.287 157.569 336.736 157.066 337.089 156.634C337.447 156.197 337.715 155.783 337.892 155.39C338.068 154.998 338.156 154.581 338.156 154.139C338.156 153.638 338.039 153.207 337.803 152.844C337.568 152.476 337.246 152.193 336.839 151.997C336.432 151.796 335.973 151.695 335.463 151.695C334.923 151.695 334.452 151.806 334.05 152.027C333.647 152.247 333.338 152.559 333.122 152.961C332.907 153.364 332.799 153.835 332.799 154.374H330.627C330.627 153.457 330.838 152.655 331.26 151.968C331.682 151.281 332.261 150.749 332.997 150.371C333.733 149.988 334.57 149.797 335.507 149.797C336.454 149.797 337.288 149.986 338.009 150.363C338.735 150.736 339.302 151.247 339.709 151.894C340.117 152.537 340.32 153.263 340.32 154.073C340.32 154.632 340.215 155.179 340.004 155.714C339.798 156.249 339.437 156.845 338.922 157.502C338.407 158.155 337.69 158.947 336.773 159.88L333.777 163.015V163.125H340.563V165.076H330.642ZM343.352 165.076V163.427L348.453 158.143C348.997 157.569 349.446 157.066 349.8 156.634C350.158 156.197 350.425 155.783 350.602 155.39C350.778 154.998 350.867 154.581 350.867 154.139C350.867 153.638 350.749 153.207 350.514 152.844C350.278 152.476 349.957 152.193 349.549 151.997C349.142 151.796 348.683 151.695 348.173 151.695C347.633 151.695 347.162 151.806 346.76 152.027C346.358 152.247 346.049 152.559 345.833 152.961C345.617 153.364 345.509 153.835 345.509 154.374H343.338C343.338 153.457 343.549 152.655 343.971 151.968C344.393 151.281 344.972 150.749 345.708 150.371C346.444 149.988 347.28 149.797 348.217 149.797C349.164 149.797 349.998 149.986 350.72 150.363C351.446 150.736 352.012 151.247 352.42 151.894C352.827 152.537 353.031 153.263 353.031 154.073C353.031 154.632 352.925 155.179 352.714 155.714C352.508 156.249 352.147 156.845 351.632 157.502C351.117 158.155 350.401 158.947 349.483 159.88L346.488 163.015V163.125H353.273V165.076H343.352ZM361.31 165.282C360.3 165.282 359.397 165.107 358.602 164.759C357.812 164.411 357.186 163.927 356.725 163.309C356.269 162.686 356.024 161.965 355.989 161.145H358.3C358.33 161.592 358.479 161.98 358.749 162.308C359.024 162.632 359.382 162.882 359.824 163.059C360.265 163.236 360.756 163.324 361.296 163.324C361.889 163.324 362.414 163.221 362.871 163.015C363.332 162.809 363.692 162.522 363.952 162.154C364.212 161.781 364.342 161.351 364.342 160.866C364.342 160.36 364.212 159.916 363.952 159.534C363.697 159.146 363.322 158.842 362.826 158.621C362.336 158.4 361.742 158.29 361.045 158.29H359.772V156.435H361.045C361.605 156.435 362.095 156.335 362.517 156.133C362.944 155.932 363.278 155.653 363.518 155.294C363.759 154.931 363.879 154.507 363.879 154.021C363.879 153.555 363.773 153.15 363.562 152.807C363.356 152.458 363.062 152.186 362.679 151.99C362.301 151.794 361.855 151.695 361.34 151.695C360.849 151.695 360.39 151.786 359.963 151.968C359.541 152.144 359.198 152.4 358.933 152.733C358.668 153.062 358.526 153.457 358.506 153.918H356.306C356.33 153.104 356.571 152.387 357.027 151.769C357.488 151.151 358.097 150.668 358.852 150.319C359.608 149.971 360.447 149.797 361.369 149.797C362.336 149.797 363.17 149.986 363.871 150.363C364.578 150.736 365.123 151.234 365.505 151.857C365.893 152.481 366.084 153.163 366.079 153.903C366.084 154.747 365.849 155.464 365.373 156.052C364.902 156.641 364.274 157.036 363.489 157.237V157.355C364.49 157.507 365.265 157.905 365.814 158.547C366.369 159.19 366.644 159.987 366.639 160.939C366.644 161.769 366.413 162.512 365.947 163.169C365.486 163.827 364.855 164.344 364.055 164.722C363.256 165.095 362.341 165.282 361.31 165.282Z" fill="white"/>
<path d="M151.392 162.597L151.572 158.604L148.203 160.771L147.172 158.973L150.748 157.147L147.172 155.32L148.203 153.522L151.572 155.689L151.392 151.696H153.445L153.265 155.689L156.634 153.522L157.666 155.32L154.089 157.147L157.666 158.973L156.634 160.771L153.265 158.604L153.445 162.597H151.392ZM165.288 162.597L165.467 158.604L162.099 160.771L161.067 158.973L164.644 157.147L161.067 155.32L162.099 153.522L165.467 155.689L165.288 151.696H167.341L167.161 155.689L170.53 153.522L171.561 155.32L167.984 157.147L171.561 158.973L170.53 160.771L167.161 158.604L167.341 162.597H165.288ZM179.183 162.597L179.363 158.604L175.994 160.771L174.963 158.973L178.54 157.147L174.963 155.32L175.994 153.522L179.363 155.689L179.183 151.696H181.237L181.057 155.689L184.426 153.522L185.457 155.32L181.88 157.147L185.457 158.973L184.426 160.771L181.057 158.604L181.237 162.597H179.183ZM193.079 162.597L193.259 158.604L189.89 160.771L188.859 158.973L192.436 157.147L188.859 155.32L189.89 153.522L193.259 155.689L193.079 151.696H195.132L194.953 155.689L198.321 153.522L199.353 155.32L195.776 157.147L199.353 158.973L198.321 160.771L194.953 158.604L195.132 162.597H193.079Z" fill="white"/>
<path d="M237.253 162.597L237.433 158.604L234.064 160.771L233.033 158.973L236.609 157.147L233.033 155.32L234.064 153.522L237.433 155.689L237.253 151.696H239.306L239.126 155.689L242.495 153.522L243.527 155.32L239.95 157.147L243.527 158.973L242.495 160.771L239.126 158.604L239.306 162.597H237.253ZM251.149 162.597L251.328 158.604L247.96 160.771L246.928 158.973L250.505 157.147L246.928 155.32L247.96 153.522L251.328 155.689L251.149 151.696H253.202L253.022 155.689L256.391 153.522L257.422 155.32L253.845 157.147L257.422 158.973L256.391 160.771L253.022 158.604L253.202 162.597H251.149ZM265.044 162.597L265.224 158.604L261.855 160.771L260.824 158.973L264.401 157.147L260.824 155.32L261.855 153.522L265.224 155.689L265.044 151.696H267.098L266.918 155.689L270.287 153.522L271.318 155.32L267.741 157.147L271.318 158.973L270.287 160.771L266.918 158.604L267.098 162.597H265.044ZM278.94 162.597L279.12 158.604L275.751 160.771L274.72 158.973L278.297 157.147L274.72 155.32L275.751 153.522L279.12 155.689L278.94 151.696H280.993L280.814 155.689L284.182 153.522L285.214 155.32L281.637 157.147L285.214 158.973L284.182 160.771L280.814 158.604L280.993 162.597H278.94Z" fill="white"/>
<path d="M383.636 227.172V216.406H390.133V217.562H384.939V221.2H389.797V222.357H384.939V226.016H390.217V227.172H383.636ZM393.24 219.097L395.175 222.399L397.109 219.097H398.539L395.932 223.135L398.539 227.172H397.109L395.175 224.039L393.24 227.172H391.81L394.376 223.135L391.81 219.097H393.24ZM400.309 230.2V219.097H401.508V220.38H401.655C401.746 220.24 401.873 220.061 402.034 219.844C402.198 219.623 402.433 219.427 402.738 219.255C403.047 219.08 403.464 218.992 403.989 218.992C404.669 218.992 405.269 219.162 405.787 219.502C406.306 219.842 406.711 220.324 407.002 220.948C407.292 221.572 407.438 222.308 407.438 223.156C407.438 224.011 407.292 224.752 407.002 225.38C406.711 226.003 406.308 226.487 405.793 226.83C405.277 227.17 404.683 227.34 404.01 227.34C403.492 227.34 403.076 227.255 402.764 227.083C402.453 226.908 402.213 226.71 402.044 226.489C401.876 226.264 401.746 226.079 401.655 225.932H401.55V230.2H400.309ZM401.529 223.135C401.529 223.745 401.618 224.283 401.797 224.749C401.976 225.211 402.237 225.574 402.58 225.837C402.924 226.096 403.345 226.226 403.842 226.226C404.361 226.226 404.794 226.089 405.141 225.816C405.491 225.539 405.754 225.168 405.929 224.701C406.108 224.232 406.197 223.71 406.197 223.135C406.197 222.567 406.11 222.055 405.934 221.6C405.763 221.141 405.502 220.778 405.151 220.512C404.804 220.242 404.368 220.107 403.842 220.107C403.337 220.107 402.913 220.235 402.57 220.491C402.227 220.743 401.967 221.097 401.792 221.552C401.617 222.005 401.529 222.532 401.529 223.135ZM409.33 227.172V219.097H410.571V227.172H409.33ZM409.961 217.752C409.719 217.752 409.511 217.669 409.336 217.505C409.164 217.34 409.078 217.142 409.078 216.911C409.078 216.679 409.164 216.481 409.336 216.317C409.511 216.152 409.719 216.069 409.961 216.069C410.203 216.069 410.41 216.152 410.582 216.317C410.757 216.481 410.844 216.679 410.844 216.911C410.844 217.142 410.757 217.34 410.582 217.505C410.41 217.669 410.203 217.752 409.961 217.752ZM412.843 227.172V219.097H414.042V220.317H414.126C414.273 219.918 414.54 219.593 414.925 219.345C415.311 219.096 415.745 218.971 416.229 218.971C416.32 218.971 416.434 218.973 416.571 218.977C416.707 218.98 416.811 218.985 416.881 218.992V220.254C416.839 220.244 416.742 220.228 416.592 220.207C416.444 220.182 416.288 220.17 416.124 220.17C415.731 220.17 415.381 220.252 415.072 220.417C414.767 220.578 414.526 220.803 414.347 221.09C414.172 221.374 414.084 221.698 414.084 222.062V227.172H412.843ZM421.491 227.34C420.713 227.34 420.042 227.169 419.478 226.825C418.917 226.478 418.484 225.995 418.179 225.374C417.878 224.75 417.727 224.025 417.727 223.198C417.727 222.371 417.878 221.642 418.179 221.011C418.484 220.377 418.908 219.883 419.451 219.529C419.998 219.171 420.636 218.992 421.365 218.992C421.786 218.992 422.201 219.062 422.611 219.203C423.021 219.343 423.394 219.571 423.731 219.886C424.067 220.198 424.335 220.611 424.535 221.127C424.735 221.642 424.835 222.276 424.835 223.03V223.555H418.61V222.483H423.573C423.573 222.027 423.482 221.621 423.3 221.263C423.121 220.906 422.865 220.624 422.532 220.417C422.203 220.21 421.814 220.107 421.365 220.107C420.871 220.107 420.443 220.229 420.082 220.475C419.725 220.717 419.45 221.032 419.257 221.421C419.064 221.81 418.968 222.227 418.968 222.672V223.387C418.968 223.997 419.073 224.514 419.283 224.938C419.497 225.359 419.793 225.679 420.172 225.9C420.55 226.117 420.99 226.226 421.491 226.226C421.817 226.226 422.111 226.18 422.374 226.089C422.641 225.995 422.87 225.854 423.063 225.669C423.256 225.479 423.405 225.245 423.51 224.964L424.708 225.301C424.582 225.707 424.37 226.065 424.072 226.373C423.774 226.678 423.406 226.916 422.968 227.088C422.53 227.256 422.038 227.34 421.491 227.34ZM432.441 220.906L431.327 221.221C431.257 221.036 431.153 220.855 431.017 220.68C430.884 220.501 430.701 220.354 430.47 220.238C430.239 220.123 429.943 220.065 429.582 220.065C429.087 220.065 428.676 220.179 428.346 220.406C428.02 220.631 427.857 220.916 427.857 221.263C427.857 221.572 427.969 221.815 428.194 221.994C428.418 222.173 428.769 222.322 429.245 222.441L430.444 222.735C431.166 222.911 431.704 223.179 432.058 223.54C432.412 223.897 432.589 224.358 432.589 224.922C432.589 225.385 432.455 225.798 432.189 226.163C431.926 226.527 431.558 226.815 431.085 227.025C430.612 227.235 430.062 227.34 429.434 227.34C428.611 227.34 427.929 227.162 427.389 226.804C426.85 226.447 426.508 225.925 426.364 225.238L427.542 224.943C427.654 225.378 427.866 225.704 428.178 225.921C428.493 226.138 428.905 226.247 429.413 226.247C429.992 226.247 430.451 226.124 430.791 225.879C431.134 225.63 431.306 225.332 431.306 224.985C431.306 224.705 431.208 224.47 431.011 224.281C430.815 224.088 430.514 223.944 430.107 223.85L428.762 223.534C428.022 223.359 427.479 223.088 427.132 222.72C426.788 222.348 426.617 221.884 426.617 221.326C426.617 220.871 426.745 220.468 427 220.117C427.26 219.767 427.612 219.492 428.057 219.292C428.506 219.092 429.014 218.992 429.582 218.992C430.381 218.992 431.008 219.168 431.464 219.518C431.923 219.869 432.249 220.331 432.441 220.906Z" fill="white" fill-opacity="0.5"/>
<path d="M384.966 254.148C383.804 254.143 382.81 253.836 381.986 253.228C381.161 252.619 380.531 251.734 380.094 250.571C379.658 249.408 379.439 248.007 379.439 246.368C379.439 244.734 379.658 243.338 380.094 242.181C380.536 241.023 381.169 240.139 381.993 239.531C382.822 238.923 383.813 238.618 384.966 238.618C386.119 238.618 387.108 238.925 387.932 239.538C388.757 240.147 389.387 241.03 389.824 242.188C390.265 243.341 390.486 244.734 390.486 246.368C390.486 248.012 390.268 249.415 389.831 250.578C389.395 251.736 388.764 252.622 387.94 253.235C387.115 253.843 386.124 254.148 384.966 254.148ZM384.966 252.182C385.987 252.182 386.784 251.684 387.358 250.688C387.937 249.692 388.227 248.252 388.227 246.368C388.227 245.117 388.094 244.06 387.829 243.196C387.569 242.328 387.194 241.67 386.703 241.224C386.218 240.772 385.639 240.547 384.966 240.547C383.951 240.547 383.153 241.047 382.575 242.048C381.996 243.049 381.704 244.489 381.699 246.368C381.699 247.624 381.829 248.687 382.089 249.555C382.354 250.419 382.729 251.074 383.215 251.52C383.701 251.962 384.284 252.182 384.966 252.182ZM398.345 254.103C397.334 254.103 396.431 253.929 395.636 253.581C394.846 253.232 394.221 252.749 393.76 252.131C393.303 251.508 393.058 250.787 393.024 249.967H395.335C395.364 250.414 395.514 250.801 395.783 251.13C396.058 251.454 396.416 251.704 396.858 251.881C397.3 252.057 397.79 252.146 398.33 252.146C398.924 252.146 399.449 252.043 399.905 251.837C400.366 251.63 400.727 251.343 400.987 250.975C401.247 250.603 401.377 250.173 401.377 249.687C401.377 249.182 401.247 248.738 400.987 248.355C400.732 247.968 400.356 247.664 399.861 247.443C399.37 247.222 398.776 247.112 398.08 247.112H396.806V245.257H398.08C398.639 245.257 399.13 245.156 399.552 244.955C399.979 244.754 400.312 244.474 400.553 244.116C400.793 243.753 400.913 243.329 400.913 242.843C400.913 242.377 400.808 241.972 400.597 241.629C400.391 241.28 400.096 241.008 399.714 240.812C399.336 240.615 398.889 240.517 398.374 240.517C397.883 240.517 397.425 240.608 396.998 240.79C396.576 240.966 396.232 241.221 395.967 241.555C395.702 241.884 395.56 242.279 395.541 242.74H393.34C393.365 241.925 393.605 241.209 394.061 240.591C394.522 239.973 395.131 239.489 395.886 239.141C396.642 238.793 397.481 238.618 398.404 238.618C399.37 238.618 400.204 238.807 400.906 239.185C401.612 239.558 402.157 240.056 402.54 240.679C402.927 241.302 403.119 241.984 403.114 242.725C403.119 243.569 402.883 244.285 402.407 244.874C401.936 245.463 401.308 245.858 400.523 246.059V246.177C401.524 246.329 402.299 246.726 402.849 247.369C403.403 248.012 403.678 248.809 403.673 249.761C403.678 250.59 403.447 251.334 402.981 251.991C402.52 252.649 401.89 253.166 401.09 253.544C400.29 253.917 399.375 254.103 398.345 254.103ZM412.225 238.118L407.368 256.164H405.403L410.26 238.118H412.225ZM414.065 253.897V252.249L419.165 246.964C419.71 246.39 420.159 245.887 420.512 245.456C420.87 245.019 421.138 244.604 421.314 244.212C421.491 243.819 421.579 243.402 421.579 242.961C421.579 242.46 421.462 242.028 421.226 241.665C420.991 241.297 420.669 241.015 420.262 240.819C419.855 240.618 419.396 240.517 418.886 240.517C418.346 240.517 417.875 240.628 417.473 240.848C417.07 241.069 416.761 241.381 416.545 241.783C416.329 242.185 416.221 242.656 416.221 243.196H414.05C414.05 242.279 414.261 241.476 414.683 240.79C415.105 240.103 415.684 239.57 416.42 239.192C417.156 238.81 417.993 238.618 418.93 238.618C419.877 238.618 420.711 238.807 421.432 239.185C422.158 239.558 422.725 240.068 423.132 240.716C423.54 241.359 423.743 242.085 423.743 242.894C423.743 243.454 423.638 244.001 423.427 244.536C423.221 245.07 422.86 245.667 422.345 246.324C421.83 246.977 421.113 247.769 420.196 248.701L417.2 251.837V251.947H423.986V253.897H414.065ZM432.038 254.103C431.365 254.094 430.703 253.971 430.05 253.735C429.403 253.5 428.814 253.107 428.284 252.558C427.754 252.008 427.33 251.27 427.011 250.343C426.697 249.415 426.54 248.257 426.54 246.869C426.54 245.554 426.67 244.386 426.93 243.365C427.195 242.345 427.575 241.484 428.071 240.782C428.566 240.076 429.165 239.538 429.866 239.17C430.568 238.802 431.356 238.618 432.229 238.618C433.127 238.618 433.924 238.795 434.621 239.148C435.318 239.502 435.882 239.99 436.314 240.613C436.75 241.236 437.028 241.945 437.145 242.74H434.901C434.748 242.112 434.447 241.599 433.995 241.202C433.544 240.804 432.955 240.606 432.229 240.606C431.125 240.606 430.264 241.086 429.646 242.048C429.032 243.01 428.723 244.347 428.718 246.059H428.829C429.089 245.632 429.408 245.269 429.786 244.97C430.168 244.666 430.595 244.433 431.066 244.271C431.542 244.104 432.043 244.02 432.568 244.02C433.441 244.02 434.231 244.234 434.937 244.661C435.649 245.083 436.215 245.667 436.637 246.412C437.059 247.158 437.27 248.012 437.27 248.974C437.27 249.935 437.052 250.806 436.615 251.586C436.184 252.366 435.575 252.985 434.79 253.441C434.005 253.892 433.088 254.113 432.038 254.103ZM432.03 252.19C432.609 252.19 433.127 252.048 433.583 251.763C434.039 251.478 434.4 251.096 434.665 250.615C434.93 250.134 435.062 249.597 435.062 249.003C435.062 248.424 434.932 247.897 434.672 247.421C434.417 246.945 434.064 246.567 433.613 246.287C433.166 246.008 432.656 245.868 432.082 245.868C431.645 245.868 431.24 245.951 430.867 246.118C430.499 246.285 430.176 246.515 429.896 246.81C429.616 247.104 429.395 247.443 429.234 247.825C429.077 248.203 428.998 248.603 428.998 249.025C428.998 249.589 429.128 250.112 429.388 250.593C429.653 251.074 430.014 251.461 430.47 251.756C430.931 252.045 431.451 252.19 432.03 252.19Z" fill="white"/>
<path d="M69.5745 219.77H68.2707C68.1936 219.395 68.0587 219.066 67.866 218.782C67.6767 218.498 67.4454 218.26 67.172 218.067C66.9022 217.871 66.6025 217.724 66.2731 217.626C65.9437 217.527 65.6002 217.478 65.2427 217.478C64.5909 217.478 64.0003 217.643 63.4711 217.972C62.9454 218.302 62.5266 218.787 62.2147 219.429C61.9063 220.07 61.7521 220.857 61.7521 221.789C61.7521 222.721 61.9063 223.508 62.2147 224.149C62.5266 224.791 62.9454 225.276 63.4711 225.606C64.0003 225.935 64.5909 226.1 65.2427 226.1C65.6002 226.1 65.9437 226.051 66.2731 225.953C66.6025 225.854 66.9022 225.709 67.172 225.516C67.4454 225.32 67.6767 225.08 67.866 224.796C68.0587 224.509 68.1936 224.179 68.2707 223.808H69.5745C69.4763 224.358 69.2976 224.85 69.0383 225.285C68.7789 225.72 68.4565 226.089 68.071 226.394C67.6855 226.696 67.2526 226.925 66.7725 227.083C66.2959 227.241 65.7859 227.319 65.2427 227.319C64.3245 227.319 63.5079 227.095 62.793 226.646C62.078 226.198 61.5155 225.56 61.1055 224.733C60.6954 223.906 60.4904 222.925 60.4904 221.789C60.4904 220.654 60.6954 219.672 61.1055 218.845C61.5155 218.018 62.078 217.38 62.793 216.932C63.5079 216.483 64.3245 216.259 65.2427 216.259C65.7859 216.259 66.2959 216.338 66.7725 216.495C67.2526 216.653 67.6855 216.884 68.071 217.189C68.4565 217.491 68.7789 217.859 69.0383 218.293C69.2976 218.724 69.4763 219.217 69.5745 219.77ZM73.8891 227.361C73.3774 227.361 72.9131 227.265 72.496 227.072C72.079 226.876 71.7478 226.594 71.5025 226.226C71.2571 225.854 71.1345 225.406 71.1345 224.88C71.1345 224.418 71.2256 224.043 71.4078 223.755C71.5901 223.464 71.8337 223.236 72.1386 223.072C72.4435 222.907 72.7799 222.784 73.1479 222.704C73.5194 222.62 73.8926 222.553 74.2676 222.504C74.7583 222.441 75.1561 222.394 75.461 222.362C75.7694 222.327 75.9937 222.269 76.1339 222.189C76.2775 222.108 76.3494 221.968 76.3494 221.768V221.726C76.3494 221.207 76.2074 220.804 75.9236 220.517C75.6432 220.229 75.2174 220.086 74.6461 220.086C74.0538 220.086 73.5895 220.215 73.253 220.475C72.9166 220.734 72.68 221.011 72.5433 221.305L71.3658 220.885C71.5761 220.394 71.8564 220.012 72.2069 219.739C72.5609 219.462 72.9464 219.269 73.3634 219.161C73.784 219.048 74.1975 218.992 74.6041 218.992C74.8634 218.992 75.1613 219.024 75.4978 219.087C75.8377 219.147 76.1654 219.271 76.4808 219.46C76.7997 219.649 77.0643 219.935 77.2746 220.317C77.4849 220.699 77.59 221.211 77.59 221.852V227.172H76.3494V226.079H76.2863C76.2022 226.254 76.062 226.441 75.8657 226.641C75.6695 226.841 75.4084 227.011 75.0825 227.151C74.7565 227.291 74.3587 227.361 73.8891 227.361ZM74.0784 226.247C74.569 226.247 74.9826 226.151 75.319 225.958C75.659 225.765 75.9148 225.516 76.0865 225.211C76.2618 224.906 76.3494 224.586 76.3494 224.249V223.114C76.2968 223.177 76.1812 223.235 76.0024 223.287C75.8272 223.336 75.6239 223.38 75.3926 223.419C75.1648 223.454 74.9423 223.485 74.725 223.513C74.5112 223.538 74.3377 223.559 74.2045 223.576C73.8821 223.618 73.5807 223.687 73.3003 223.781C73.0235 223.873 72.7992 224.011 72.6275 224.197C72.4592 224.379 72.3751 224.628 72.3751 224.943C72.3751 225.374 72.5346 225.7 72.8535 225.921C73.1759 226.138 73.5842 226.247 74.0784 226.247ZM79.8545 227.172V219.097H81.0531V220.317H81.1372C81.2844 219.918 81.5507 219.593 81.9362 219.345C82.3217 219.096 82.7563 218.971 83.24 218.971C83.3311 218.971 83.445 218.973 83.5817 218.977C83.7183 218.98 83.8217 218.985 83.8918 218.992V220.254C83.8498 220.244 83.7534 220.228 83.6027 220.207C83.4555 220.182 83.2995 220.17 83.1348 220.17C82.7423 220.17 82.3918 220.252 82.0834 220.417C81.7785 220.578 81.5367 220.803 81.358 221.09C81.1827 221.374 81.0951 221.698 81.0951 222.062V227.172H79.8545ZM88.1657 227.34C87.4928 227.34 86.8988 227.17 86.3836 226.83C85.8684 226.487 85.4654 226.003 85.1745 225.38C84.8836 224.752 84.7382 224.011 84.7382 223.156C84.7382 222.308 84.8836 221.572 85.1745 220.948C85.4654 220.324 85.8702 219.842 86.3889 219.502C86.9076 219.162 87.5069 218.992 88.1868 218.992C88.7125 218.992 89.1278 219.08 89.4327 219.255C89.7411 219.427 89.9759 219.623 90.1371 219.844C90.3018 220.061 90.4297 220.24 90.5209 220.38H90.626V216.406H91.8666V227.172H90.6681V225.932H90.5209C90.4297 226.079 90.3001 226.264 90.1318 226.489C89.9636 226.71 89.7236 226.908 89.4116 227.083C89.0997 227.255 88.6844 227.34 88.1657 227.34ZM88.334 226.226C88.8316 226.226 89.2522 226.096 89.5956 225.837C89.9391 225.574 90.2002 225.211 90.3789 224.749C90.5577 224.283 90.647 223.745 90.647 223.135C90.647 222.532 90.5594 222.005 90.3842 221.552C90.2089 221.097 89.9496 220.743 89.6061 220.491C89.2627 220.235 88.8386 220.107 88.334 220.107C87.8083 220.107 87.3702 220.242 87.0197 220.512C86.6728 220.778 86.4117 221.141 86.2364 221.6C86.0647 222.055 85.9788 222.567 85.9788 223.135C85.9788 223.71 86.0665 224.232 86.2417 224.701C86.4204 225.168 86.6833 225.539 87.0302 225.816C87.3807 226.089 87.8153 226.226 88.334 226.226ZM98.6429 227.172V216.406H99.9466V221.2H105.687V216.406H106.991V227.172H105.687V222.357H99.9466V227.172H98.6429ZM112.713 227.34C111.984 227.34 111.345 227.167 110.794 226.82C110.248 226.473 109.82 225.988 109.512 225.364C109.207 224.74 109.054 224.011 109.054 223.177C109.054 222.336 109.207 221.602 109.512 220.974C109.82 220.347 110.248 219.86 110.794 219.513C111.345 219.166 111.984 218.992 112.713 218.992C113.442 218.992 114.08 219.166 114.627 219.513C115.177 219.86 115.604 220.347 115.909 220.974C116.218 221.602 116.372 222.336 116.372 223.177C116.372 224.011 116.218 224.74 115.909 225.364C115.604 225.988 115.177 226.473 114.627 226.82C114.08 227.167 113.442 227.34 112.713 227.34ZM112.713 226.226C113.267 226.226 113.722 226.084 114.08 225.8C114.437 225.516 114.702 225.143 114.874 224.68C115.045 224.218 115.131 223.717 115.131 223.177C115.131 222.637 115.045 222.134 114.874 221.668C114.702 221.202 114.437 220.825 114.08 220.538C113.722 220.251 113.267 220.107 112.713 220.107C112.159 220.107 111.704 220.251 111.346 220.538C110.989 220.825 110.724 221.202 110.553 221.668C110.381 222.134 110.295 222.637 110.295 223.177C110.295 223.717 110.381 224.218 110.553 224.68C110.724 225.143 110.989 225.516 111.346 225.8C111.704 226.084 112.159 226.226 112.713 226.226ZM119.506 216.406V227.172H118.266V216.406H119.506ZM124.828 227.34C124.155 227.34 123.561 227.17 123.046 226.83C122.531 226.487 122.128 226.003 121.837 225.38C121.546 224.752 121.4 224.011 121.4 223.156C121.4 222.308 121.546 221.572 121.837 220.948C122.128 220.324 122.532 219.842 123.051 219.502C123.57 219.162 124.169 218.992 124.849 218.992C125.375 218.992 125.79 219.08 126.095 219.255C126.403 219.427 126.638 219.623 126.799 219.844C126.964 220.061 127.092 220.24 127.183 220.38H127.288V216.406H128.529V227.172H127.33V225.932H127.183C127.092 226.079 126.962 226.264 126.794 226.489C126.626 226.71 126.386 226.908 126.074 227.083C125.762 227.255 125.347 227.34 124.828 227.34ZM124.996 226.226C125.494 226.226 125.914 226.096 126.258 225.837C126.601 225.574 126.862 225.211 127.041 224.749C127.22 224.283 127.309 223.745 127.309 223.135C127.309 222.532 127.222 222.005 127.046 221.552C126.871 221.097 126.612 220.743 126.268 220.491C125.925 220.235 125.501 220.107 124.996 220.107C124.47 220.107 124.032 220.242 123.682 220.512C123.335 220.778 123.074 221.141 122.899 221.6C122.727 222.055 122.641 222.567 122.641 223.135C122.641 223.71 122.729 224.232 122.904 224.701C123.083 225.168 123.345 225.539 123.692 225.816C124.043 226.089 124.477 226.226 124.996 226.226ZM134.359 227.34C133.581 227.34 132.91 227.169 132.345 226.825C131.785 226.478 131.352 225.995 131.047 225.374C130.745 224.75 130.595 224.025 130.595 223.198C130.595 222.371 130.745 221.642 131.047 221.011C131.352 220.377 131.776 219.883 132.319 219.529C132.866 219.171 133.504 218.992 134.233 218.992C134.653 218.992 135.068 219.062 135.478 219.203C135.889 219.343 136.262 219.571 136.598 219.886C136.935 220.198 137.203 220.611 137.403 221.127C137.602 221.642 137.702 222.276 137.702 223.03V223.555H131.478V222.483H136.44C136.44 222.027 136.349 221.621 136.167 221.263C135.988 220.906 135.733 220.624 135.4 220.417C135.07 220.21 134.681 220.107 134.233 220.107C133.738 220.107 133.311 220.229 132.95 220.475C132.592 220.717 132.317 221.032 132.125 221.421C131.932 221.81 131.835 222.227 131.835 222.672V223.387C131.835 223.997 131.941 224.514 132.151 224.938C132.365 225.359 132.661 225.679 133.039 225.9C133.418 226.117 133.858 226.226 134.359 226.226C134.685 226.226 134.979 226.18 135.242 226.089C135.508 225.995 135.738 225.854 135.931 225.669C136.123 225.479 136.272 225.245 136.377 224.964L137.576 225.301C137.45 225.707 137.238 226.065 136.94 226.373C136.642 226.678 136.274 226.916 135.836 227.088C135.398 227.256 134.905 227.34 134.359 227.34ZM139.589 227.172V219.097H140.788V220.317H140.872C141.019 219.918 141.286 219.593 141.671 219.345C142.057 219.096 142.491 218.971 142.975 218.971C143.066 218.971 143.18 218.973 143.317 218.977C143.453 218.98 143.557 218.985 143.627 218.992V220.254C143.585 220.244 143.488 220.228 143.338 220.207C143.19 220.182 143.034 220.17 142.87 220.17C142.477 220.17 142.127 220.252 141.818 220.417C141.513 220.578 141.272 220.803 141.093 221.09C140.918 221.374 140.83 221.698 140.83 222.062V227.172H139.589Z" fill="white" fill-opacity="0.5"/>
<path d="M62.5365 253.897H60.1225L65.5466 238.824H68.174L73.5982 253.897H71.1842L66.9229 241.562H66.8051L62.5365 253.897ZM62.9412 247.995H70.772V249.908H62.9412V247.995ZM77.6221 250.063L77.6074 247.377H77.9901L82.4943 242.593H85.1291L79.992 248.039H79.646L77.6221 250.063ZM75.5982 253.897V238.824H77.7987V253.897H75.5982ZM82.7371 253.897L78.6893 248.525L80.2054 246.986L85.4382 253.897H82.7371ZM87.3112 253.897V238.824H89.5118V244.425H89.6443C89.7718 244.19 89.9558 243.917 90.1963 243.608C90.4367 243.299 90.7703 243.029 91.1972 242.799C91.6241 242.563 92.1883 242.445 92.8899 242.445C93.8025 242.445 94.617 242.676 95.3334 243.137C96.0497 243.599 96.6115 244.263 97.0188 245.132C97.4309 246 97.637 247.045 97.637 248.267C97.637 249.489 97.4334 250.536 97.0261 251.41C96.6189 252.278 96.0595 252.948 95.3481 253.419C94.6366 253.885 93.8246 254.118 92.912 254.118C92.2251 254.118 91.6633 254.003 91.2266 253.772C90.7949 253.542 90.4563 253.272 90.211 252.963C89.9657 252.653 89.7768 252.379 89.6443 252.138H89.4603V253.897H87.3112ZM89.4676 248.245C89.4676 249.04 89.5829 249.737 89.8136 250.335C90.0442 250.934 90.3778 251.402 90.8145 251.741C91.2512 252.075 91.786 252.241 92.4189 252.241C93.0764 252.241 93.6259 252.067 94.0675 251.719C94.5091 251.366 94.8427 250.887 95.0684 250.284C95.299 249.68 95.4143 249.001 95.4143 248.245C95.4143 247.499 95.3015 246.829 95.0758 246.236C94.855 245.642 94.5213 245.174 94.0749 244.83C93.6333 244.487 93.0813 244.315 92.4189 244.315C91.7811 244.315 91.2413 244.479 90.7998 244.808C90.3631 245.137 90.0319 245.595 89.8062 246.184C89.5805 246.773 89.4676 247.46 89.4676 248.245ZM103.398 254.148C102.681 254.148 102.034 254.015 101.455 253.75C100.876 253.48 100.417 253.09 100.079 252.58C99.7449 252.07 99.5781 251.444 99.5781 250.703C99.5781 250.065 99.7008 249.54 99.9461 249.128C100.191 248.716 100.523 248.39 100.94 248.149C101.357 247.909 101.823 247.727 102.338 247.605C102.853 247.482 103.378 247.389 103.913 247.325C104.59 247.247 105.14 247.183 105.562 247.134C105.984 247.08 106.29 246.994 106.482 246.876C106.673 246.758 106.769 246.567 106.769 246.302V246.25C106.769 245.608 106.587 245.11 106.224 244.756C105.866 244.403 105.331 244.227 104.62 244.227C103.879 244.227 103.295 244.391 102.868 244.72C102.446 245.043 102.154 245.404 101.992 245.802L99.924 245.331C100.169 244.644 100.528 244.089 100.999 243.667C101.474 243.24 102.022 242.931 102.64 242.74C103.258 242.544 103.908 242.445 104.59 242.445C105.042 242.445 105.52 242.499 106.025 242.607C106.536 242.71 107.011 242.902 107.453 243.181C107.9 243.461 108.265 243.861 108.55 244.381C108.834 244.896 108.977 245.566 108.977 246.39V253.897H106.827V252.352H106.739C106.597 252.636 106.383 252.916 106.099 253.191C105.814 253.465 105.449 253.694 105.002 253.875C104.556 254.057 104.021 254.148 103.398 254.148ZM103.876 252.381C104.485 252.381 105.005 252.261 105.436 252.021C105.873 251.78 106.204 251.466 106.43 251.078C106.661 250.686 106.776 250.266 106.776 249.82V248.363C106.697 248.441 106.545 248.515 106.32 248.584C106.099 248.647 105.846 248.704 105.562 248.753C105.277 248.797 105 248.839 104.73 248.878C104.46 248.912 104.234 248.942 104.053 248.966C103.626 249.02 103.236 249.111 102.883 249.239C102.534 249.366 102.255 249.55 102.044 249.791C101.838 250.026 101.735 250.34 101.735 250.733C101.735 251.277 101.936 251.689 102.338 251.969C102.74 252.244 103.253 252.381 103.876 252.381ZM111.908 253.897V242.593H114.035V244.388H114.152C114.358 243.78 114.721 243.302 115.242 242.953C115.767 242.6 116.36 242.423 117.023 242.423C117.16 242.423 117.322 242.428 117.508 242.438C117.7 242.448 117.849 242.46 117.957 242.475V244.58C117.869 244.555 117.712 244.528 117.486 244.499C117.261 244.465 117.035 244.447 116.809 244.447C116.289 244.447 115.825 244.558 115.418 244.779C115.016 244.994 114.697 245.296 114.461 245.684C114.226 246.066 114.108 246.503 114.108 246.994V253.897H111.908ZM123.05 254.148C122.334 254.148 121.686 254.015 121.107 253.75C120.528 253.48 120.07 253.09 119.731 252.58C119.397 252.07 119.23 251.444 119.23 250.703C119.23 250.065 119.353 249.54 119.598 249.128C119.844 248.716 120.175 248.39 120.592 248.149C121.009 247.909 121.475 247.727 121.99 247.605C122.506 247.482 123.031 247.389 123.565 247.325C124.242 247.247 124.792 247.183 125.214 247.134C125.636 247.08 125.943 246.994 126.134 246.876C126.325 246.758 126.421 246.567 126.421 246.302V246.25C126.421 245.608 126.239 245.11 125.876 244.756C125.518 244.403 124.983 244.227 124.272 244.227C123.531 244.227 122.947 244.391 122.52 244.72C122.098 245.043 121.806 245.404 121.644 245.802L119.576 245.331C119.822 244.644 120.18 244.089 120.651 243.667C121.127 243.24 121.674 242.931 122.292 242.74C122.91 242.544 123.56 242.445 124.242 242.445C124.694 242.445 125.172 242.499 125.678 242.607C126.188 242.71 126.664 242.902 127.105 243.181C127.552 243.461 127.917 243.861 128.202 244.381C128.487 244.896 128.629 245.566 128.629 246.39V253.897H126.48V252.352H126.392C126.249 252.636 126.036 252.916 125.751 253.191C125.467 253.465 125.101 253.694 124.655 253.875C124.208 254.057 123.673 254.148 123.05 254.148ZM123.529 252.381C124.137 252.381 124.657 252.261 125.089 252.021C125.526 251.78 125.857 251.466 126.082 251.078C126.313 250.686 126.428 250.266 126.428 249.82V248.363C126.35 248.441 126.198 248.515 125.972 248.584C125.751 248.647 125.499 248.704 125.214 248.753C124.929 248.797 124.652 248.839 124.382 248.878C124.112 248.912 123.887 248.942 123.705 248.966C123.278 249.02 122.888 249.111 122.535 249.239C122.187 249.366 121.907 249.55 121.696 249.791C121.49 250.026 121.387 250.34 121.387 250.733C121.387 251.277 121.588 251.689 121.99 251.969C122.393 252.244 122.905 252.381 123.529 252.381ZM133.76 238.824V253.897H131.56V238.824H133.76ZM136.721 253.897V242.593H138.922V253.897H136.721ZM137.832 240.848C137.45 240.848 137.121 240.721 136.846 240.466C136.576 240.206 136.441 239.897 136.441 239.538C136.441 239.175 136.576 238.866 136.846 238.611C137.121 238.351 137.45 238.221 137.832 238.221C138.215 238.221 138.541 238.351 138.811 238.611C139.086 238.866 139.223 239.175 139.223 239.538C139.223 239.897 139.086 240.206 138.811 240.466C138.541 240.721 138.215 240.848 137.832 240.848ZM147.543 253.897V238.824H149.818V246.022H150.002L156.324 238.824H159.187L153.107 245.61L159.209 253.897H156.471L151.599 247.163L149.818 249.209V253.897H147.543ZM163.33 247.185V253.897H161.13V238.824H163.301V244.433H163.441C163.706 243.824 164.11 243.341 164.655 242.983C165.2 242.625 165.911 242.445 166.789 242.445C167.564 242.445 168.242 242.605 168.821 242.924C169.404 243.243 169.856 243.719 170.175 244.352C170.499 244.98 170.66 245.765 170.66 246.707V253.897H168.46V246.972C168.46 246.143 168.246 245.5 167.82 245.043C167.393 244.582 166.799 244.352 166.039 244.352C165.518 244.352 165.052 244.462 164.64 244.683C164.233 244.904 163.912 245.227 163.676 245.654C163.445 246.076 163.33 246.587 163.33 247.185ZM176.887 254.148C176.17 254.148 175.523 254.015 174.944 253.75C174.365 253.48 173.906 253.09 173.568 252.58C173.234 252.07 173.067 251.444 173.067 250.703C173.067 250.065 173.19 249.54 173.435 249.128C173.68 248.716 174.012 248.39 174.429 248.149C174.846 247.909 175.312 247.727 175.827 247.605C176.342 247.482 176.867 247.389 177.402 247.325C178.079 247.247 178.629 247.183 179.051 247.134C179.473 247.08 179.779 246.994 179.971 246.876C180.162 246.758 180.258 246.567 180.258 246.302V246.25C180.258 245.608 180.076 245.11 179.713 244.756C179.355 244.403 178.82 244.227 178.109 244.227C177.368 244.227 176.784 244.391 176.357 244.72C175.935 245.043 175.643 245.404 175.481 245.802L173.413 245.331C173.658 244.644 174.017 244.089 174.488 243.667C174.963 243.24 175.511 242.931 176.129 242.74C176.747 242.544 177.397 242.445 178.079 242.445C178.531 242.445 179.009 242.499 179.514 242.607C180.025 242.71 180.5 242.902 180.942 243.181C181.389 243.461 181.754 243.861 182.039 244.381C182.323 244.896 182.466 245.566 182.466 246.39V253.897H180.316V252.352H180.228C180.086 252.636 179.872 252.916 179.588 253.191C179.303 253.465 178.938 253.694 178.491 253.875C178.045 254.057 177.51 254.148 176.887 254.148ZM177.365 252.381C177.974 252.381 178.494 252.261 178.925 252.021C179.362 251.78 179.693 251.466 179.919 251.078C180.15 250.686 180.265 250.266 180.265 249.82V248.363C180.186 248.441 180.034 248.515 179.809 248.584C179.588 248.647 179.335 248.704 179.051 248.753C178.766 248.797 178.489 248.839 178.219 248.878C177.949 248.912 177.723 248.942 177.542 248.966C177.115 249.02 176.725 249.111 176.372 249.239C176.023 249.366 175.744 249.55 175.533 249.791C175.327 250.026 175.224 250.34 175.224 250.733C175.224 251.277 175.425 251.689 175.827 251.969C176.229 252.244 176.742 252.381 177.365 252.381ZM193.868 245.353L191.873 245.706C191.79 245.451 191.657 245.208 191.476 244.977C191.299 244.747 191.059 244.558 190.754 244.411C190.45 244.263 190.07 244.19 189.614 244.19C188.991 244.19 188.47 244.33 188.053 244.609C187.636 244.884 187.428 245.24 187.428 245.676C187.428 246.054 187.568 246.358 187.847 246.589C188.127 246.82 188.578 247.009 189.202 247.156L190.997 247.568C192.038 247.808 192.813 248.179 193.323 248.679C193.833 249.18 194.088 249.83 194.088 250.63C194.088 251.307 193.892 251.91 193.5 252.44C193.112 252.965 192.57 253.377 191.873 253.676C191.181 253.976 190.379 254.125 189.466 254.125C188.201 254.125 187.168 253.856 186.368 253.316C185.568 252.771 185.078 251.998 184.896 250.998L187.023 250.674C187.156 251.228 187.428 251.648 187.84 251.932C188.252 252.212 188.789 252.352 189.452 252.352C190.173 252.352 190.75 252.202 191.181 251.903C191.613 251.599 191.829 251.228 191.829 250.791C191.829 250.438 191.696 250.141 191.432 249.901C191.172 249.661 190.772 249.479 190.232 249.356L188.318 248.937C187.263 248.696 186.483 248.314 185.978 247.789C185.478 247.264 185.227 246.599 185.227 245.794C185.227 245.127 185.414 244.543 185.787 244.043C186.16 243.542 186.675 243.152 187.332 242.872C187.99 242.588 188.743 242.445 189.592 242.445C190.813 242.445 191.775 242.71 192.477 243.24C193.178 243.765 193.642 244.469 193.868 245.353ZM199.798 254.148C199.081 254.148 198.434 254.015 197.855 253.75C197.276 253.48 196.817 253.09 196.478 252.58C196.145 252.07 195.978 251.444 195.978 250.703C195.978 250.065 196.101 249.54 196.346 249.128C196.591 248.716 196.923 248.39 197.34 248.149C197.757 247.909 198.223 247.727 198.738 247.605C199.253 247.482 199.778 247.389 200.313 247.325C200.99 247.247 201.54 247.183 201.962 247.134C202.383 247.08 202.69 246.994 202.881 246.876C203.073 246.758 203.169 246.567 203.169 246.302V246.25C203.169 245.608 202.987 245.11 202.624 244.756C202.266 244.403 201.731 244.227 201.019 244.227C200.279 244.227 199.695 244.391 199.268 244.72C198.846 245.043 198.554 245.404 198.392 245.802L196.324 245.331C196.569 244.644 196.927 244.089 197.398 243.667C197.874 243.24 198.421 242.931 199.04 242.74C199.658 242.544 200.308 242.445 200.99 242.445C201.441 242.445 201.92 242.499 202.425 242.607C202.935 242.71 203.411 242.902 203.853 243.181C204.299 243.461 204.665 243.861 204.95 244.381C205.234 244.896 205.376 245.566 205.376 246.39V253.897H203.227V252.352H203.139C202.997 252.636 202.783 252.916 202.499 253.191C202.214 253.465 201.849 253.694 201.402 253.875C200.956 254.057 200.421 254.148 199.798 254.148ZM200.276 252.381C200.885 252.381 201.405 252.261 201.836 252.021C202.273 251.78 202.604 251.466 202.83 251.078C203.061 250.686 203.176 250.266 203.176 249.82V248.363C203.097 248.441 202.945 248.515 202.72 248.584C202.499 248.647 202.246 248.704 201.962 248.753C201.677 248.797 201.4 248.839 201.13 248.878C200.86 248.912 200.634 248.942 200.453 248.966C200.026 249.02 199.636 249.111 199.283 249.239C198.934 249.366 198.655 249.55 198.444 249.791C198.237 250.026 198.134 250.34 198.134 250.733C198.134 251.277 198.336 251.689 198.738 251.969C199.14 252.244 199.653 252.381 200.276 252.381ZM210.508 247.185V253.897H208.307V242.593H210.42V244.433H210.56C210.82 243.834 211.227 243.353 211.781 242.99C212.341 242.627 213.045 242.445 213.894 242.445C214.664 242.445 215.338 242.607 215.917 242.931C216.496 243.25 216.945 243.726 217.264 244.359C217.583 244.992 217.743 245.775 217.743 246.707V253.897H215.542V246.972C215.542 246.152 215.329 245.512 214.902 245.051C214.475 244.585 213.889 244.352 213.143 244.352C212.633 244.352 212.179 244.462 211.781 244.683C211.389 244.904 211.077 245.227 210.847 245.654C210.621 246.076 210.508 246.587 210.508 247.185ZM225.456 254.125C224.396 254.125 223.471 253.883 222.681 253.397C221.891 252.911 221.278 252.232 220.841 251.358C220.404 250.485 220.186 249.464 220.186 248.296C220.186 247.124 220.404 246.098 220.841 245.22C221.278 244.342 221.891 243.66 222.681 243.174C223.471 242.688 224.396 242.445 225.456 242.445C226.516 242.445 227.44 242.688 228.23 243.174C229.02 243.66 229.634 244.342 230.07 245.22C230.507 246.098 230.725 247.124 230.725 248.296C230.725 249.464 230.507 250.485 230.07 251.358C229.634 252.232 229.02 252.911 228.23 253.397C227.44 253.883 226.516 254.125 225.456 254.125ZM225.463 252.278C226.15 252.278 226.719 252.097 227.171 251.734C227.622 251.37 227.956 250.887 228.171 250.284C228.392 249.68 228.503 249.015 228.503 248.289C228.503 247.568 228.392 246.906 228.171 246.302C227.956 245.694 227.622 245.205 227.171 244.837C226.719 244.469 226.15 244.285 225.463 244.285C224.771 244.285 224.197 244.469 223.741 244.837C223.289 245.205 222.953 245.694 222.733 246.302C222.517 246.906 222.409 247.568 222.409 248.289C222.409 249.015 222.517 249.68 222.733 250.284C222.953 250.887 223.289 251.37 223.741 251.734C224.197 252.097 224.771 252.278 225.463 252.278ZM242.468 242.593L238.368 253.897H236.013L231.907 242.593H234.269L237.132 251.292H237.25L240.105 242.593H242.468Z" fill="white"/>
<path fill-rule="evenodd" clip-rule="evenodd" d="M445.02 59.5994L441.196 82.0387H447.311L451.138 59.5994H445.02Z" fill="white"/>
<path fill-rule="evenodd" clip-rule="evenodd" d="M436.069 59.6245L430.08 74.927L429.44 72.6177C428.259 69.8331 424.906 65.8346 420.97 63.3151L426.446 82.0283L432.916 82.0165L442.547 59.6201L436.069 59.6245Z" fill="white"/>
<path fill-rule="evenodd" clip-rule="evenodd" d="M427.119 61.2307C426.764 59.8643 425.734 59.4572 424.454 59.4084H414.973L414.894 59.854C422.272 61.6437 427.155 65.9575 429.181 71.1432L427.119 61.2307Z" fill="white"/>
<path fill-rule="evenodd" clip-rule="evenodd" d="M463.533 63.9013C465.533 63.8702 466.984 64.3069 468.11 64.7599L468.663 65.0205L469.49 60.156C468.278 59.7015 466.38 59.2145 464.011 59.2145C457.968 59.2145 453.709 62.2581 453.675 66.6193C453.637 69.842 456.71 71.6421 459.031 72.7154C461.415 73.8168 462.213 74.517 462.202 75.4999C462.183 77.0025 460.303 77.6909 458.546 77.6909C456.096 77.6909 454.796 77.3534 452.787 76.517L452 76.1572L451.138 81.1801C452.57 81.8078 455.21 82.3466 457.952 82.3748C464.381 82.3748 468.559 79.3681 468.602 74.708C468.628 72.1573 466.999 70.2121 463.463 68.6163C461.324 67.5741 460.016 66.8828 460.029 65.8317C460.029 64.8991 461.139 63.9013 463.533 63.9013Z" fill="white"/>
<path fill-rule="evenodd" clip-rule="evenodd" d="M480.458 59.6245H485.183L490.132 82.0505H484.458C484.458 82.0505 483.895 79.4732 483.713 78.6901C483.243 78.6901 481.274 78.6871 479.419 78.6842C477.77 78.6827 476.212 78.6812 475.881 78.6812C475.644 79.2867 474.596 82.0505 474.596 82.0505H468.174L477.254 61.4868C477.9 60.0242 478.991 59.6245 480.458 59.6245ZM480.078 67.8169C480.078 67.8169 478.144 72.7998 477.641 74.0877H482.721L481.305 67.6096L480.893 65.6748C480.738 66.0878 480.532 66.6237 480.365 67.0559C480.192 67.5089 480.061 67.8479 480.078 67.8169Z" fill="white"/>
</g>
</g>
<defs>
<filter id="filter0_d_4_101961" x="0.39275" y="0" width="549.215" height="368.61" filterUnits="userSpaceOnUse" color-interpolation-filters="sRGB">
<feFlood flood-opacity="0" result="BackgroundImageFix"/>
<feColorMatrix in="SourceAlpha" type="matrix" values="0 0 0 0 0 0 0 0 0 0 0 0 0 0 0 0 0 0 127 0" result="hardAlpha"/>
<feOffset dy="29.6073"/>
<feGaussianBlur stdDeviation="14.8036"/>
<feComposite in2="hardAlpha" operator="out"/>
<feColorMatrix type="matrix" values="0 0 0 0 0 0 0 0 0 0 0 0 0 0 0 0 0 0 0.12 0"/>
<feBlend mode="normal" in2="BackgroundImageFix" result="effect1_dropShadow_4_101961"/>
<feBlend mode="normal" in="SourceGraphic" in2="effect1_dropShadow_4_101961" result="shape"/>
</filter>
<clipPath id="clip0_4_101961">
<rect x="30" width="490" height="309.396" rx="26.6465" fill="white"/>
</clipPath>
</defs>
</svg>
