<svg width="24" height="24" viewBox="0 0 24 24" fill="none" xmlns="http://www.w3.org/2000/svg">
<path fill-rule="evenodd" clip-rule="evenodd" d="M12 1.25C6.06294 1.25 1.25 6.06294 1.25 12C1.25 17.9371 6.06294 22.75 12 22.75C17.9371 22.75 22.75 17.9371 22.75 12C22.75 6.06294 17.9371 1.25 12 1.25Z" fill="#cfa670"/>
<path fill-rule="evenodd" clip-rule="evenodd" d="M18.5303 7.46967C18.8232 7.76256 18.8232 8.23744 18.5303 8.53033L10.5303 16.5303C10.2374 16.8232 9.76256 16.8232 9.46967 16.5303L5.96967 13.0303C5.67678 12.7374 5.67678 12.2626 5.96967 11.9697C6.26256 11.6768 6.73744 11.6768 7.03033 11.9697L10 14.9393L17.4697 7.46967C17.7626 7.17678 18.2374 7.17678 18.5303 7.46967Z" fill="#F9F9F9"/>
</svg>
