<svg width="24" height="24" viewBox="0 0 24 24" fill="none" xmlns="http://www.w3.org/2000/svg">
<path fill-rule="evenodd" clip-rule="evenodd" d="M12 1.25C6.06294 1.25 1.25 6.06294 1.25 12C1.25 17.9371 6.06294 22.75 12 22.75C17.9371 22.75 22.75 17.9371 22.75 12C22.75 6.06294 17.9371 1.25 12 1.25Z" fill="#FFC44D"/>
<path fill-rule="evenodd" clip-rule="evenodd" d="M9.02783 9.55566C9.02783 8.03688 10.2591 6.80566 11.7778 6.80566H12.2223C13.7411 6.80566 14.9723 8.03688 14.9723 9.55566V9.77789C14.9723 10.1921 14.6365 10.5279 14.2223 10.5279C13.8081 10.5279 13.4723 10.1921 13.4723 9.77789V9.55566C13.4723 8.86531 12.9126 8.30566 12.2223 8.30566H11.7778C11.0875 8.30566 10.5278 8.86531 10.5278 9.55566V9.65293C10.5278 10.1264 10.7953 10.5592 11.2188 10.771L13.4521 11.8876C14.3838 12.3534 14.9723 13.3057 14.9723 14.3473V14.4446C14.9723 15.9633 13.7411 17.1946 12.2223 17.1946H11.7778C10.2591 17.1946 9.02783 15.9633 9.02783 14.4446V14.2223C9.02783 13.8081 9.36362 13.4723 9.77783 13.4723C10.192 13.4723 10.5278 13.8081 10.5278 14.2223V14.4446C10.5278 15.1349 11.0875 15.6946 11.7778 15.6946H12.2223C12.9126 15.6946 13.4723 15.1349 13.4723 14.4446V14.3473C13.4723 13.8738 13.2048 13.441 12.7813 13.2293L10.548 12.1126C9.61634 11.6468 9.02783 10.6946 9.02783 9.65293V9.55566Z" fill="#F9F9F9"/>
<path fill-rule="evenodd" clip-rule="evenodd" d="M12 4.58325C12.4142 4.58325 12.75 4.91904 12.75 5.33325V7.55547C12.75 7.96969 12.4142 8.30547 12 8.30547C11.5858 8.30547 11.25 7.96969 11.25 7.55547V5.33325C11.25 4.91904 11.5858 4.58325 12 4.58325Z" fill="#F9F9F9"/>
<path fill-rule="evenodd" clip-rule="evenodd" d="M12 15.6943C12.4142 15.6943 12.75 16.0301 12.75 16.4443V18.6666C12.75 19.0808 12.4142 19.4166 12 19.4166C11.5858 19.4166 11.25 19.0808 11.25 18.6666V16.4443C11.25 16.0301 11.5858 15.6943 12 15.6943Z" fill="#F9F9F9"/>
</svg>
