<svg xmlns:xlink="http://www.w3.org/1999/xlink" width="14" height="14" viewBox="0 0 14 14" fill="none" xmlns="http://www.w3.org/2000/svg">
                                        <path d="M12.25 0.875H1.75C1.28587 0.875 0.840752 1.05937 0.512563 1.38756C0.184374 1.71575 0 2.16087 0 2.625L0 2.975L7 6.9125L14 3.0625V2.625C14 2.16087 13.8156 1.71575 13.4874 1.38756C13.1592 1.05937 12.7141 0.875 12.25 0.875Z" fill="#cfa670"></path>
                                        <path d="M6.5625 8.6625L0 4.9875V11.375C0 11.8391 0.184374 12.2842 0.512563 12.6124C0.840752 12.9406 1.28587 13.125 1.75 13.125H12.25C12.7141 13.125 13.1592 12.9406 13.4874 12.6124C13.8156 12.2842 14 11.8391 14 11.375V4.9875L7.4375 8.6625C7.2996 8.72309 7.15062 8.75437 7 8.75437C6.84938 8.75437 6.7004 8.72309 6.5625 8.6625Z" fill="#cfa670"></path>
                                    </svg>