<svg width="24" height="24" viewBox="0 0 24 24" fill="none" xmlns="http://www.w3.org/2000/svg">
<path fill-rule="evenodd" clip-rule="evenodd" d="M12 1.25C6.06294 1.25 1.25 6.06294 1.25 12C1.25 17.9371 6.06294 22.75 12 22.75C17.9371 22.75 22.75 17.9371 22.75 12C22.75 6.06294 17.9371 1.25 12 1.25Z" fill="#EE4D4D"/>
<path fill-rule="evenodd" clip-rule="evenodd" d="M7.22711 7.22699C7.52 6.9341 7.99487 6.9341 8.28777 7.22699L16.773 15.7123C17.0659 16.0052 17.0659 16.48 16.773 16.7729C16.4802 17.0658 16.0053 17.0658 15.7124 16.7729L7.22711 8.28765C6.93421 7.99476 6.93421 7.51989 7.22711 7.22699Z" fill="#F9F9F9"/>
<path fill-rule="evenodd" clip-rule="evenodd" d="M7.22699 16.7729C6.9341 16.48 6.9341 16.0051 7.22699 15.7122L15.7123 7.22695C16.0052 6.93406 16.48 6.93406 16.7729 7.22695C17.0658 7.51984 17.0658 7.99472 16.7729 8.28761L8.28765 16.7729C7.99476 17.0658 7.51989 17.0658 7.22699 16.7729Z" fill="#F9F9F9"/>
</svg>
