<svg width="122" height="122" viewBox="0 0 122 122" fill="none" xmlns="http://www.w3.org/2000/svg">
<path d="M95.4381 95.4381C114.445 76.431 114.445 45.6144 95.4381 26.6073C76.431 7.60025 45.6144 7.60026 26.6074 26.6073C7.60027 45.6144 7.60027 76.431 26.6073 95.4381C45.6144 114.445 76.431 114.445 95.4381 95.4381Z" fill="#723300"/>
<path d="M90.6895 90.3421C107 74.0317 107 47.5872 90.6895 31.2768C74.379 14.9664 47.9346 14.9664 31.6242 31.2768C15.3137 47.5872 15.3137 74.0317 31.6242 90.3421C47.9346 106.653 74.3791 106.653 90.6895 90.3421Z" fill="#FD840D"/>
<path d="M46.4112 27.6708C44.7471 27.7659 43.4759 29.1933 43.5711 30.8599C43.6662 32.5239 45.0936 33.7952 46.7577 33.7C48.4218 33.6049 49.693 32.1775 49.5979 30.5109C49.5027 28.8469 48.0753 27.5756 46.4088 27.6708H46.4112Z" fill="#B23D00"/>
<path d="M58.1598 69.3362C56.4957 69.4313 55.2245 70.8588 55.3196 72.5253C55.4148 74.1893 56.8422 75.4606 58.5087 75.3654C60.1728 75.2703 61.444 73.8429 61.3489 72.1764C61.2537 70.5123 59.8263 69.241 58.1598 69.3362Z" fill="#B23D00"/>
<path d="M77.3943 71.7128C75.7302 71.8079 74.459 73.2353 74.5541 74.9019C74.6493 76.5659 76.0767 77.8372 77.7432 77.742C79.4073 77.6469 80.6785 76.2195 80.5834 74.5529C80.4882 72.8889 79.0608 71.6176 77.3943 71.7128Z" fill="#B23D00"/>
<path d="M78.7461 32.8923C77.082 32.9875 75.8108 34.4149 75.9059 36.0814C76.0011 37.7455 77.4285 39.0167 79.095 38.9216C80.7591 38.8264 82.0303 37.399 81.9352 35.7325C81.84 34.0684 80.4126 32.7972 78.7461 32.8923Z" fill="#B23D00"/>
<path d="M29.2287 37.7602C23.8803 44.9533 20.9327 53.9886 21.4891 63.6364C22.7481 85.4598 41.458 102.13 63.2814 100.871C78.8388 99.9729 91.7757 90.2055 97.4658 76.7636C90.7167 85.8404 22.8115 91.1645 29.2287 37.7602Z" fill="#D85E00"/>
<path d="M72.036 92.3967C71.4773 90.8253 69.7522 90.003 68.1808 90.5618C66.6095 91.1205 65.7872 92.8456 66.346 94.417C66.9047 95.9883 68.6298 96.8106 70.2012 96.2519C71.7725 95.6931 72.5948 93.968 72.036 92.3967Z" fill="#B23D00"/>
<path d="M101.636 56.9435C100.396 51.2314 96.1018 46.2709 90.1677 45.329C88.7013 45.0948 88.2938 47.3713 89.7675 47.6056C95.2307 48.4742 98.8541 53.3225 99.6008 58.5929C100.123 62.2919 99.4544 65.8958 98.1929 69.324C98.1026 68.675 97.9172 68.0064 97.6195 67.3208C97.029 65.9617 94.8452 66.723 95.4381 68.0894C97.8244 73.5745 91.0534 77.2857 87.0494 79.1792C82.8087 81.1849 78.3044 82.5269 73.6782 83.2052C74.254 79.9819 73.5586 76.5562 71.8067 73.7843C72.119 73.5208 72.4338 73.2597 72.7461 73.0035C73.3976 72.7498 74.0564 72.5107 74.7201 72.2837C74.8543 72.5741 75.1007 72.8181 75.4814 72.9279C80.4199 74.3504 85.8099 73.7404 90.2873 71.2028C94.1132 69.0337 97.4877 64.1463 94.3352 59.969C93.4398 58.7832 91.5268 60.0837 92.4247 61.272C95.2454 65.0076 90.646 68.6676 87.5276 70.0072C84.6045 71.2638 81.435 71.6249 78.3362 71.176C79.6196 70.827 80.9104 70.5123 82.2036 70.2293C83.6553 69.9121 82.8697 67.7356 81.435 68.0479C80.3736 68.2797 79.3122 68.5359 78.2556 68.814C79.5537 67.8966 80.8786 67.0158 82.2206 66.1642C83.8896 65.9397 85.5415 65.5884 87.1519 65.1077C88.1962 64.7978 88.0596 63.5534 87.3593 63.0703C88.2474 62.2602 87.0274 60.6571 85.827 61.3257C84.3264 62.1626 82.8502 63.041 81.3935 63.9536C76.267 64.5562 71.0064 63.8218 66.2533 61.7283C63.9719 60.723 61.6246 59.3664 60.1826 57.307C60.6559 57.2753 61.1195 56.9971 61.2635 56.4115C62.0321 53.2908 61.566 50.2383 60.2411 47.669C60.3778 47.4689 60.5193 47.2737 60.673 47.0858C61.6148 45.9366 59.8532 44.4385 58.9089 45.5926C58.9089 45.5926 58.9089 45.595 58.9064 45.5975C58.3794 44.9289 57.784 44.3116 57.135 43.7577C57.1911 43.011 56.5494 42.1912 55.6295 42.5157C55.5832 42.5328 55.5392 42.5523 55.4929 42.567C54.8634 42.1814 54.1972 41.8496 53.4994 41.5788C52.6478 40.5881 51.6914 39.7 50.5812 38.9899C47.9582 37.3112 44.8228 37.0843 41.8801 38.0188C40.177 38.5581 38.4324 39.5194 36.9074 40.7101C37.1782 40.0245 37.5174 39.3681 37.9102 38.7606C40.4966 34.7517 45.4254 32.4849 50.1395 33.1803C51.6084 33.3975 52.0183 31.1209 50.5397 30.9038C44.6227 30.0327 38.5739 32.9924 35.58 38.1652C34.6016 39.8561 33.9916 41.8179 33.9355 43.7797C33.3304 44.7483 33.0571 45.9586 33.2474 47.0127C29.3434 49.5966 25.5492 52.4734 22.792 56.2603C21.228 58.4075 19.9543 61.0231 20.2422 63.751C20.5301 66.4594 22.3113 68.5359 24.2023 70.3488C25.2759 71.3785 26.7668 69.6119 25.6956 68.5847C23.9095 66.8718 22.2088 64.8637 22.5626 62.2187C22.8896 59.7714 24.4878 57.6608 26.0884 55.8747C27.6232 54.1643 29.3532 52.6637 31.1832 51.2851C28.9847 55.7967 27.4866 60.8816 30.5683 65.4078C33.65 69.9316 39.3254 72.6156 44.591 73.4647C46.0574 73.7014 46.4649 71.4249 44.9911 71.1882C40.4478 70.4537 35.5459 68.2602 32.735 64.466C29.3654 59.9154 31.9835 54.5767 34.3332 50.2164C34.565 49.7869 34.4942 49.3965 34.2698 49.1086C34.3503 49.0549 34.4284 49.0012 34.5089 48.9476C34.8066 49.133 35.1604 49.2697 35.5727 49.3526C37.0392 51.5267 39.2425 53.1395 41.4848 54.4717C42.761 55.2306 43.7272 53.1297 42.456 52.3733C40.3551 51.124 38.1933 49.5283 37.0294 47.3152C37.2026 47.2054 37.3759 47.0956 37.5467 46.9858C38.7862 46.2001 37.5369 44.3433 36.2998 45.046C36.2852 44.9338 36.2706 44.8215 36.2608 44.7093C37.2295 43.5503 38.6544 42.3644 38.9546 42.1448C40.8041 40.7882 42.9708 39.7829 45.301 39.7561C46.6723 39.7415 47.8801 40.1075 48.9537 40.7199C48.556 40.7199 48.1558 40.7297 47.7508 40.7663C46.2672 40.898 46.4576 43.2038 47.9411 43.0696C49.4075 42.9379 50.8032 43.1086 52.0842 43.5161C52.2135 43.6747 52.3331 43.8406 52.4575 44.0041C49.3709 45.8512 46.8602 48.6279 45.4523 51.9732C43.3661 56.9313 43.876 62.5823 46.5161 67.2183C47.253 68.5139 49.1586 67.1988 48.4266 65.9153C46.1623 61.9406 45.9866 57.429 47.4384 53.525C47.3652 57.917 47.9313 62.3773 51.0252 65.7348C51.9671 66.7571 53.17 67.6575 54.5144 68.3773C54.49 68.4993 54.4778 68.6311 54.4998 68.7799C55.0439 72.6473 52.2086 75.5631 49.1538 77.4394C47.6629 78.3545 45.8378 79.4671 43.9492 80.1186C43.9688 79.8331 43.9907 79.5501 44.0127 79.2719C44.1298 77.803 41.8533 77.3858 41.7362 78.8717C41.6898 79.4476 41.6483 80.038 41.6142 80.6383C40.6016 80.7237 39.6036 80.6017 38.6593 80.1674C37.31 79.5476 36.3316 81.6436 37.6882 82.2658C38.9472 82.844 40.2478 83.0246 41.5483 82.9392C41.5605 86.9042 42.3364 90.918 45.7256 93.397C47.6629 94.8122 50.0248 95.4491 52.3428 95.9225C55.2245 96.5105 58.1427 96.8106 61.0805 96.9082C62.0418 96.9399 62.2932 95.9883 61.9516 95.2978C63.2082 94.8855 64.4404 94.3047 65.6042 93.6069C65.6042 93.7338 65.5969 93.8606 65.5725 93.9924C65.4017 94.883 64.6356 95.4515 63.928 95.9639C62.2273 97.201 60.3168 97.9428 58.3623 98.2112C57.6547 97.8208 56.9788 97.3669 56.3493 96.8448C55.4221 96.0737 54.229 97.3425 54.8634 98.1965C52.316 97.8305 49.8662 96.6886 47.8801 94.8293C46.9285 93.9387 45.6231 95.4857 46.5722 96.3738C49.6466 99.2506 53.8605 100.756 58.0451 100.317C61.5953 102.042 65.7726 102.369 69.5863 101.171C73.2585 100.017 76.899 97.0497 77.7994 93.2995C81.4862 92.953 85.0266 91.1766 87.535 88.2047C88.4939 87.0677 86.7322 85.572 85.7708 86.7114C83.7481 89.1075 80.9347 90.574 77.9872 90.9546C77.9506 90.4935 77.8774 90.0274 77.7505 89.554C77.4163 88.2926 75.5106 88.9758 75.8425 90.2275C75.9157 90.5032 75.9645 90.7765 75.9962 91.0449C74.1223 90.9717 72.2557 90.4544 70.5599 89.4516C71.1528 88.7635 71.6774 88.0535 72.1142 87.3385C72.4484 86.792 72.7315 86.2259 72.9682 85.6427C78.8949 84.8912 84.6314 83.1027 89.9262 80.3113C91.7293 79.3622 93.6838 78.0714 95.2478 76.5049C95.6382 77.1857 96.8558 77.415 97.373 76.4903C100.677 70.566 103.107 63.7974 101.624 56.9532L101.636 56.9435ZM58.9333 50.6824C59.3212 52.1122 59.414 53.6543 59.1431 55.233C58.6624 53.7495 58.6014 52.1757 58.9333 50.6824ZM63.8377 91.8233C61.8466 92.9603 59.5286 93.7972 57.257 93.6386C55.954 93.1067 54.5193 92.1478 55.671 91.0839C56.7031 90.1299 58.9504 90.025 60.2582 90.1299C61.6441 90.2421 63.2008 90.6618 64.3306 91.5304C64.1671 91.628 64.0012 91.7281 63.8377 91.8233ZM56.686 88.4707C56.7934 86.7261 57.4058 85.0889 58.3379 83.5858C59.7726 84.0641 61.2537 84.269 62.7226 84.1909C63.867 86.2625 65.287 88.1511 67.0121 89.6736C66.7315 89.903 66.4412 90.1226 66.1484 90.3373C63.8792 88.0998 59.6653 87.663 56.6885 88.4731L56.686 88.4707ZM59.7824 81.6143C60.1582 81.1726 60.5559 80.7456 60.9707 80.3333C61.1634 80.8579 61.3733 81.3776 61.5978 81.8925C60.9926 81.8632 60.3875 81.7704 59.7824 81.6143ZM62.8226 78.6716C63.9036 77.7908 65.0235 77.01 66.0996 76.3293C65.0626 77.642 64.1866 79.0645 63.5668 80.6456C63.2936 79.9966 63.0447 79.3378 62.8226 78.6741V78.6716ZM75.7717 93.3336C74.7616 96.4446 71.1284 98.7382 68.1345 99.4775C65.9873 100.007 63.7401 99.9899 61.6197 99.4678C64.9186 98.2868 68.6347 95.8761 67.4342 92.3698C67.954 91.977 68.4566 91.5622 68.93 91.1303C69.052 91.2108 69.1764 91.2889 69.3008 91.367C71.3236 92.587 73.544 93.2262 75.7717 93.3385V93.3336ZM71.2504 83.5199C70.4208 83.7322 70.2378 84.6984 70.6111 85.3011C70.5038 85.5256 70.3891 85.7477 70.2646 85.9648C69.8279 86.7261 69.296 87.4288 68.7006 88.0827C67.3074 86.8798 66.1313 85.4109 65.1504 83.7908C65.7482 83.6224 66.3411 83.4052 66.9194 83.1344C68.2565 82.5073 67.4977 80.3211 66.1508 80.953C66.0532 80.9994 65.9556 81.0384 65.858 81.0824C66.7779 78.8961 68.3102 77.0295 70.0499 75.363C71.4846 77.8006 71.9629 80.7725 71.2553 83.5224L71.2504 83.5199ZM71.592 70.9808C71.0845 71.1833 70.577 71.3931 70.0768 71.6127C69.6278 71.1638 69.1422 70.7465 68.6201 70.3683C67.422 69.5046 65.9166 71.2614 67.1268 72.1325C67.3684 72.3057 67.6002 72.4911 67.8246 72.6839C66.5754 73.3256 65.3578 74.0283 64.1842 74.8116C63.501 75.2678 62.8153 75.7607 62.1419 76.2829C61.8515 75.0897 61.6344 73.899 61.4928 72.7449C61.3123 71.2687 59.0089 71.4541 59.1895 72.9352C59.3871 74.5627 59.7238 76.2487 60.1948 77.9275C56.9935 80.8847 54.4461 84.6448 54.3632 89.0294C54.3607 89.2173 54.3924 89.3759 54.4534 89.5101C53.5262 90.225 52.9284 91.2523 53.3042 92.5504C53.3554 92.7309 53.4262 92.8993 53.5043 93.0652C53.3066 93.2262 53.1578 93.4532 53.0846 93.702C51.24 93.3531 49.3514 92.9115 47.7361 91.9501C44.4031 89.964 43.7931 86.1624 43.8468 82.5244C46.2111 81.8656 48.4998 80.5456 50.4689 79.3378C53.9874 77.1784 57.0838 73.6892 56.8886 69.3948C59.919 70.4366 63.2814 70.5855 65.9605 69.3582C67.3049 68.7409 66.5436 66.5571 65.1919 67.1768C61.183 69.0141 55.1513 67.1451 52.399 63.7877C49.2611 59.9593 49.6003 54.6035 49.9175 49.9797C49.9346 49.7454 49.8858 49.5429 49.7979 49.3673C50.8837 48.0131 52.2233 46.8394 53.7727 45.9195C53.9459 46.2026 54.1167 46.4856 54.2802 46.7662C54.8951 47.8203 56.2786 47.1322 56.3542 46.1465C56.8056 46.6101 57.2131 47.1176 57.5718 47.6593C56.4713 49.8748 56.137 52.4246 56.669 54.889C57.479 58.6417 60.2631 61.2379 63.5498 62.9849C67.8686 65.2834 72.7266 66.4155 77.5968 66.4521C75.557 67.8698 73.566 69.3606 71.6408 70.9344C71.6262 70.9466 71.6091 70.9613 71.5944 70.9735L71.592 70.9808Z" fill="#B23D00"/>
<path d="M79.4854 36.6353C75.0641 32.6484 68.6103 29.8033 62.7787 31.5821C59.9215 31.0624 56.6909 31.0355 54.124 32.0335C52.8333 32.5337 51.6889 33.4731 51.34 34.8663C50.9081 36.5939 51.6938 38.2579 52.5161 39.7341C53.2407 41.0347 55.1439 39.7195 54.4266 38.4312C53.7605 37.2356 52.8894 35.5056 54.3046 34.5052C55.2855 33.8147 56.7617 33.7562 57.9085 33.6756C58.5526 33.6317 59.2065 33.6146 59.8629 33.6317C59.9312 34.0075 60.2021 34.3637 60.5656 34.5491C59.2529 34.6663 57.928 34.9591 56.6079 35.4544C55.2147 35.979 55.9833 38.1579 57.3765 37.6357C60.3143 36.5329 63.2106 36.3669 66.1776 37.4991C67.7978 38.1189 69.3155 39.0119 70.6648 40.1099C71.4797 42.6256 71.3821 45.5706 71.0161 48.3229C71.6457 48.2912 72.2483 48.5767 72.5851 49.1013C72.8071 49.0915 73.0291 49.0769 73.2487 49.0647C73.5293 47.1444 73.7343 45.1631 73.6294 43.216C77.4187 48.2863 78.5923 54.8524 79.5488 60.967C79.7782 62.431 82.084 62.2505 81.8522 60.7767C80.7371 53.6519 79.2951 45.9366 74.2906 40.4051C73.8026 39.8659 73.2878 39.3608 72.7534 38.885C72.69 38.7191 72.6265 38.5532 72.5533 38.3873C71.5871 36.1742 70.0133 34.5345 68.054 33.3999C72.0117 33.9318 75.9083 36.3669 78.6338 39.007C82.9648 43.2038 85.5781 48.9817 85.9343 54.989C86.0221 56.4774 88.3279 56.2847 88.2377 54.7987C87.8253 47.8789 84.6265 41.2787 79.4781 36.6378L79.4854 36.6353ZM61.7344 34.4906C62.115 34.2807 62.503 34.1026 62.8934 33.9489C63.9597 34.1539 65.0015 34.4638 65.9824 34.8956C66.3118 35.042 66.6217 35.2006 66.9145 35.3714C65.2529 34.7834 63.5107 34.4735 61.7344 34.4881V34.4906Z" fill="#B23D00"/>
<path d="M82.0815 34.615C79.1121 28.2027 73.9295 22.8908 66.9706 21.0218C63.7547 20.158 59.8727 19.9701 56.7202 21.2072C55.4465 21.7074 54.2338 22.5931 53.8727 23.979C53.4311 25.6846 54.368 27.256 55.3636 28.5638C56.2639 29.7448 58.1769 28.4442 57.2741 27.2608C56.3884 26.0994 55.3318 24.5085 57.0789 23.5764C58.172 22.9933 59.514 22.8298 60.734 22.7298C63.5498 22.5004 66.4021 23.0299 68.9885 24.1547C73.9393 26.3068 77.6603 30.5451 79.9002 35.3836C80.5224 36.7256 82.7062 35.9643 82.0815 34.615Z" fill="#B23D00"/>
<path d="M79.3829 33.0729C79.4805 33.1315 79.5781 33.1876 79.6733 33.2486C79.8026 33.3316 79.9295 33.395 80.0564 33.4414C79.8343 33.3145 79.6099 33.1925 79.3829 33.0729Z" fill="#FFAA48"/>
<path d="M37.9419 49.8089C36.2779 49.9041 35.0066 51.3315 35.1018 52.998C35.1969 54.6621 36.6243 55.9333 38.2909 55.8381C39.9549 55.743 41.2262 54.3156 41.131 52.6491C41.0359 50.985 39.6085 49.7137 37.9444 49.8089H37.9419Z" fill="#B23D00"/>
<path d="M41.3946 51.7096C41.4897 53.3737 40.2185 54.8011 38.5544 54.8963C36.8903 54.9914 35.4629 53.7202 35.3653 52.0561C35.2677 50.392 36.5414 48.9646 38.2055 48.867C39.8696 48.7719 41.297 50.0431 41.3946 51.7072V51.7096Z" fill="#84D92C"/>
<path d="M39.2181 50.0113C39.2498 50.5506 38.7106 51.0215 38.0127 51.0606C37.3173 51.0996 36.7268 50.6946 36.6951 50.1553C36.6634 49.6161 37.2026 49.1452 37.9005 49.1061C38.5959 49.0671 39.1864 49.4721 39.2181 50.0113Z" fill="#ADF260"/>
<path d="M39.0083 53.4152C37.5467 53.4981 36.295 52.3831 36.212 50.9239C36.1998 50.7019 36.2169 50.4872 36.2559 50.2798C35.8387 50.7775 35.5996 51.429 35.6411 52.1293C35.7265 53.5909 36.9782 54.7059 38.4373 54.6205C39.6768 54.5498 40.665 53.6348 40.8846 52.466C40.4308 53.0077 39.7671 53.3688 39.0083 53.4127V53.4152Z" fill="#66A621"/>
<path d="M101.577 55.9333C100.338 50.2213 96.0433 45.2608 90.1092 44.3189C88.6427 44.0847 88.2353 46.3612 89.709 46.5954C95.1722 47.4641 98.7956 52.3124 99.5422 57.5828C100.064 61.2818 99.3958 64.8857 98.1343 68.3139C98.0441 67.6648 97.8586 66.9963 97.5609 66.3106C96.9705 64.9516 94.7867 65.7128 95.3796 67.0792C97.7659 72.5644 90.9949 76.2756 86.9909 78.169C82.7501 80.1747 78.2459 81.5167 73.6197 82.195C74.1955 78.9718 73.5001 75.546 71.7482 72.7742C72.0605 72.5107 72.3753 72.2496 72.6876 71.9934C73.3391 71.7396 73.9979 71.5005 74.6615 71.2736C74.7957 71.5639 75.0422 71.808 75.4228 71.9178C80.3614 73.3403 85.7514 72.7303 90.2287 70.1927C94.0547 68.0235 97.4292 63.1362 94.2767 58.9589C93.3812 57.7731 91.4683 59.0736 92.3662 60.2619C95.1868 63.9975 90.5874 67.6575 87.4691 68.9971C84.546 70.2537 81.3764 70.6148 78.2776 70.1658C79.5611 69.8169 80.8518 69.5022 82.145 69.2191C83.5968 68.9019 82.8111 66.7254 81.3764 67.0378C80.315 67.2696 79.2536 67.5258 78.1971 67.8039C79.4952 66.8865 80.8201 66.0056 82.1621 65.1541C83.8311 64.9296 85.4829 64.5782 87.0933 64.0976C88.1377 63.7877 88.001 62.5433 87.3008 62.0602C88.1889 61.2501 86.9689 59.647 85.7684 60.3156C84.2678 61.1525 82.7916 62.0309 81.3349 62.9434C76.2085 63.5461 70.9479 62.8117 66.1947 60.7181C63.9133 59.7129 61.5661 58.3562 60.124 56.2969C60.5974 56.2652 61.061 55.987 61.2049 55.4014C61.9735 52.2806 61.5075 49.2282 60.1826 46.6589C60.3192 46.4588 60.4607 46.2636 60.6145 46.0757C61.5563 44.9265 59.7946 43.4283 58.8503 44.5824C58.8503 44.5824 58.8503 44.5849 58.8479 44.5873C58.3209 43.9188 57.7255 43.3014 57.0765 42.7476C57.1326 42.0009 56.4909 41.1811 55.571 41.5056C55.5246 41.5227 55.4807 41.5422 55.4343 41.5568C54.8048 41.1713 54.1387 40.8395 53.4409 40.5686C52.5893 39.578 51.6328 38.6898 50.5226 37.9798C47.8996 36.3011 44.7642 36.0742 41.8216 37.0087C40.1185 37.5479 38.3739 38.5093 36.8489 39.7C37.1197 39.0143 37.4589 38.358 37.8517 37.7504C40.4381 33.7415 45.3669 31.4747 50.081 32.1701C51.5499 32.3873 51.9573 30.1108 50.4811 29.8936C44.5641 29.0226 38.5154 31.9823 35.5215 37.1551C34.5431 38.846 33.9331 40.8077 33.8769 42.7695C33.2718 43.7382 32.9985 44.9484 33.1889 46.0025C29.2849 48.5865 25.4907 51.4632 22.7335 55.2501C21.1694 57.3973 19.8957 60.013 20.1837 62.7409C20.4716 65.4493 22.2528 67.5258 24.1438 69.3411C25.2174 70.3708 26.7082 68.6042 25.6371 67.577C23.851 65.8641 22.1503 63.856 22.5041 61.211C22.8311 58.7637 24.4293 56.6531 26.0299 54.867C27.5647 53.1566 29.2946 51.656 31.1246 50.2774C28.9262 54.789 27.428 59.8739 30.5097 64.4001C33.5915 68.9239 39.2669 71.6079 44.5324 72.457C45.9989 72.6937 46.4063 70.4172 44.9326 70.1805C40.3893 69.446 35.4873 67.2525 32.6765 63.4583C29.3068 58.9077 31.9249 53.569 34.2747 49.2087C34.5065 48.7792 34.4357 48.3888 34.2112 48.1009C34.2917 48.0472 34.3698 47.9936 34.4503 47.9399C34.748 48.1253 35.1018 48.262 35.5142 48.3449C36.9806 50.519 39.1839 52.1318 41.4263 53.464C42.7024 54.2229 43.6687 52.122 42.3974 51.3656C40.2966 50.1164 38.1347 48.5206 36.9709 46.3075C37.1441 46.1977 37.3173 46.0879 37.4881 45.9781C38.7277 45.1924 37.4784 43.3356 36.2413 44.0383C36.2267 43.9261 36.212 43.8138 36.2023 43.7016C37.1709 42.5426 38.5959 41.3567 38.896 41.1371C40.7455 39.7805 42.9123 38.7752 45.2425 38.7484C46.6137 38.7338 47.8215 39.0998 48.8951 39.7122C48.4974 39.7122 48.0973 39.722 47.6922 39.7586C46.2087 39.8903 46.399 42.1961 47.8825 42.0619C49.349 41.9302 50.7447 42.1009 52.0257 42.5084C52.155 42.667 52.2745 42.8329 52.399 42.9989C49.3124 44.8459 46.8016 47.6227 45.3937 50.9679C43.3075 55.926 43.8175 61.5746 46.4576 66.213C47.1945 67.5087 49.1001 66.1935 48.3681 64.9101C46.1038 60.9353 45.9281 56.4238 47.3799 52.5198C47.3067 56.9118 47.8728 61.3721 50.9667 64.7295C51.9085 65.7519 53.1115 66.6498 54.4559 67.372C54.4315 67.494 54.4193 67.6258 54.4413 67.7746C54.9854 71.642 52.1501 74.5578 49.0952 76.4342C47.6044 77.3492 45.7793 78.4618 43.8907 79.1133C43.9102 78.8278 43.9322 78.5448 43.9541 78.2666C44.0713 76.7978 41.7947 76.3805 41.6776 77.8665C41.6313 78.4423 41.5898 79.0328 41.5556 79.633C40.543 79.7184 39.5451 79.5964 38.6008 79.1621C37.2515 78.5424 36.273 80.6383 37.6297 81.2605C38.8887 81.8388 40.1892 82.0194 41.4897 81.934C41.5019 85.899 42.2779 89.9128 45.667 92.3918C47.6044 93.807 49.9663 94.4438 52.2843 94.9172C55.1659 95.5052 58.0842 95.8054 61.0219 95.903C61.9833 95.9347 62.2346 94.9831 61.893 94.2926C63.1496 93.8802 64.3818 93.2995 65.5457 92.6016C65.5457 92.7285 65.5384 92.8554 65.514 92.9872C65.3432 93.8778 64.577 94.4463 63.8694 94.9587C62.1687 96.1958 60.2582 96.9375 58.3038 97.2059C57.5962 96.8155 56.9203 96.3617 56.2908 95.8395C55.3636 95.0685 54.1704 96.3373 54.8048 97.1913C52.2575 96.8253 49.8053 95.6833 47.8215 93.8241C46.8699 92.9335 45.5645 94.4804 46.5137 95.3686C49.5881 98.2454 53.802 99.7508 57.9866 99.3116C61.5368 101.037 65.7141 101.364 69.5278 100.166C73.2 99.0115 76.8405 96.0445 77.7408 92.2942C81.4277 91.9477 84.9681 90.1714 87.4764 87.1995C88.4353 86.0624 86.6737 84.5667 85.7123 85.7062C83.6895 88.1023 80.8762 89.5687 77.9287 89.9493C77.8921 89.4882 77.8189 89.0221 77.692 88.5488C77.3577 87.2873 75.4521 87.9705 75.7839 89.2222C75.8571 89.498 75.9059 89.7712 75.9377 90.0421C74.0637 89.9689 72.1971 89.4516 70.5013 88.4488C71.0943 87.7607 71.6189 87.0506 72.0556 86.3357C72.3899 85.7891 72.6729 85.2231 72.9096 84.6399C78.8364 83.8884 84.5728 82.0999 89.8676 79.3085C91.6708 78.3593 93.6252 77.0686 95.1893 75.5021C95.5797 76.1829 96.7972 76.4122 97.3145 75.4875C100.618 69.5632 103.049 62.7946 101.565 55.9504L101.577 55.9333ZM58.8747 49.6723C59.2627 51.1021 59.3554 52.6442 59.0846 54.2204C58.6039 52.7369 58.5429 51.1631 58.8747 49.6723ZM63.7791 90.8131C61.7881 91.9502 59.4677 92.7871 57.1985 92.6285C55.8955 92.0966 54.4608 91.1376 55.6125 90.0738C56.6446 89.1198 58.8918 89.0148 60.1997 89.1198C61.5856 89.232 63.1423 89.6517 64.272 90.5203C64.1085 90.6179 63.9426 90.718 63.7791 90.8131ZM56.6275 87.4606C56.7349 85.716 57.3473 84.0787 58.2794 82.5757C59.7141 83.0539 61.1952 83.2589 62.6641 83.1808C63.8084 85.2523 65.2285 87.1409 66.9536 88.6635C66.673 88.8928 66.3826 89.1124 66.0898 89.3271C63.8206 87.0897 59.6067 86.6529 56.6299 87.463L56.6275 87.4606ZM59.7239 80.6041C60.0996 80.1625 60.4973 79.7355 60.9121 79.3232C61.1049 79.8477 61.3147 80.3675 61.5392 80.8823C60.9341 80.853 60.329 80.7603 59.7239 80.6041ZM62.7641 77.6615C63.845 76.7807 64.965 75.9999 66.041 75.3191C65.004 76.6318 64.1281 78.0544 63.5083 79.6355C63.235 78.9864 62.9861 78.3276 62.7641 77.664V77.6615ZM75.7132 92.3235C74.703 95.4345 71.0699 97.7281 68.076 98.4674C65.9288 98.9969 63.6815 98.9798 61.5612 98.4576C64.8601 97.2767 68.5762 94.866 67.3757 91.3597C67.8954 90.9668 68.3981 90.552 68.8714 90.1202C68.9934 90.2007 69.1179 90.2788 69.2423 90.3568C71.2651 91.5768 73.4855 92.2161 75.7132 92.3284V92.3235ZM71.1919 82.5098C70.3623 82.7221 70.1793 83.6883 70.5526 84.291C70.4452 84.5155 70.3305 84.7375 70.2061 84.9547C69.7693 85.716 69.2374 86.4187 68.6421 87.0726C67.2488 85.8697 66.0727 84.4008 65.0919 82.7806C65.6897 82.6123 66.2826 82.3951 66.8584 82.1243C68.1955 81.4972 67.4367 79.311 66.0898 79.9429C65.9922 79.9893 65.8946 80.0283 65.797 80.0722C66.7169 77.886 68.2492 76.0194 69.9889 74.3529C71.4237 76.7904 71.9019 79.7624 71.1943 82.5122L71.1919 82.5098ZM71.5335 69.9706C71.0259 70.1732 70.5184 70.383 70.0182 70.6026C69.5693 70.1536 69.0837 69.7364 68.5615 69.3582C67.3635 68.4944 65.858 70.2512 67.0683 71.1223C67.3098 71.2956 67.5416 71.481 67.7661 71.6738C66.5168 72.3155 65.2993 73.0182 64.1256 73.8014C63.4424 74.2577 62.7568 74.7506 62.0833 75.2728C61.793 74.0772 61.5758 72.8889 61.4343 71.7348C61.2537 70.2586 58.9504 70.444 59.1309 71.9251C59.3286 73.5525 59.6653 75.2386 60.1362 76.9173C56.9349 79.8746 54.3876 83.6346 54.3046 88.0193C54.3022 88.2072 54.3339 88.3658 54.3949 88.5C53.4677 89.2149 52.8699 90.2422 53.2457 91.5402C53.2969 91.7208 53.3677 91.8891 53.4457 92.0551C53.2481 92.2161 53.0993 92.443 53.0261 92.6919C51.1814 92.343 49.2929 91.9013 47.6776 90.94C44.3445 88.9538 43.7345 85.1523 43.7882 81.5143C46.1526 80.8555 48.4413 79.5379 50.4104 78.3276C53.9289 76.1682 57.0252 72.679 56.83 68.3846C59.8605 69.4265 63.2228 69.5754 65.9019 68.348C67.2464 67.7307 66.4851 65.5469 65.1333 66.1667C61.1244 68.004 55.0927 66.1349 52.3404 62.7775C49.2026 58.9491 49.5417 53.5934 49.8589 48.9696C49.876 48.7353 49.8272 48.5328 49.7394 48.3571C50.8252 47.0029 52.1647 45.8293 53.7141 44.9094C53.8874 45.1924 54.0582 45.4755 54.2217 45.7561C54.8365 46.8101 56.22 46.1221 56.2957 45.1363C56.7471 45.5999 57.1545 46.1074 57.5132 46.6491C56.4128 48.8646 56.0785 51.4144 56.6104 53.8788C57.4205 57.6316 60.207 60.2277 63.4912 61.9748C67.81 64.2732 72.6681 65.4054 77.5383 65.442C75.4985 66.8596 73.5074 68.3505 71.5823 69.9243C71.5676 69.9365 71.5505 69.9511 71.5359 69.9633L71.5335 69.9706Z" fill="#FDD58D"/>
<path d="M79.4269 35.6252C75.0056 31.6382 68.5518 28.7932 62.7202 30.5719C59.8629 30.0522 56.6324 30.0253 54.0655 31.0233C52.7747 31.5235 51.6304 32.4629 51.2815 33.8562C50.8496 35.5837 51.6353 37.2477 52.4575 38.7239C53.1822 40.0245 55.0854 38.7093 54.3681 37.421C53.7019 36.2254 52.8309 34.4954 54.2461 33.495C55.2269 32.8045 56.7031 32.746 57.8499 32.6654C58.4941 32.6215 59.148 32.6044 59.8044 32.6215C59.8727 32.9973 60.1435 33.3535 60.5071 33.5389C59.1944 33.6561 57.8695 33.9489 56.5494 34.4442C55.1562 34.9688 55.9248 37.1477 57.318 36.6256C60.2558 35.5227 63.1521 35.3568 66.1191 36.4889C67.7393 37.1087 69.2569 38.0017 70.6062 39.0997C71.5066 41.8838 71.2943 45.1948 70.8356 48.1887C70.6111 49.6576 72.8852 50.0651 73.1121 48.5889C73.4318 46.5027 73.6855 44.3335 73.5733 42.2058C77.3626 47.2762 78.5363 53.8422 79.4927 59.9568C79.7221 61.4208 82.0279 61.2403 81.7961 59.7665C80.681 52.6417 79.239 44.9264 74.2345 39.3949C73.7465 38.8557 73.2317 38.3506 72.6973 37.8748C72.6339 37.7089 72.5704 37.5406 72.4972 37.3771C71.531 35.164 69.9572 33.5243 67.9979 32.3897C71.9556 32.9216 75.8523 35.3568 78.5777 37.9968C82.9087 42.1936 85.522 47.9716 85.8782 53.9788C85.966 55.4672 88.2719 55.2745 88.1816 53.7885C87.7692 46.8687 84.5704 40.2685 79.422 35.6276L79.4269 35.6252ZM61.6759 33.4804C62.0565 33.2706 62.4445 33.0924 62.8349 32.9387C63.9011 33.1437 64.943 33.4536 65.9239 33.8854C66.2533 34.0318 66.5632 34.1904 66.856 34.3612C65.1943 33.7732 63.4522 33.4633 61.6759 33.4779V33.4804Z" fill="#FDD58D"/>
<path d="M82.023 33.6049C79.0535 27.1925 73.871 21.8807 66.9121 20.0116C63.6962 19.1479 59.8141 18.96 56.6617 20.1971C55.388 20.6973 54.1753 21.583 53.8142 22.9689C53.3725 24.6745 54.3095 26.2458 55.305 27.5537C56.2054 28.7346 58.1183 27.4341 57.2155 26.2507C56.3298 25.0893 55.2733 23.4984 57.0203 22.5663C58.1135 21.9831 59.4555 21.8197 60.6755 21.7196C63.4912 21.4903 66.3436 22.0197 68.93 23.1446C73.8807 25.2967 77.6017 29.5349 79.8417 34.3735C80.4639 35.7155 82.6477 34.9542 82.023 33.6049Z" fill="#FDD58D"/>
<path d="M74.4321 49.9895C72.9999 44.3482 68.5591 39.6512 63.2862 37.3747C62.0833 36.855 61.2195 38.7045 62.4298 39.2266C66.2874 40.8932 69.5082 43.8455 71.3724 47.6324C72.4143 49.7479 73.1145 52.1245 72.5509 54.4766C72.0507 56.5702 70.7819 58.4001 69.2959 59.9227C67.3537 61.9089 65.2529 62.98 62.4273 62.5335C60.2826 62.1944 58.1305 61.3111 56.3542 60.0618C54.7292 58.9199 53.3188 57.4046 52.5698 55.5478C51.6108 53.1737 51.8548 50.536 52.4526 48.1033C53.7117 42.9696 57.196 38.4702 62.4615 37.1356C63.7352 36.8135 63.0471 34.8908 61.7832 35.2104C51.5767 37.7968 45.2766 53.3323 54.0289 60.8328C57.7304 64.0048 64.0499 66.2789 68.4541 63.307C72.7485 60.4083 75.7619 55.2062 74.437 49.9895H74.4321Z" fill="#FDD58D"/>
<path d="M94.3743 44.0554C93.896 39.7634 91.8342 35.4568 88.7062 32.4654C83.6114 27.5951 76.6233 27.783 70.1866 29.7106C66.6217 26.1092 61.1317 24.4573 55.8735 24.8184C51.4059 25.1258 47.5043 26.5898 44.6471 30.1425C42.0656 33.3535 40.399 37.1209 41.1798 41.2933C41.2677 41.7667 41.3872 42.2278 41.5214 42.6841C37.7175 43.4259 33.9013 46.2465 32.6813 49.7235C31.2637 53.7641 31.9322 60.0886 35.5434 62.8312C36.5853 63.6217 37.9102 62.0699 36.861 61.2745C33.9965 59.1004 33.5402 54.0203 34.4723 50.7825C35.3409 47.7569 38.9106 45.0997 42.2242 44.597C43.6345 47.7251 46.0745 50.3603 48.8976 52.3148C49.9663 53.0541 51.2961 51.5047 50.2152 50.758C47.885 49.1452 45.7646 47.02 44.4324 44.4995C45.34 44.1945 45.4669 42.6597 44.3274 42.5377C44.0786 42.5108 43.8272 42.4986 43.5759 42.4938C43.3392 41.7666 43.1636 41.0151 43.0733 40.2368C42.5536 35.8033 45.5865 30.8257 49.3587 28.5833C53.3066 26.236 59.2871 26.2556 63.518 27.7757C65.1675 28.3686 66.7096 29.2763 68.0198 30.4304C65.88 31.2063 63.8352 32.1384 61.9857 33.0998C60.8218 33.7049 61.9857 35.3836 63.135 34.7858C65.0699 33.7805 67.2512 32.7948 69.5375 32.0164C70.6672 33.4267 71.4822 35.0811 71.8189 36.9159C72.0556 38.1969 74.0906 38.0408 73.8514 36.7476C73.4732 34.7004 72.6851 32.9119 71.5969 31.3845C77.1528 29.8741 83.0576 29.8814 87.3861 34.0197C90.2336 36.7427 92.0807 40.8151 92.3881 44.7264C92.7297 49.0745 90.6826 52.8931 88.6354 56.5726C87.9986 57.7194 89.8505 58.5734 90.4874 57.429C92.8029 53.2639 94.9184 48.9573 94.3718 44.0529L94.3743 44.0554Z" fill="#B23D00"/>
<path d="M85.4658 72.9596C84.4727 72.1007 83.1527 73.6574 84.1482 74.5163C86.8298 76.8367 87.8399 80.875 85.4585 83.8005C82.9892 86.8359 78.5631 86.3039 75.1617 85.7183C73.8685 85.4963 73.5098 87.5044 74.8079 87.7289C79.2365 88.4926 84.6606 88.7171 87.4813 84.4813C90.0164 80.6749 88.7891 75.8315 85.4683 72.9596H85.4658Z" fill="#FDD58D"/>
<path d="M39.8818 80.5455C36.944 81.7509 33.733 82.7098 30.5536 81.9339C27.4304 81.1702 25.4126 78.7009 24.6415 75.6558C23.197 69.9462 26.6277 64.239 32.1226 62.4432C33.3743 62.0332 32.6911 60.1105 31.4442 60.518C24.8465 62.675 20.9766 69.5802 22.7188 76.3341C23.5923 79.7232 25.8957 82.5732 29.2678 83.6785C33.0498 84.918 36.9977 83.9298 40.5601 82.4683C41.7728 81.9705 41.0969 80.0453 39.8818 80.5431V80.5455Z" fill="#FDD58D"/>
<path d="M52.1891 79.8087C51.8329 82.9636 51.1302 86.2405 48.9195 88.6537C46.7479 91.0254 43.6125 91.6061 40.5723 90.818C34.8724 89.3369 31.5174 83.5858 32.5862 77.9031C32.8302 76.6099 30.8147 76.2829 30.5732 77.5737C29.2897 84.3935 33.4841 91.1083 40.2429 92.831C43.6345 93.6947 47.2408 93.0457 49.8321 90.6228C52.7381 87.9046 53.7702 83.9665 54.2021 80.1405C54.3485 78.8376 52.3355 78.5033 52.1891 79.8111V79.8087Z" fill="#B23D00"/>
<path d="M93.5813 43.299C93.103 39.007 91.0412 34.7004 87.9132 31.709C82.8184 26.8387 75.8303 27.0266 69.3936 28.9542C65.8287 25.3528 60.3387 23.7009 55.0805 24.062C50.6129 24.3694 46.7113 25.8334 43.8541 29.3861C41.2726 32.5971 39.606 36.3645 40.3868 40.5369C40.4747 41.0102 40.5942 41.4714 40.7284 41.9277C36.9245 42.6694 33.1083 45.4901 31.8883 48.9671C30.4707 53.0077 31.1392 59.3322 34.7504 62.0748C35.7923 62.8653 37.1172 61.3135 36.068 60.518C33.2035 58.344 32.7472 53.2639 33.6793 50.026C34.5504 47.0004 38.1176 44.3433 41.4312 43.8406C42.8415 46.9687 45.2815 49.6039 48.1046 51.5584C49.1733 52.2977 50.5031 50.7483 49.4222 50.0016C47.092 48.3888 44.9692 46.2636 43.6394 43.743C44.547 43.438 44.6739 41.9033 43.5344 41.7813C43.2856 41.7544 43.0342 41.7422 42.7829 41.7374C42.5462 41.0102 42.3706 40.2587 42.2803 39.4804C41.7606 35.0469 44.7935 30.0693 48.5657 27.8269C52.5136 25.4796 58.4941 25.4992 62.725 27.0193C64.3745 27.6122 65.9166 28.5199 67.2268 29.674C65.087 30.4499 63.0422 31.382 61.1927 32.3434C60.0288 32.9485 61.1927 34.6272 62.3444 34.0294C64.2793 33.0241 66.4607 32.0384 68.747 31.26C69.8767 32.6703 70.6916 34.3246 71.0284 36.1595C71.265 37.4405 73.3 37.2844 73.0609 35.9912C72.6827 33.944 71.8946 32.1555 70.8063 30.628C76.3622 29.1177 82.267 29.125 86.5956 33.2632C89.443 35.9863 91.2901 40.0586 91.5976 43.97C91.9392 48.318 89.892 52.1366 87.8448 55.8162C87.208 56.963 89.06 57.817 89.6968 56.675C92.0124 52.51 94.1278 48.2034 93.5813 43.299Z" fill="#FDD58D"/>
<path d="M83.5333 44.68C83.0551 40.3881 80.9933 36.0814 77.8652 33.09C72.7705 28.2198 65.7823 28.4077 59.3456 30.3353C55.7808 26.7338 50.2908 25.0819 45.0326 25.443C40.5649 25.7505 36.6634 27.2145 33.8061 30.7671C31.2246 33.9782 29.5581 37.7455 30.3389 41.9179C30.4267 42.3913 30.5463 42.8525 30.6805 43.3087C26.8765 44.0505 23.0604 46.8711 21.8404 50.3481C20.4227 54.3888 21.0913 60.7133 24.7025 63.4558C25.7444 64.2464 27.0693 62.6945 26.0201 61.8991C23.1555 59.7251 22.6993 54.645 23.6313 51.4071C24.5024 48.3815 28.0697 45.7243 31.3832 45.2217C32.7935 48.3498 35.2335 50.985 38.0566 52.9394C39.1253 53.6787 40.4551 52.1293 39.3742 51.3827C37.044 49.7698 34.9237 47.6471 33.5914 45.1241C34.4991 44.8191 34.626 43.2843 33.4865 43.1623C33.2376 43.1355 32.9863 43.1233 32.735 43.1184C32.4983 42.3913 32.3226 41.6398 32.2323 40.8614C31.7126 36.4279 34.7455 31.4503 38.5178 29.208C42.4657 26.8607 48.4461 26.8802 52.6771 28.4003C54.3265 28.9932 55.8686 29.9009 57.1789 31.055C55.039 31.831 52.9943 32.763 51.1448 33.7244C49.9809 34.3295 51.1448 36.0083 52.2965 35.4105C54.2314 34.4052 56.4127 33.4194 58.699 32.641C59.8287 34.0514 60.6437 35.7057 60.9804 37.5406C61.2171 38.8216 63.2521 38.6654 63.0129 37.3722C62.6347 35.325 61.8466 33.5365 60.7584 32.0091C66.3143 30.4987 72.2191 30.506 76.5476 34.6443C79.3951 37.3673 81.2422 41.4397 81.5496 45.351C81.8912 49.6991 79.8441 53.5177 77.7969 57.1972C77.1601 58.344 79.012 59.198 79.6489 58.0561C81.9644 53.891 84.0799 49.5844 83.5333 44.68Z" fill="#FDD58D"/>
<path d="M61.6124 71.2345C61.7076 72.8986 60.4363 74.326 58.7723 74.4212C57.1082 74.5163 55.6808 73.2451 55.5832 71.581C55.488 69.9169 56.7592 68.4895 58.4233 68.3919C60.0874 68.2968 61.5148 69.568 61.6124 71.2321V71.2345Z" fill="#84D92C"/>
<path d="M59.4384 69.5363C59.4701 70.0755 58.9309 70.5464 58.233 70.5855C57.5376 70.6245 56.9471 70.2195 56.9154 69.6802C56.8837 69.141 57.4229 68.6701 58.1208 68.631C58.8162 68.592 59.4067 68.997 59.4384 69.5363Z" fill="#ADF260"/>
<path d="M59.2261 72.9401C57.7645 73.0255 56.5128 71.908 56.4298 70.4489C56.4176 70.2268 56.4347 70.0121 56.4738 69.8047C56.0565 70.3024 55.8174 70.9539 55.8589 71.6542C55.9443 73.1158 57.196 74.2309 58.6551 74.1455C59.8946 74.0747 60.8828 73.1597 61.1024 71.9909C60.6486 72.5326 59.9849 72.8937 59.2261 72.9377V72.9401Z" fill="#66A621"/>
<path d="M80.8445 73.6135C80.9396 75.2776 79.6684 76.705 78.0043 76.8002C76.3402 76.8953 74.9128 75.6241 74.8152 73.96C74.7201 72.2959 75.9913 70.8685 77.6554 70.7709C79.3195 70.6758 80.7469 71.947 80.8445 73.6111V73.6135Z" fill="#84D92C"/>
<path d="M78.6704 71.9128C78.7021 72.4521 78.1629 72.923 77.465 72.962C76.7696 73.0011 76.1792 72.596 76.1474 72.0568C76.1157 71.5176 76.655 71.0466 77.3528 71.0076C78.0482 70.9686 78.6387 71.3736 78.6704 71.9128Z" fill="#ADF260"/>
<path d="M78.4581 75.3191C76.9966 75.4045 75.7449 74.287 75.6619 72.8279C75.6497 72.6058 75.6668 72.3911 75.7058 72.1837C75.2886 72.6815 75.0495 73.333 75.0909 74.0332C75.1763 75.4948 76.4281 76.6099 77.8872 76.5245C79.1267 76.4537 80.1149 75.5387 80.3345 74.37C79.8807 74.9116 79.217 75.2728 78.4581 75.3167V75.3191Z" fill="#66A621"/>
<path d="M70.2744 94.6463C68.703 95.2051 66.978 94.3828 66.4192 92.8115C65.8604 91.2401 66.6827 89.515 68.2541 88.9563C69.8254 88.3975 71.5505 89.2198 72.1093 90.7911C72.668 92.3625 71.8458 94.0876 70.2744 94.6463Z" fill="#84D92C"/>
<path d="M71.2992 92.0819C70.7892 92.2625 70.1866 91.8769 69.9548 91.2181C69.7205 90.5618 69.945 89.881 70.455 89.7005C70.9649 89.5199 71.5676 89.9054 71.7994 90.5642C72.0336 91.2206 71.8092 91.9014 71.2992 92.0819Z" fill="#ADF260"/>
<path d="M67.971 92.831C67.4806 91.4524 68.2028 89.9371 69.5814 89.4491C69.7888 89.3759 70.0011 89.332 70.211 89.3125C69.6156 89.0514 68.9226 89.0051 68.2614 89.2393C66.8828 89.7297 66.1606 91.2425 66.651 92.6211C67.0658 93.7923 68.2199 94.4853 69.4033 94.3706C68.7567 94.0876 68.2248 93.5508 67.9686 92.8334L67.971 92.831Z" fill="#66A621"/>
<path d="M52.133 78.8376C51.7768 81.9925 51.074 85.2694 48.8634 87.6826C46.6918 90.0543 43.5564 90.635 40.5162 89.8469C34.8163 88.3658 31.4613 82.6147 32.53 76.9319C32.774 75.6387 30.7586 75.3118 30.517 76.6001C29.2336 83.4199 33.428 90.1348 40.1868 91.8574C43.5784 92.7212 47.1847 92.0721 49.776 89.6492C52.682 86.9311 53.7141 82.9929 54.146 79.167C54.2924 77.864 52.2794 77.5297 52.133 78.8376Z" fill="#FDD58D"/>
<path d="M27.6598 54.1277C27.755 55.7918 26.4837 57.2192 24.8196 57.3168C23.1556 57.4119 21.7282 56.1407 21.633 54.4766C21.5378 52.8125 22.8091 51.3851 24.4732 51.2875C26.1372 51.1924 27.5646 52.4636 27.6622 54.1277H27.6598Z" fill="#84D92C"/>
<path d="M25.4858 52.427C25.5175 52.9663 24.9783 53.4372 24.2804 53.4762C23.585 53.5152 22.9945 53.1102 22.9628 52.571C22.9311 52.0317 23.4703 51.5608 24.1682 51.5218C24.8636 51.4827 25.4541 51.8878 25.4858 52.427Z" fill="#ADF260"/>
<path d="M25.2735 55.8333C23.8119 55.9187 22.5602 54.8012 22.4772 53.342C22.465 53.12 22.4821 52.9053 22.5212 52.6979C22.1039 53.1956 21.8648 53.8471 21.9063 54.5474C21.9917 56.009 23.2434 57.124 24.7025 57.0386C25.942 56.9679 26.9302 56.0529 27.1498 54.8841C26.696 55.4258 26.0323 55.7869 25.2735 55.8308V55.8333Z" fill="#66A621"/>
<path d="M34.8846 41.0273C34.9798 42.6914 33.7085 44.1188 32.0445 44.2164C30.3804 44.3115 28.953 43.0403 28.8578 41.3762C28.7627 39.7121 30.0339 38.2847 31.698 38.1871C33.3621 38.092 34.7895 39.3632 34.8871 41.0273H34.8846Z" fill="#84D92C"/>
<path d="M32.7106 39.329C32.7423 39.8683 32.2031 40.3392 31.5052 40.3782C30.8098 40.4173 30.2193 40.0122 30.1876 39.473C30.1559 38.9338 30.6951 38.4628 31.393 38.4238C32.0884 38.3848 32.6789 38.7898 32.7106 39.329Z" fill="#ADF260"/>
<path d="M32.4983 42.7329C31.0367 42.8183 29.785 41.7008 29.7021 40.2416C29.6899 40.0196 29.7069 39.8049 29.746 39.5975C29.3287 40.0952 29.0896 40.7467 29.1311 41.447C29.2165 42.9086 30.4682 44.0236 31.9273 43.9382C33.1669 43.8675 34.1551 42.9525 34.3747 41.7837C33.9208 42.3254 33.2571 42.6865 32.4983 42.7304V42.7329Z" fill="#66A621"/>
<path d="M39.7671 45.9927C39.7671 45.9927 34.8627 51.5706 39.0814 57.4339C41.763 61.1622 46.4112 62.409 46.4112 62.409C46.4112 62.409 49.4539 56.8629 48.2241 52.7564C46.2258 46.0806 39.7646 45.9903 39.7646 45.9903L39.7671 45.9927Z" fill="#256628"/>
<path d="M38.1933 48.6547C38.2714 48.5303 38.3812 48.4181 38.5227 48.4254C38.8277 48.4376 38.8862 48.8866 38.9082 49.1184C39.1327 51.473 39.5987 54.2375 41.2604 56.0528C42.0802 56.9483 43.3685 57.5168 44.5251 57.1533C45.4376 56.8654 46.0916 56.0748 46.6162 55.2745C46.7601 55.0549 47.641 53.686 47.8166 54.4693C48.0143 55.3477 47.7971 56.7019 47.5531 57.5388C47.3384 58.2757 46.9968 58.9613 46.6772 59.6567C46.4356 60.1789 46.2502 60.9304 45.7036 61.2232C45.3669 61.4038 44.957 61.3574 44.5885 61.2598C43.1758 60.884 41.8582 59.7933 40.8529 58.7661C39.6426 57.529 38.7008 56.0187 38.1664 54.3692C37.6565 52.8028 37.4076 50.8361 37.9298 49.2355C37.9834 49.0695 38.064 48.9012 38.142 48.745C38.1567 48.7157 38.1738 48.684 38.1933 48.6547Z" fill="#145416"/>
<path d="M44.9082 51.0265C45.0594 50.6214 44.4153 50.4311 44.264 50.8361C43.6833 52.3904 43.2807 53.9886 43.3173 55.6161C43.266 55.5087 43.2197 55.4014 43.1709 55.294C43.1684 55.2525 43.1587 55.2086 43.1367 55.1647C43.0806 55.0451 43.0172 54.928 42.9513 54.8133C42.5584 53.9325 42.1998 53.037 41.8704 52.1318C41.8777 52.1 41.8826 52.0634 41.8801 52.022C41.7752 50.7141 42.0485 49.4795 42.7146 48.3473C42.9342 47.9764 42.3632 47.6202 42.1436 47.9935C41.702 48.7426 41.4116 49.5429 41.275 50.3774C40.9066 49.2013 40.5869 48.0082 40.3234 46.7979C40.2429 46.4271 39.7305 46.4978 39.667 46.8053C39.6402 46.8687 39.6304 46.9395 39.6451 47.0127L39.65 47.0395C39.6597 47.0907 39.6866 47.1371 39.7183 47.1761C40.1794 49.2477 40.7968 51.2705 41.5605 53.2347C41.458 52.9687 38.6862 52.3245 38.752 52.6613C38.8033 52.9321 40.909 52.9443 42.3388 55.0988C42.7195 55.9553 43.1318 56.7971 43.571 57.6267C42.8 57.085 41.9704 56.6311 41.0847 56.2676C40.6845 56.1041 40.4966 56.7507 40.8944 56.9117C42.2168 57.451 43.4076 58.222 44.447 59.1956C44.7788 59.7617 45.1229 60.3229 45.4816 60.8743C45.7158 61.2354 46.3112 60.9231 46.0769 60.5595C45.7866 60.1155 45.5084 59.6641 45.2376 59.2102C45.2571 59.1199 45.2376 59.0199 45.1473 58.932C45.0912 58.8784 45.035 58.8271 44.9789 58.7735C44.6886 58.2757 44.408 57.7731 44.1396 57.2631C44.1615 57.207 44.1688 57.1435 44.1542 57.0728C43.7101 54.9914 44.1762 52.976 44.9057 51.0191L44.9082 51.0265Z" fill="#46872C"/>
<path d="M50.9447 43.0135C50.9447 43.0135 42.8634 44.9509 42.9391 53.0346C42.9879 58.1732 46.4331 62.3115 46.4331 62.3115C46.4331 62.3115 52.7918 59.2029 54.3168 54.6572C56.7958 47.264 50.9447 43.0159 50.9447 43.0159V43.0135Z" fill="#37753A"/>
<path d="M53.6336 48.7426C53.5604 48.6133 53.4555 48.501 53.3115 48.501C53.0065 48.501 52.9309 48.9476 52.8991 49.1769C52.5868 51.5218 52.0159 54.2668 50.2859 56.0162C49.4344 56.88 48.1241 57.3997 46.9821 56.9922C46.0818 56.6702 45.4596 55.8552 44.9643 55.0378C44.8276 54.8133 44.0005 53.4103 43.7955 54.1887C43.5661 55.0573 43.7296 56.4188 43.9419 57.2655C44.1273 58.0097 44.4445 58.71 44.7373 59.4152C44.9594 59.9471 45.1155 60.7059 45.6499 61.0158C45.9793 61.2086 46.3917 61.1793 46.7625 61.0963C48.1899 60.7742 49.5466 59.7348 50.5885 58.7466C51.8451 57.5559 52.843 56.0821 53.4408 54.4546C54.0093 52.9077 54.3339 50.9532 53.8703 49.3331C53.8215 49.1647 53.7483 48.9939 53.6751 48.8353C53.6604 48.806 53.6458 48.7743 53.6287 48.7426H53.6336Z" fill="#256628"/>
<path d="M52.0232 46.5247C51.0838 46.9492 50.2518 47.5275 49.549 48.2449C49.9956 46.8516 50.5006 45.4755 51.074 44.1188C51.2497 43.704 50.7032 43.4234 50.4299 43.6772C50.3616 43.7211 50.303 43.7845 50.2688 43.8626L50.2566 43.8919C50.2322 43.9505 50.2249 44.0115 50.2298 44.0725C49.2611 46.3978 48.4754 48.7865 47.8703 51.2168C47.5946 50.3579 47.1286 49.5576 46.4893 48.8793C46.1404 48.5108 45.5084 49.0013 45.8646 49.3746C46.9504 50.5238 47.4775 52.0098 47.3482 53.5592C47.1334 54.6499 46.9553 55.7503 46.8138 56.8556C46.4356 55.8015 45.9427 54.7914 45.3303 53.8349C45.0546 53.403 44.4299 53.9008 44.7032 54.3302C45.3254 55.3013 45.8207 56.353 46.1794 57.451C46.3795 58.0683 46.5698 58.6905 46.6332 59.3371C46.7016 60.0081 46.6747 60.6864 46.7504 61.3574C46.765 61.4843 46.7845 61.6478 46.8919 61.7332C46.9675 61.6575 46.9212 61.4843 46.9212 61.3794C46.6528 59.9129 46.9675 58.2879 47.6068 56.9166C47.6068 56.9093 47.6068 56.902 47.6068 56.8971C47.6117 56.8947 47.6166 56.8873 47.6214 56.8849C47.7556 56.5994 47.9045 56.3261 48.0655 56.0675C49.105 54.0838 50.7764 52.6222 52.6259 51.3607C53.0504 51.0704 52.5527 50.4457 52.1306 50.7337C50.5031 51.8439 49.0196 53.12 47.9386 54.7255C47.963 54.5889 47.9923 54.4522 48.0167 54.3131C48.0436 54.2716 48.0631 54.2229 48.0728 54.1643C48.0997 54.0081 48.1192 53.852 48.1338 53.6983C48.3559 52.5734 48.6194 51.4608 48.9195 50.353C48.9488 50.3262 48.9781 50.2969 49.0025 50.253C49.7979 48.911 50.9081 47.9008 52.3306 47.2567C52.7991 47.0444 52.4892 46.3099 52.0183 46.5222L52.0232 46.5247Z" fill="#5FA246"/>
<path d="M57.5254 64.6099C57.5254 64.6099 56.2517 59.42 51.0545 59.4981C47.7508 59.5469 45.1009 61.7771 45.1009 61.7771C45.1009 61.7771 47.1212 65.8543 50.0517 66.8181C54.8146 68.3846 57.5254 64.6099 57.5254 64.6099Z" fill="#37753A"/>
<path d="M52.438 65.5713C52.6137 65.8275 52.9919 65.5249 52.8162 65.2687C52.1379 64.2878 51.3595 63.3923 50.3835 62.7433C50.4665 62.7579 50.5494 62.775 50.6324 62.7897C50.6592 62.8043 50.6885 62.8165 50.7227 62.8238C50.8178 62.8385 50.9105 62.8507 51.0057 62.858C51.6865 62.9897 52.3623 63.1459 53.0333 63.324C53.0504 63.3435 53.0675 63.3606 53.0943 63.3753C53.9093 63.8511 54.5266 64.5221 54.9195 65.3809C55.0488 65.664 55.4929 65.4737 55.3635 65.1906C55.1025 64.6221 54.7511 64.1195 54.3143 63.6973C55.161 63.9633 55.9955 64.2659 56.8178 64.6075C57.0691 64.7124 57.2375 64.3806 57.0837 64.2171C57.0569 64.1756 57.0179 64.1414 56.9715 64.1195L56.952 64.1122C56.9178 64.0975 56.8788 64.0926 56.8422 64.0975C55.4294 63.5192 53.9825 63.0508 52.5063 62.6921C53.026 62.5213 53.5091 62.2382 53.9166 61.8478C54.1387 61.6355 53.841 61.2549 53.6141 61.4696C52.9211 62.1309 52.0232 62.4554 51.0838 62.3822C50.4225 62.2553 49.754 62.1528 49.0854 62.0699C49.7223 61.8381 50.3323 61.5355 50.9105 61.1597C51.1716 60.9914 50.8666 60.6132 50.608 60.7815C49.7467 61.3403 48.7999 61.7258 47.7995 61.9381C47.3286 61.9015 46.8553 61.8722 46.3819 61.8576C46.072 61.8478 46.011 62.3285 46.3233 62.3383C46.704 62.3505 47.0846 62.3724 47.4653 62.3993C47.5092 62.4481 47.5775 62.4773 47.6653 62.4603C47.719 62.4505 47.7727 62.4359 47.8288 62.4261C48.2412 62.4603 48.6535 62.5017 49.0659 62.553C49.0903 62.5896 49.1245 62.6189 49.1733 62.6408C50.5836 63.2362 51.584 64.3391 52.438 65.5762V65.5713Z" fill="#5FA246"/>
<path d="M78.9388 82.8343C78.9388 82.8343 76.2719 78.3203 71.4114 79.8648C68.3224 80.8481 66.4655 83.6907 66.4655 83.6907C66.4655 83.6907 69.518 86.9481 72.5436 87.0238C77.4602 87.1458 78.9364 82.8319 78.9364 82.8319L78.9388 82.8343Z" fill="#256628"/>
<path d="M77.4968 81.1946C77.5627 81.2751 77.6139 81.3727 77.5797 81.4654C77.5041 81.668 77.1918 81.6094 77.0307 81.5728C75.4033 81.2068 73.4439 80.914 71.8628 81.6314C71.082 81.9852 70.4183 82.7245 70.4086 83.5809C70.4013 84.2544 70.7892 84.8668 71.2089 85.3938C71.3236 85.5378 72.0507 86.4284 71.4871 86.3747C70.8551 86.3137 69.9938 85.8721 69.4863 85.5256C69.0397 85.2206 68.6542 84.8399 68.2589 84.4739C67.9613 84.1982 67.4977 83.9079 67.422 83.4784C67.3757 83.2125 67.4952 82.9465 67.6416 82.722C68.2053 81.8558 69.2227 81.2117 70.1329 80.7627C71.2284 80.221 72.4484 79.9209 73.6709 79.9234C74.8347 79.9234 76.2085 80.1893 77.1674 80.8896C77.2674 80.9628 77.3626 81.0531 77.448 81.1409C77.4651 81.158 77.4821 81.1751 77.4968 81.1946Z" fill="#145416"/>
<path d="M74.4346 85.1791C74.6737 85.3694 74.9421 84.9791 74.703 84.7887C73.788 84.0592 72.8047 83.4394 71.7042 83.1051C71.7872 83.0954 71.8702 83.088 71.9507 83.0783C71.98 83.0856 72.0093 83.0881 72.0459 83.0832C72.1386 83.071 72.2313 83.0539 72.3216 83.0368C72.9974 82.9661 73.6782 82.9221 74.359 82.9002C74.3785 82.9124 74.4029 82.9246 74.4297 82.9295C75.3301 83.1466 76.0987 83.6004 76.7136 84.2958C76.9161 84.5252 77.2797 84.2202 77.0771 83.9908C76.6721 83.5321 76.1987 83.1588 75.6693 82.8855C76.5379 82.8953 77.409 82.9416 78.2801 83.0319C78.546 83.0588 78.6119 82.7001 78.4191 82.5903C78.3825 82.5586 78.3362 82.5366 78.2849 82.5317H78.2654C78.2288 82.5244 78.1922 82.5317 78.1581 82.5464C76.6672 82.4024 75.1739 82.3731 73.688 82.4536C73.8881 82.4414 74.9275 80.7237 74.6884 80.6944C74.4956 80.67 74.0247 82.0803 72.2655 82.5659C71.6067 82.6342 70.9527 82.7269 70.2988 82.8392C70.8307 82.4415 71.3187 81.9827 71.7555 81.4679C71.9531 81.2361 71.5603 80.9677 71.3651 81.1995C70.7136 81.9681 69.9353 82.5976 69.0544 83.0832C68.6006 83.1808 68.1492 83.2906 67.7002 83.4101C67.4074 83.4882 67.4855 83.9567 67.7807 83.8786C68.1419 83.781 68.5054 83.6932 68.8714 83.6126C68.9275 83.6468 68.9983 83.6541 69.0764 83.6126C69.1252 83.5882 69.1715 83.559 69.2179 83.5346C69.6156 83.4492 70.0158 83.3711 70.4159 83.3028C70.4476 83.3296 70.4891 83.3491 70.5404 83.354C72.0337 83.5126 73.2854 84.2666 74.4371 85.1865L74.4346 85.1791Z" fill="#46872C"/>
<path d="M78.485 90.9863C78.485 90.9863 78.9559 85.1401 73.5172 83.4174C70.0597 82.3219 66.5266 83.7273 66.5266 83.7273C66.5266 83.7273 67.2171 88.6756 69.9352 90.6935C74.3516 93.9778 78.485 90.9839 78.485 90.9839V90.9863Z" fill="#37753A"/>
<path d="M74.0539 91.5353C74.1564 91.5134 74.2565 91.4695 74.2882 91.3719C74.3541 91.1669 74.071 91.0181 73.9246 90.9473C72.4216 90.2226 70.7038 89.2393 69.9084 87.6948C69.5155 86.9335 69.4545 85.9404 69.9791 85.2645C70.3915 84.7302 71.0771 84.4911 71.7335 84.3398C71.9141 84.2983 73.0365 84.0494 72.5607 83.742C72.0287 83.3979 71.0771 83.2101 70.4647 83.1661C69.9255 83.1271 69.3862 83.1857 68.8494 83.2296C68.4444 83.2613 67.9003 83.2003 67.5757 83.4907C67.3757 83.6688 67.3025 83.9518 67.2781 84.2202C67.1805 85.2475 67.5806 86.3869 68.0149 87.3019C68.5371 88.4073 69.3081 89.3979 70.2695 90.1567C71.1821 90.8765 72.424 91.5231 73.6099 91.5671C73.7319 91.5719 73.8636 91.5597 73.9856 91.5451C74.01 91.5427 74.0344 91.5378 74.0564 91.5329L74.0539 91.5353Z" fill="#256628"/>
<path d="M75.8937 90.94C75.8156 90.2153 75.6082 89.5321 75.2837 88.9026C76.1206 89.5077 76.9332 90.1494 77.7164 90.8302C77.9555 91.04 78.2654 90.735 78.1532 90.4959C78.1385 90.4398 78.1092 90.3861 78.0629 90.3471L78.0458 90.3324C78.0116 90.3031 77.9726 90.2861 77.9311 90.2763C76.5818 89.1173 75.1544 88.0657 73.6562 87.1263C74.2931 87.1287 74.9324 86.9921 75.5277 86.7115C75.8522 86.5577 75.6619 86.0283 75.3325 86.182C74.3248 86.6602 73.2122 86.6846 72.1996 86.2601C71.5139 85.877 70.8161 85.5159 70.1036 85.1791C70.8942 85.1572 71.6798 85.0474 72.4558 84.8449C72.8071 84.7546 72.6095 84.2251 72.2606 84.3154C71.4724 84.5203 70.6575 84.6228 69.8425 84.6228C69.3838 84.6228 68.9251 84.6131 68.4761 84.5155C68.0101 84.413 67.5611 84.2471 67.0951 84.1519C67.0072 84.1348 66.8926 84.1129 66.812 84.1641C66.8462 84.2324 66.9731 84.2373 67.0438 84.2617C68.0857 84.4032 69.1081 84.9693 69.8864 85.7013C69.8913 85.7013 69.8962 85.7062 69.8986 85.7062C69.8986 85.7111 69.9035 85.7135 69.9035 85.7184C70.0646 85.8721 70.2158 86.0307 70.3549 86.1966C71.4578 87.3288 72.0702 88.7708 72.5143 90.2885C72.6168 90.6374 73.1438 90.4398 73.0438 90.0933C72.6558 88.7586 72.1239 87.4825 71.2846 86.4065C71.3724 86.4528 71.4578 86.5016 71.5432 86.5504C71.5652 86.5773 71.5944 86.6017 71.631 86.6212C71.7286 86.6724 71.8287 86.7212 71.9312 86.7651C72.6363 87.1604 73.3268 87.5826 74.0027 88.0266C74.0125 88.0535 74.0271 88.0779 74.0515 88.1047C74.7762 88.9319 75.213 89.8981 75.3325 90.9937C75.3716 91.3523 75.9328 91.306 75.8937 90.9449V90.94Z" fill="#5FA246"/>
<path d="M62.5542 90.6667C62.5542 90.6667 66.3167 90.9497 67.4025 87.4459C68.093 85.2182 67.178 82.9514 67.178 82.9514C67.178 82.9514 63.9987 83.4126 62.7104 85.1669C60.6144 88.0193 62.5542 90.6667 62.5542 90.6667Z" fill="#37753A"/>
<path d="M63.0227 87.0433C62.8129 87.1068 62.9324 87.4264 63.1423 87.363C63.9499 87.1238 64.721 86.7969 65.37 86.2845C65.3432 86.3382 65.3114 86.3894 65.2846 86.4431C65.2675 86.4577 65.2529 86.4748 65.2431 86.4968C65.2114 86.5553 65.1846 86.6163 65.1577 86.6798C64.921 87.1092 64.6673 87.5264 64.4013 87.9388C64.3867 87.9461 64.3696 87.9534 64.355 87.9681C63.8572 88.4097 63.2716 88.6781 62.6104 88.7538C62.3932 88.7782 62.4225 89.1198 62.6421 89.0929C63.0813 89.0417 63.4936 88.9148 63.8743 88.7172C63.5107 89.2271 63.1252 89.72 62.7153 90.1982C62.5908 90.3446 62.7763 90.5301 62.9202 90.4618C62.9544 90.452 62.9861 90.4349 63.0105 90.4081L63.0203 90.3983C63.0374 90.3788 63.0496 90.3544 63.0544 90.3276C63.7523 89.5077 64.3842 88.6391 64.9479 87.7265C64.9479 88.112 65.0333 88.5 65.2041 88.8587C65.2992 89.0539 65.6189 88.9368 65.5237 88.7391C65.2309 88.1291 65.2114 87.4557 65.4652 86.8408C65.6945 86.4236 65.9117 85.999 66.1142 85.5671C66.1313 86.0454 66.1996 86.5212 66.324 86.9921C66.3802 87.2044 66.6998 87.0824 66.6437 86.8725C66.4582 86.1722 66.407 85.4525 66.4826 84.7327C66.612 84.4252 66.734 84.1129 66.8462 83.7981C66.9194 83.5932 66.612 83.4468 66.5363 83.6542C66.4436 83.9079 66.346 84.1593 66.246 84.4081C66.202 84.4277 66.1679 84.4667 66.1606 84.5301C66.1557 84.5692 66.1532 84.6082 66.1484 84.6472C66.0337 84.9181 65.9166 85.184 65.7921 85.45C65.7628 85.4573 65.736 85.4744 65.7092 85.5037C65.0016 86.3186 64.0402 86.7481 63.0252 87.0507L63.0227 87.0433Z" fill="#5FA246"/>
<path d="M90.663 38.4287C90.663 38.4287 85.4219 38.3384 84.1946 43.2867C83.4138 46.4343 84.8656 49.5039 84.8656 49.5039C84.8656 49.5039 89.2405 48.6084 90.8875 46.0708C93.5666 41.9447 90.663 38.4287 90.663 38.4287Z" fill="#256628"/>
<path d="M88.511 38.7971C88.6134 38.7825 88.7232 38.7898 88.7867 38.8703C88.9184 39.0387 88.7037 39.2754 88.5915 39.3925C87.4276 40.5881 86.1515 42.1033 85.9343 43.826C85.827 44.6751 86.11 45.6291 86.8347 46.0854C87.4056 46.4441 88.1303 46.4343 88.7989 46.3514C88.9819 46.3294 90.1214 46.1757 89.7798 46.6295C89.3967 47.1371 88.5695 47.6397 88.0083 47.891C87.5154 48.1106 86.9884 48.2424 86.4687 48.3863C86.0783 48.4961 85.5878 48.7377 85.1828 48.5791C84.9315 48.4791 84.768 48.2399 84.6533 47.9959C84.2092 47.0639 84.1946 45.8585 84.2873 44.8483C84.3996 43.6308 84.7826 42.4352 85.4244 41.3933C86.0344 40.4027 86.9786 39.3705 88.0791 38.9216C88.1938 38.8752 88.3206 38.8411 88.4402 38.8118C88.4621 38.8069 88.4866 38.802 88.511 38.7971Z" fill="#145416"/>
<path d="M90.3019 43.4941C90.5898 43.3917 90.3971 42.9573 90.1091 43.0598C89.0087 43.4575 87.9644 43.9724 87.1055 44.7337C87.1397 44.658 87.1763 44.5848 87.2129 44.5092C87.2348 44.4897 87.2519 44.4628 87.2665 44.4311C87.3056 44.3457 87.3397 44.2579 87.3715 44.1725C87.6667 43.56 87.9839 42.9573 88.3206 42.3644C88.3426 42.3547 88.3621 42.34 88.3841 42.3205C89.0404 41.6666 89.8285 41.2493 90.7435 41.0907C91.0437 41.0395 90.9753 40.5686 90.6728 40.6223C90.0677 40.7272 89.504 40.937 88.9941 41.2445C89.4577 40.51 89.953 39.7927 90.4849 39.0973C90.6484 38.885 90.3751 38.641 90.1799 38.7483C90.1335 38.763 90.0896 38.7898 90.0603 38.8313L90.0481 38.8459C90.0262 38.8752 90.0115 38.9094 90.0067 38.946C89.1039 40.1416 88.2962 41.3982 87.5886 42.706C87.6838 42.5303 86.7639 40.7443 86.6126 40.9321C86.4906 41.0834 87.4471 42.2229 86.9396 43.9748C86.6541 44.5702 86.3881 45.1777 86.1417 45.7926C86.0807 45.1289 85.9465 44.475 85.7367 43.8333C85.6415 43.5429 85.2096 43.7381 85.3023 44.0261C85.6171 44.9825 85.7464 45.9781 85.6976 46.9809C85.5439 47.4177 85.3999 47.8593 85.2682 48.3058C85.1803 48.5962 85.622 48.7743 85.7074 48.4815C85.8147 48.1228 85.9294 47.7666 86.049 47.4128C86.1075 47.3835 86.1515 47.3249 86.1588 47.2371C86.1637 47.1834 86.1637 47.1297 86.1661 47.0736C86.3027 46.6905 86.4443 46.3099 86.5955 45.9317C86.6346 45.9171 86.6736 45.8927 86.7053 45.8512C87.6228 44.6629 88.9184 43.9919 90.3068 43.4893L90.3019 43.4941Z" fill="#46872C"/>
<path d="M97.3706 43.0818C97.3706 43.0818 92.637 39.6194 88.3231 43.3526C85.5805 45.7267 84.929 49.4697 84.929 49.4697C84.929 49.4697 89.5065 51.4705 92.6492 50.2139C97.7585 48.1692 97.373 43.0818 97.373 43.0818H97.3706Z" fill="#37753A"/>
<path d="M95.5186 47.1468C95.5528 47.0492 95.5674 46.9395 95.5015 46.8638C95.3625 46.7003 95.0868 46.8638 94.9501 46.9516C93.5471 47.8544 91.8074 48.8012 90.075 48.6694C89.221 48.606 88.3426 48.1375 88.04 47.3372C87.8009 46.7052 87.9546 45.9976 88.1694 45.3583C88.2279 45.1826 88.6037 44.0968 88.0937 44.3408C87.5203 44.6141 86.8639 45.3242 86.5053 45.8268C86.1905 46.266 85.9587 46.7564 85.7123 47.2371C85.5268 47.5982 85.1925 48.0301 85.2682 48.4596C85.3145 48.7255 85.5195 48.9329 85.7342 49.094C86.5589 49.7137 87.7375 49.9699 88.7476 50.0797C89.9627 50.2115 91.212 50.0748 92.3588 49.6527C93.4495 49.2526 94.6524 48.5328 95.3112 47.5446C95.3795 47.4421 95.4381 47.325 95.4893 47.2127C95.4991 47.1908 95.5089 47.1688 95.5162 47.1444L95.5186 47.1468Z" fill="#256628"/>
<path d="M95.9749 45.2656C95.3161 44.9533 94.6256 44.7702 93.918 44.719C94.872 44.3237 95.8432 43.9651 96.8338 43.6552C97.1364 43.56 97.0388 43.1379 96.7777 43.1086C96.7216 43.0915 96.663 43.0891 96.6044 43.1086L96.5825 43.1159C96.541 43.1281 96.5044 43.1525 96.4727 43.1843C94.7793 43.7259 93.1347 44.3921 91.5512 45.1777C91.8879 44.6361 92.1051 44.0212 92.1783 43.3673C92.2173 43.011 91.6659 42.8963 91.6268 43.2575C91.5048 44.3677 90.9461 45.329 90.053 45.9683C89.3674 46.3514 88.694 46.7588 88.0352 47.1883C88.4304 46.5026 88.7476 45.7755 88.9819 45.0094C89.0868 44.6629 88.5354 44.5555 88.4304 44.8996C88.1913 45.6779 87.8522 46.427 87.4252 47.12C87.186 47.5104 86.9372 47.8959 86.6175 48.2253C86.2881 48.5693 85.9099 48.8646 85.5854 49.2111C85.5244 49.2769 85.4463 49.3623 85.4488 49.4575C85.5244 49.4624 85.5952 49.3599 85.6513 49.3111C86.3174 48.4986 87.3349 47.9227 88.367 47.6421C88.3719 47.6397 88.3743 47.6373 88.3792 47.6348C88.3841 47.6348 88.389 47.6348 88.3914 47.6348C88.6061 47.5763 88.8208 47.5323 89.0356 47.5006C90.5776 47.1541 92.127 47.3859 93.652 47.8032C94.001 47.8983 94.1108 47.3469 93.7618 47.2517C92.4198 46.8833 91.0559 46.6686 89.6992 46.8199C89.7846 46.7711 89.87 46.7223 89.9554 46.6735C89.9896 46.6686 90.0262 46.6564 90.0604 46.6369C90.1555 46.5807 90.2482 46.5197 90.3385 46.4563C91.0437 46.0634 91.7659 45.695 92.4979 45.351C92.5248 45.3559 92.5565 45.3559 92.5906 45.351C93.6764 45.1655 94.7256 45.2997 95.7236 45.7731C96.0506 45.9293 96.3043 45.4266 95.9774 45.2705L95.9749 45.2656Z" fill="#5FA246"/>
<path d="M88.7574 56.4896C88.7574 56.4896 90.968 53.4323 88.5524 50.6726C87.0152 48.9183 84.6069 48.5108 84.6069 48.5108C84.6069 48.5108 83.3357 51.4608 84.1555 53.4786C85.4878 56.758 88.7574 56.4896 88.7574 56.4896Z" fill="#37753A"/>
<path d="M85.9172 54.1911C85.8611 54.4034 86.1954 54.4668 86.2515 54.257C86.4687 53.4444 86.5955 52.6173 86.5004 51.795C86.5297 51.8462 86.5589 51.8999 86.5907 51.9512C86.5931 51.9731 86.6004 51.9926 86.6151 52.0146C86.6492 52.0732 86.6858 52.1293 86.7249 52.183C86.9664 52.61 87.1909 53.0443 87.4007 53.4859C87.3983 53.503 87.3983 53.5201 87.4007 53.542C87.5154 54.1984 87.4373 54.8352 87.1567 55.4404C87.064 55.638 87.369 55.7917 87.4617 55.5916C87.6472 55.1915 87.757 54.7718 87.7863 54.3448C88.0303 54.9206 88.2499 55.5087 88.4402 56.1089C88.4987 56.2919 88.7549 56.2309 88.772 56.0723C88.7818 56.0382 88.7842 56.0016 88.772 55.9674L88.7671 55.9528C88.7598 55.9259 88.7452 55.904 88.7257 55.8869C88.3914 54.8621 87.9815 53.869 87.5008 52.9125C87.8302 53.115 88.2035 53.2444 88.5988 53.2858C88.8159 53.3078 88.8818 52.9735 88.6647 52.9516C87.9912 52.8808 87.4081 52.5465 87.0177 52.0073C86.7834 51.5925 86.5345 51.1874 86.2735 50.7897C86.6907 51.0264 87.1299 51.2167 87.5959 51.3558C87.8058 51.4192 87.8692 51.0825 87.6618 51.0215C86.9689 50.8141 86.3271 50.4798 85.7562 50.0382C85.561 49.7674 85.3609 49.5014 85.1511 49.2403C85.0144 49.0695 84.7289 49.255 84.8656 49.4282C85.0339 49.638 85.195 49.8527 85.356 50.0699C85.3511 50.1163 85.3658 50.1651 85.4146 50.2066C85.4439 50.231 85.4756 50.2529 85.5073 50.2773C85.6781 50.5164 85.844 50.7556 86.0051 50.9996C85.9977 51.0288 85.9953 51.0606 86.0051 51.0972C86.3296 52.1268 86.1929 53.1687 85.9172 54.1935V54.1911Z" fill="#5FA246"/>
<path d="M84.3361 52.4611C84.2946 53.0053 83.4626 53.3835 82.4817 53.3078C81.4984 53.2322 80.7371 52.7295 80.7786 52.1854C80.8201 51.6413 81.6521 51.2631 82.633 51.3387C83.6163 51.4144 84.3776 51.917 84.3361 52.4611Z" fill="#F38D41"/>
<path d="M84.9925 57.468C84.6509 57.8926 83.7505 57.7364 82.9843 57.1167C82.2157 56.4994 81.8717 55.6527 82.2133 55.2281C82.5549 54.8036 83.4553 54.9597 84.2214 55.5795C84.99 56.1968 85.3341 57.0435 84.9925 57.468Z" fill="#F38D41"/>
<path d="M82.4085 34.4076C82.5037 36.0717 81.2324 37.4991 79.5684 37.5967C77.9043 37.6918 76.4769 36.4206 76.3793 34.7565C76.2841 33.0925 77.5554 31.6651 79.2194 31.5699C80.8835 31.4747 82.3109 32.746 82.4085 34.41V34.4076Z" fill="#84D92C"/>
<path d="M80.2345 32.7069C80.2662 33.2462 79.727 33.7171 79.0291 33.7561C78.3337 33.7952 77.7433 33.3901 77.7115 32.8509C77.6798 32.3116 78.2191 31.8407 78.9169 31.8017C79.6123 31.7626 80.2028 32.1677 80.2345 32.7069Z" fill="#ADF260"/>
<path d="M80.0246 36.1132C78.5631 36.1986 77.3114 35.0811 77.2284 33.6219C77.2162 33.4023 77.2333 33.1852 77.2723 32.9778C76.8551 33.4755 76.616 34.127 76.6574 34.8273C76.7428 36.2889 77.9946 37.404 79.4537 37.3186C80.6932 37.2478 81.6814 36.3328 81.901 35.164C81.4472 35.7057 80.7835 36.0668 80.0246 36.1107V36.1132Z" fill="#66A621"/>
<path d="M38.6154 40.8736C40.1013 39.2242 40.7992 39.0607 40.7992 39.0607H39.1107C39.1107 39.0607 38.0005 40.1001 37.3124 41.8008C36.6219 43.5039 37.1489 43.7723 37.1489 43.7723C37.3563 43.8187 37.7687 43.8943 37.9785 43.909C37.9346 43.9065 37.1636 42.4864 38.6178 40.8736H38.6154Z" fill="#66A621"/>
<path d="M37.7224 43.7845L37.6711 43.7723C37.6711 43.7723 37.1441 43.5015 37.8346 41.8008C38.5251 40.0977 39.6329 39.0607 39.6329 39.0607H40.7358C40.8578 38.9924 40.9236 38.9777 40.9236 38.9777H39.2352C39.2352 38.9777 38.1274 40.0172 37.4369 41.7178C36.7464 43.421 37.2734 43.6894 37.2734 43.6894L37.7248 43.7918V43.7845H37.7224Z" fill="#518A0C"/>
<path d="M71.6213 27.3755C72.1044 29.5422 71.8336 30.2059 71.8336 30.2059L72.812 28.8297C72.812 28.8297 72.6095 27.3243 71.6213 25.7749C70.6355 24.2255 70.1085 24.4987 70.1085 24.4987C69.9499 24.6403 69.6498 24.9331 69.518 25.0941C69.5448 25.0599 71.1479 25.2552 71.6213 27.3755Z" fill="#66A621"/>
<path d="M69.7669 24.9599L69.8059 24.9258C69.8059 24.9258 70.3305 24.6525 71.3187 26.2019C72.3045 27.7513 72.5094 29.2568 72.5094 29.2568L71.8702 30.1547C71.8531 30.2938 71.8311 30.3548 71.8311 30.3548L72.8096 28.9786C72.8096 28.9786 72.607 27.4731 71.6188 25.9237C70.6331 24.3743 70.106 24.6476 70.106 24.6476L69.7596 24.955L69.7669 24.9599Z" fill="#518A0C"/>
<path d="M52.9577 27.9611C52.9577 27.9611 44.0639 30.4304 40.8455 34.188C37.6272 37.9432 36.3437 39.5462 36.9537 40.7736C37.5662 42.0009 39.2107 43.2648 40.5088 41.547C41.8069 39.8293 41.4043 37.3966 45.484 33.983C49.5637 30.5695 52.9601 27.9636 52.9601 27.9636L52.9577 27.9611Z" fill="#FD0000"/>
<path d="M37.3197 40.9712C37.3612 41.0566 38.081 41.8569 38.1323 41.9423C38.4983 40.066 39.4255 37.9456 42.4437 34.4247C44.8618 31.6016 52.0744 28.5468 52.0744 28.5468C52.0744 28.5468 44.0517 30.6647 40.8333 34.4198C37.615 38.175 36.7073 39.7439 37.3197 40.9712Z" fill="#CA0000"/>
<path d="M70.3061 47.325C70.3061 47.325 75.1739 39.4828 74.9982 34.5394C74.8226 29.5959 74.681 27.5488 73.3976 27.0583C72.1166 26.5703 70.0499 26.7533 70.2598 28.8981C70.4696 31.0429 72.4118 32.5557 71.7262 37.8309C71.0406 43.1062 70.3061 47.3225 70.3061 47.3225V47.325Z" fill="#FD0000"/>
<path d="M72.9925 27.1632C72.9047 27.1291 71.8311 27.029 71.7359 27.0022C72.7363 28.6297 73.4927 30.8184 73.6587 35.4544C73.7904 39.168 70.5574 46.3026 70.5574 46.3026C70.5574 46.3026 75.0226 39.3096 74.8445 34.3661C74.6688 29.4227 74.2711 27.6537 72.9901 27.1657L72.9925 27.1632Z" fill="#CA0000"/>
<path d="M92.676 55.7478L92.6809 55.6698L92.676 55.6722C92.676 55.56 92.6809 55.4526 92.6809 55.3379C92.6809 51.0216 88.8696 45.2851 85.7342 43.6162C85.7025 43.5991 85.6537 43.5796 85.5976 43.5552C85.1535 43.2965 84.3605 43.1574 84.1824 43.0989C82.0254 42.4742 78.1117 41.5178 75.0592 41.1957C74.6396 41.1152 74.2199 41.0444 73.8197 40.9956C71.1821 40.6686 70.2793 40.5393 70.4184 40.6467C70.5574 40.754 71.1186 40.9322 71.1186 40.9322C71.1186 40.9322 69.0446 40.7126 68.6225 40.6418C68.2004 40.571 67.322 40.6564 68.0369 40.8077C68.4224 40.8907 68.8372 41.02 69.1422 41.1225C68.947 41.1225 68.7518 41.1274 68.5566 41.1298C67.5416 40.9834 66.102 40.7858 65.8141 40.7906C65.4993 40.7955 66.0971 41.02 66.4875 41.1542C65.7946 41.1615 65.1382 41.1688 64.5477 41.1762L61.4636 41.0688C61.4636 41.0688 61.4904 41.1298 61.976 41.2347C62.6177 41.4226 66.202 42.5011 64.4989 42.7939C59.88 43.5869 59.1163 44.6629 59.1163 44.6629C59.1163 44.6629 62.037 46.593 66.385 47.9935C66.0215 48.118 65.6555 48.2839 65.3261 48.5059C64.0231 49.3819 63.2887 49.7747 64.2305 49.4892C65.1114 49.2208 65.4383 48.7158 66.5876 48.523C66.3777 48.6206 66.1703 48.7304 65.9776 48.8622C64.5721 49.8089 63.7791 50.231 64.7966 49.9236C65.8116 49.6137 66.1313 49.0086 67.5928 48.8402C67.7392 48.8231 67.8881 48.806 68.0369 48.7865C67.5636 49.1037 67.0731 49.5136 66.7047 50.0163C65.7018 51.3827 65.0992 52.0488 65.9507 51.4144C66.8023 50.78 66.8974 50.1017 68.215 49.4502C68.6323 49.2428 69.0617 49.0208 69.4546 48.8158C69.4838 48.8231 69.5107 48.828 69.54 48.8353C69.0105 49.1672 68.4322 49.6186 68.0125 50.192C67.0097 51.5584 66.407 52.2245 67.2586 51.5901C68.1101 50.9557 68.2053 50.2774 69.5229 49.6259C69.8889 49.4453 70.2598 49.2526 70.6111 49.0696C73.91 49.8113 76.2402 50.68 77.8848 51.5681C75.9328 53.4054 75.5009 56.17 75.5009 56.17C75.5009 56.17 75.5692 56.8824 76.1914 56.1309C76.2207 56.0968 76.2524 56.0504 76.2841 56.0114C76.2914 56.0016 76.2987 55.9943 76.3085 55.9845C76.3109 55.9796 76.3134 55.9772 76.3158 55.9723C76.9258 55.1842 77.7652 53.8007 78.9779 53.1175C79.012 53.1419 79.0486 53.1663 79.0877 53.1883C77.5676 54.9817 77.2064 57.2509 77.2064 57.2509C77.2064 57.2509 77.2748 57.9634 77.897 57.2118C77.9262 57.1777 77.958 57.1313 77.9897 57.0923C77.997 57.0825 78.0043 57.0752 78.0141 57.0654C78.0165 57.0606 78.019 57.0581 78.0214 57.0532C78.6314 56.2651 79.4708 54.8816 80.6834 54.1984C80.8225 54.2936 80.9982 54.3692 81.191 54.4327C81.313 54.645 81.4106 54.8499 81.4838 55.0451C81.4594 55.0524 81.4374 55.0549 81.4106 55.0622C78.8437 55.8454 77.2308 58.139 77.2308 58.139C77.2308 58.139 76.9771 58.8076 77.8677 58.4099C77.9092 58.3904 77.958 58.366 78.0019 58.344C78.0141 58.3391 78.0238 58.3367 78.036 58.3294C78.0409 58.3269 78.0434 58.3245 78.0482 58.3196C78.9315 57.8902 80.2711 57.0386 81.6424 56.9434C81.5814 57.4168 81.5008 57.8633 81.4008 58.283C79.1853 57.9316 77.1747 58.6807 77.1747 58.6807C77.1747 58.6807 76.5867 59.0882 77.5456 59.2639C77.5895 59.2712 77.6456 59.2785 77.6944 59.2858C77.7066 59.2883 77.7164 59.2907 77.731 59.2932C77.7359 59.2932 77.7408 59.2932 77.7457 59.2932C78.5606 59.4152 79.8026 59.4786 80.886 59.9032C80.0173 61.9698 78.6119 63.1874 77.0674 63.6412C76.999 63.4314 76.9649 63.3216 76.9649 63.3216C76.9649 63.3216 76.9454 63.4558 76.9234 63.6778C75.7034 63.9999 74.4126 63.8608 73.2463 63.285C72.7974 63.063 72.1068 62.431 71.2943 61.5648C71.2943 61.555 71.2943 61.5453 71.2943 61.538C71.3187 61.5526 71.3358 61.5746 71.3626 61.5868C71.387 61.2696 71.2602 60.9743 71.0845 60.6986C71.0308 60.5522 70.9893 60.4546 70.9893 60.4546C70.9893 60.4546 64.2696 51.5681 63.5498 51.2997C62.83 51.0313 62.1077 49.277 62.403 52.266C62.6958 55.255 62.7592 57.7242 63.0935 59.2907C63.4278 60.8572 64.5355 63.224 66.3802 64.7929C67.1292 65.4322 67.749 65.9373 68.2297 66.3228C68.8641 67.1719 69.5278 67.9137 70.1768 68.4017C72.8706 70.4244 78.4582 71.8177 81.0592 71.3102H81.169C81.169 71.3102 81.1617 71.3053 81.1519 71.2955C81.1641 71.2955 81.1763 71.2931 81.1885 71.2906C82.9624 70.888 87.3178 68.2431 87.6887 68.0259C87.9473 67.8746 89.8017 65.0955 90.907 63.4192L91.639 62.3993C91.639 62.3993 91.6122 62.4017 91.5707 62.4066C91.6708 62.2529 91.7293 62.165 91.7293 62.165C91.7293 62.165 92.6272 59.8104 92.6834 55.7478H92.676Z" fill="#B23D00"/>
<path d="M92.2637 70.1975C90.6484 71.7225 89.9408 71.8274 89.9408 71.8274L91.6244 71.9641C91.6244 71.9641 92.8151 71.0198 93.6398 69.3777C94.467 67.738 93.9619 67.4257 93.9619 67.4257C93.7594 67.3622 93.3544 67.2549 93.147 67.2231C93.1909 67.2305 93.8424 68.7067 92.2637 70.1975Z" fill="#66A621"/>
<path d="M93.3909 67.3696L93.4422 67.3842C93.4422 67.3842 93.9448 67.6965 93.1201 69.3362C92.2929 70.9759 91.1047 71.9226 91.1047 71.9226L90.0067 71.8323C89.8773 71.8909 89.8139 71.9006 89.8139 71.9006L91.4975 72.0373C91.4975 72.0373 92.6882 71.093 93.5129 69.4509C94.3401 67.8112 93.835 67.4989 93.835 67.4989L93.3934 67.3598V67.3671L93.3909 67.3696Z" fill="#518A0C"/>
<path d="M73.6123 77.4004C73.6123 77.4004 82.7867 78.4203 87.1738 76.134C91.5585 73.8478 93.347 72.8376 93.2372 71.4712C93.1274 70.1048 92.0709 68.3187 90.2263 69.4314C88.3816 70.5416 87.8497 72.9498 82.794 74.5993C77.7383 76.2487 73.6147 77.4028 73.6147 77.4028L73.6123 77.4004Z" fill="#FD0000"/>
<path d="M92.9688 71.1491C92.9615 71.054 92.5906 70.0438 92.576 69.9462C91.5365 71.5493 89.8871 73.1744 85.7733 75.3191C82.4768 77.0369 74.6469 77.1881 74.6469 77.1881C74.6469 77.1881 82.8819 78.2081 87.2665 75.9218C91.6512 73.6355 93.0786 72.518 92.9688 71.1491Z" fill="#CA0000"/>
<path d="M51.584 33.2681C51.6792 34.9322 50.4079 36.3596 48.7438 36.4572C47.0798 36.5523 45.6524 35.2811 45.5548 33.617C45.4596 31.9529 46.7308 30.5255 48.3949 30.4304C50.059 30.3352 51.4864 31.6064 51.5816 33.2705L51.584 33.2681Z" fill="#84D92C"/>
<path d="M49.4099 31.5674C49.4417 32.1066 48.9024 32.5775 48.2046 32.6166C47.5092 32.6556 46.9187 32.2506 46.887 31.7113C46.8553 31.1721 47.3945 30.7012 48.0923 30.6621C48.7877 30.6231 49.3782 31.0282 49.4099 31.5674Z" fill="#ADF260"/>
<path d="M49.1977 34.9737C47.7361 35.0591 46.4844 33.9415 46.4014 32.4824C46.3892 32.2628 46.4063 32.0457 46.4454 31.8383C46.0281 32.336 45.789 32.9875 45.8305 33.6878C45.9159 35.1493 47.1676 36.2644 48.6267 36.179C49.8662 36.1083 50.8544 35.1933 51.074 34.0245C50.6202 34.5662 49.9565 34.9273 49.1977 34.9712V34.9737Z" fill="#66A621"/>
<path d="M83.6261 51.1704C83.6261 51.1704 83.0722 50.7702 82.2841 50.5213L81.9205 50.0895C81.9205 50.0895 79.3561 48.2156 77.3992 50.0529C75.4423 51.8902 75.0104 54.6596 75.0104 54.6596C75.0104 54.6596 75.0788 55.3721 75.701 54.6205C76.3207 53.8739 77.1918 52.3367 78.485 51.6072C78.5192 51.6316 78.5558 51.6559 78.5948 51.6779C77.0747 53.4713 76.7136 55.7405 76.7136 55.7405C76.7136 55.7405 76.7819 56.453 77.4041 55.7015C78.0238 54.9548 78.8949 53.4176 80.1905 52.6881C80.5199 52.915 81.0275 53.0614 81.6009 53.0516C82.1059 53.0443 82.5574 52.9199 82.8794 52.7271C83.3235 52.9321 83.6822 53.2005 83.8579 53.464C84.341 54.1887 84.9144 52.7052 84.9144 52.7052L83.6261 51.1704Z" fill="#FD9471"/>
<path d="M68.0125 46.122C68.0125 46.122 66.1435 46.122 64.8405 46.998C63.5376 47.8739 62.8031 48.2668 63.745 47.9813C64.6868 47.6934 64.982 47.1322 66.3362 46.9785C67.6904 46.8223 69.1886 46.5734 69.1886 46.5734L68.0125 46.122Z" fill="#E63E0B"/>
<path d="M68.9129 46.4099C68.9129 46.4099 66.895 46.4099 65.4895 47.3542C64.0841 48.3009 63.2911 48.723 64.3086 48.4156C65.3236 48.1057 65.6433 47.5006 67.1048 47.3322C68.5664 47.1639 70.1817 46.8955 70.1817 46.8955L68.9129 46.4099Z" fill="#E63E0B"/>
<path d="M69.1178 46.4612C69.1178 46.4612 67.2195 47.1419 66.2167 48.5083C65.2138 49.8747 64.6111 50.5409 65.4627 49.9065C66.3143 49.2721 66.4094 48.5937 67.727 47.9423C69.0446 47.2908 70.4745 46.4905 70.4745 46.4905L69.1154 46.4636L69.1178 46.4612Z" fill="#E63E0B"/>
<path d="M70.4257 46.6344C70.4257 46.6344 68.5273 47.3152 67.5245 48.6816C66.5217 50.048 65.919 50.7141 66.7705 50.0797C67.6221 49.4453 67.7173 48.767 69.0349 48.1155C70.3525 47.464 71.7823 46.6637 71.7823 46.6637L70.4232 46.6368L70.4257 46.6344Z" fill="#E63E0B"/>
<path d="M77.7066 51.9829C79.6635 50.1456 82.2279 52.0195 82.2279 52.0195L83.0551 53.0053C83.1429 52.8345 83.1966 52.6954 83.1966 52.6954L81.9083 51.1606C81.9083 51.1606 79.3439 49.2867 77.387 51.124C75.4301 52.9614 75.1202 54.7011 75.1202 54.7011C75.1202 54.7011 75.0714 55.3453 75.8181 54.4742C76.4988 53.2395 76.3475 53.2566 77.7042 51.9805L77.7066 51.9829Z" fill="#FD734D"/>
<path d="M79.4097 53.0638C81.3666 51.2265 83.9311 53.1004 83.9311 53.1004L84.7582 54.0862C84.8461 53.9154 84.8997 53.7763 84.8997 53.7763L83.6114 52.2415C83.6114 52.2415 81.047 50.3676 79.0901 52.2049C77.1332 54.0422 76.8233 55.7844 76.8233 55.7844C76.8233 55.7844 76.7745 56.4286 77.5212 55.5575C78.2019 54.3228 78.0507 54.3399 79.4073 53.0638H79.4097Z" fill="#FD734D"/>
<path d="M84.9559 55.5819C84.9559 55.5819 83.4846 52.7662 80.9177 53.5519C78.3508 54.3351 76.738 56.6287 76.738 56.6287C76.738 56.6287 76.4842 57.2973 77.3748 56.8995C78.2654 56.5018 79.7343 55.499 81.2251 55.4258C82.716 55.3526 84.0384 56.88 84.1507 57.7462C84.2654 58.61 85.4341 57.5315 85.4341 57.5315L84.9583 55.5844L84.9559 55.5819Z" fill="#FD9471"/>
<path d="M80.337 55.4185C82.9038 54.6352 84.3752 57.4485 84.3752 57.4485L84.6826 58.7003C84.8363 58.5856 84.9461 58.4831 84.9461 58.4831L84.4703 56.536C84.4703 56.536 82.999 53.7202 80.4321 54.5059C77.8652 55.2891 76.816 56.7141 76.816 56.7141C76.816 56.7141 76.4866 57.2704 77.5432 56.819C78.6997 56.0114 78.5558 55.9601 80.337 55.416V55.4185Z" fill="#FD734D"/>
<path d="M84.0506 60.9572C84.0506 60.9572 84.4288 57.8047 81.8693 56.9971C79.3097 56.1919 76.6818 57.1703 76.6818 57.1703C76.6818 57.1703 76.0938 57.5778 77.0527 57.7535C78.0116 57.9292 79.7904 57.9341 81.0616 58.7149C82.3329 59.4981 82.5573 61.5062 82.1621 62.2821C81.7668 63.0605 83.3406 62.8311 83.3406 62.8311L84.0482 60.9572H84.0506Z" fill="#FD9471"/>
<path d="M80.3345 58.2098C82.8941 59.015 82.5159 62.1699 82.5159 62.1699L82.062 63.3752C82.2548 63.3679 82.4012 63.346 82.4012 63.346L83.1088 61.472C83.1088 61.472 83.487 58.3196 80.9274 57.5119C78.3679 56.7067 76.6965 57.2874 76.6965 57.2874C76.6965 57.2874 76.1109 57.5607 77.2357 57.7852C78.646 57.773 78.5557 57.651 80.3345 58.2098Z" fill="#FD734D"/>
<path d="M61.3928 39.6975C61.3928 39.6975 68.5835 39.6096 72.6241 39.5755C76.6647 39.5413 84.5362 41.73 85.2487 42.1082C88.3865 43.7772 92.1953 49.5136 92.1953 53.8299C92.1953 58.1463 91.2364 60.6546 91.2364 60.6546C91.2364 60.6546 87.5667 66.2983 87.1958 66.5155C86.8249 66.7327 82.4695 69.3776 80.6956 69.7802C78.1507 70.3561 72.4216 68.9482 69.6839 66.8913C66.9462 64.8368 63.9987 58.3513 63.7279 57.7437C63.457 57.1361 62.1321 49.1403 62.1321 49.1403C62.1321 49.1403 70.4867 60.6546 72.7583 61.777C76.1206 63.4387 80.5443 61.5477 81.2056 55.0695C81.3593 53.564 80.6517 49.7185 69.1813 47.3542C63.0861 46.0976 58.6331 43.1549 58.6331 43.1549C58.6331 43.1549 59.3944 42.0789 64.0158 41.2859C65.8848 40.9638 61.3952 39.6975 61.3952 39.6975H61.3928Z" fill="#FD9471"/>
<path d="M85.0901 43.0549C85.0901 43.0549 87.5764 44.3799 89.7309 47.9593C91.8855 51.5388 91.3487 54.6254 91.3487 54.6254C91.3487 54.6254 91.2071 51.6169 88.8379 48.4083C86.4711 45.1997 84.8949 44.292 83.67 43.8235C82.4476 43.355 76.1182 41.8496 75.5472 41.7934C74.9763 41.7373 74.8689 40.8858 77.7749 41.1908C79.4903 41.3689 82.3451 42.2107 83.8896 42.6865C83.8896 42.6865 83.3845 41.4909 83.6919 41.5909C83.9067 41.6617 85.0169 41.8447 85.3292 42.218C85.5927 42.5328 85.0852 43.0549 85.0852 43.0549H85.0901Z" fill="#FDB9A4"/>
<path d="M88.9892 45.8439C88.9892 45.8439 88.0278 49.2647 85.6781 50.6141C83.3284 51.9634 81.23 52.0049 81.23 52.0049C81.23 52.0049 84.8583 52.71 86.6687 51.7243C89.8529 49.9894 90.0286 47.4543 90.0286 47.4543L88.9867 45.8463L88.9892 45.8439Z" fill="#FD734D"/>
<path d="M92.1953 54.1594C92.1953 54.1594 89.3649 56.3066 86.6761 55.965C83.9872 55.6234 82.2914 54.3887 82.2914 54.3887C82.2914 54.3887 84.7582 57.1411 86.7981 57.4461C90.3849 57.9853 92.0538 56.0674 92.0538 56.0674L92.1953 54.1569V54.1594Z" fill="#FD734D"/>
<path d="M91.1461 60.8889C91.1461 60.8889 88.7769 61.2281 86.2344 60.2863C84.258 59.5543 81.9059 58.161 81.9059 58.161C81.9059 58.161 82.2401 59.2566 83.8188 60.5839C86.5955 62.9166 90.0286 62.4456 90.0286 62.4456L91.1461 60.8889Z" fill="#FD734D"/>
<path d="M87.1934 66.5131C87.1934 66.5131 85.012 65.8079 82.899 64.1121C80.7835 62.4163 79.7733 61.3696 79.7733 61.3696C79.7733 61.3696 80.681 63.9804 82.2597 65.3077C85.0364 67.6404 85.561 67.3451 85.561 67.3451L87.1909 66.5131H87.1934Z" fill="#FD734D"/>
<path d="M80.6737 69.8022C80.6737 69.8022 79.0657 68.1698 77.975 65.6884C76.8844 63.2069 76.472 61.8112 76.472 61.8112C76.472 61.8112 76.0694 64.5464 76.8575 66.4521C78.2434 69.8046 78.8437 69.7851 78.8437 69.7851L80.6761 69.7998L80.6737 69.8022Z" fill="#FD734D"/>
<path d="M67.1414 42.484C66.9365 43.0159 66.3094 43.2721 65.736 43.0525C65.165 42.8329 64.8674 42.2253 65.0699 41.691C65.2748 41.159 65.9019 40.9028 66.4753 41.1224C67.0463 41.342 67.3439 41.9496 67.1414 42.484Z" fill="black"/>
<path d="M66.4655 41.6617C66.4143 41.7959 66.2533 41.8618 66.1093 41.8057C65.9653 41.7496 65.8897 41.5958 65.9409 41.4616C65.9922 41.3274 66.1532 41.2616 66.2972 41.3177C66.4411 41.3738 66.5168 41.5275 66.4655 41.6617Z" fill="white"/>
<path d="M70.494 58.9442C70.494 58.9442 63.7742 50.0577 63.0544 49.7893C62.3346 49.5209 61.6124 47.7666 61.9076 50.7556C62.2004 53.7446 62.2639 56.2139 62.5982 57.7803C62.9324 59.3468 64.0402 61.7136 65.8848 63.2825C67.7295 64.8515 68.8299 65.6713 68.8299 65.6713C68.8299 65.6713 67.5245 63.6949 68.6128 63.1044C69.701 62.5139 69.7059 61.9405 69.5278 61.6575C69.3496 61.3745 70.6526 61.2256 70.7892 60.5571C70.9234 59.8885 70.494 58.9442 70.494 58.9442Z" fill="#FD734D"/>
<path d="M62.3395 50.2432C63.8669 51.8097 65.3309 53.4371 66.7461 55.1036C67.4562 55.9381 68.154 56.7824 68.8421 57.6339C69.1935 58.0707 69.5448 58.5099 69.8937 58.9491C70.1963 59.3297 70.4086 59.8568 70.8697 60.0764C70.9063 59.5957 70.5965 59.1638 70.3012 58.7832C69.3179 57.5144 68.337 56.2456 67.3488 54.9792C66.4924 53.8788 65.6311 52.7832 64.7356 51.7145C64.0524 50.902 63.3423 50.0968 62.4713 49.4892C62.3541 49.4087 62.2175 49.3257 62.0784 49.3575C61.6246 49.4575 62.2248 50.1212 62.3395 50.2407V50.2432Z" fill="#E63E0B"/>
<path d="M62.3712 51.8706C63.7962 53.3322 65.1626 54.8523 66.4851 56.4066C67.1463 57.185 67.7978 57.9731 68.4395 58.7685C68.7689 59.176 69.0959 59.5859 69.4204 59.9959C69.701 60.3521 69.9011 60.8425 70.3305 61.0475C70.3647 60.5985 70.0743 60.1959 69.7986 59.8397C68.8812 58.6563 67.9637 57.4705 67.0438 56.2895C66.2435 55.2623 65.4408 54.2399 64.6038 53.2419C63.967 52.4831 63.3033 51.7316 62.4908 51.1655C62.381 51.0899 62.2541 51.0142 62.1248 51.0435C61.7002 51.1387 62.2614 51.7584 62.3688 51.8682L62.3712 51.8706Z" fill="#E63E0B"/>
<path d="M62.6128 54.3472C63.8816 55.4843 65.104 56.6726 66.2923 57.8926C66.8877 58.505 67.4733 59.1248 68.054 59.7494C68.3517 60.0691 68.6469 60.3936 68.9397 60.7156C69.1935 60.9962 69.3862 61.394 69.7571 61.5404C69.762 61.1646 69.496 60.8474 69.2472 60.5644C68.4176 59.6298 67.588 58.6953 66.7535 57.7632C66.0288 56.9532 65.3041 56.1455 64.5502 55.3623C63.9768 54.7669 63.3814 54.1789 62.6738 53.7519C62.5786 53.6958 62.4688 53.6396 62.3615 53.6714C62.0126 53.7738 62.5152 54.257 62.6104 54.3448L62.6128 54.3472Z" fill="#E63E0B"/>
<path d="M62.686 56.5164C63.8108 57.5241 64.8942 58.5782 65.9483 59.6616C66.4753 60.2033 66.995 60.7523 67.5099 61.3086C67.7734 61.5941 68.0345 61.8795 68.2955 62.165C68.52 62.4139 68.6933 62.7653 69.0202 62.897C69.0227 62.5652 68.7884 62.2821 68.5688 62.0333C67.8319 61.2037 67.0975 60.3765 66.3582 59.5493C65.7165 58.832 65.0723 58.1171 64.4062 57.4217C63.8987 56.8922 63.3716 56.3725 62.7421 55.9943C62.6591 55.943 62.5591 55.8942 62.4664 55.9211C62.1565 56.0113 62.603 56.4408 62.6884 56.5189L62.686 56.5164Z" fill="#E63E0B"/>
<path d="M83.7334 46.0684C81.4886 46.5881 79.195 47.1005 76.899 46.9834C74.7274 46.1928 71.7018 45.5633 68.7494 45.1826C65.3236 44.741 59.5799 43.2111 59.5799 43.2111C59.5799 43.2111 60.8389 44.0554 63.3253 45.0753C65.8116 46.0952 67.8881 46.6808 70.411 47.0419C72.0653 47.2762 75.7741 48.4815 78.1385 49.2818C78.4167 49.4844 78.6973 49.6796 78.9876 49.8626C79.4512 50.1529 79.7391 50.3725 80.2345 50.0724C81.0128 49.6015 81.7082 48.8012 82.3939 48.2034C82.999 47.6739 83.7334 47.2152 84.0701 46.4685C84.1629 46.2636 83.9433 46.0196 83.7334 46.0708V46.0684Z" fill="#FD734D"/>
<path d="M60.978 39.5609C60.978 39.5609 61.0683 39.7927 64.5306 40.1465C67.9906 40.5003 72.6022 40.5759 73.9661 40.4856C75.3301 40.3978 77.3016 40.4319 78.3972 40.7077C79.4927 40.9834 75.9718 39.8146 73.3342 39.4877C70.6965 39.1607 69.7937 39.0314 69.9328 39.1387C70.0719 39.2461 70.6331 39.4242 70.6331 39.4242C70.6331 39.4242 68.5591 39.2046 68.137 39.1339C67.7148 39.0631 66.8364 39.1485 67.5514 39.2998C68.2663 39.4535 69.0983 39.7707 69.0983 39.7707C69.0983 39.7707 65.7824 39.2754 65.331 39.2803C64.8796 39.2876 66.3045 39.7439 66.3045 39.7439L60.9804 39.5609H60.978Z" fill="#FD734D"/>
<path d="M89.8505 48.7499C89.8505 48.7499 89.4918 49.7552 88.894 50.2627L88.2962 50.7702L87.7619 51.1313C87.7619 51.1313 88.3109 50.9776 89.06 50.6043C89.809 50.231 90.1214 49.5551 90.1214 49.5551L89.8505 48.7499Z" fill="#FDB9A4"/>
<path d="M52.5575 73.8819C52.9455 81.5191 49.976 88.0413 42.1143 88.5805C23.1799 89.8835 26.6813 58.7149 39.6963 57.9658C48.4169 57.4632 52.2745 68.3261 52.5575 73.8819Z" fill="#B23D00"/>
<path d="M53.436 72.7156C53.8044 79.999 50.8252 86.2307 42.983 86.7651C24.0974 88.0534 27.6647 58.3123 40.6504 57.5632C49.349 57.0605 53.17 67.4159 53.4384 72.7156H53.436Z" fill="white"/>
<path d="M50.7886 75.1287C51.0765 80.1258 47.3799 84.4056 42.534 84.6838C37.6858 84.9644 33.5231 81.1384 33.2352 76.1413C32.9473 71.1442 36.6414 66.8644 41.4897 66.5863C46.3356 66.3057 50.5006 70.1316 50.7886 75.1287Z" fill="#F9C117"/>
<path d="M48.5584 74.8286C48.7829 78.7033 46.0208 82.0144 42.3925 82.2218C38.7642 82.4316 35.641 79.4597 35.419 75.585C35.1945 71.7103 37.9566 68.3992 41.5849 68.1918C45.2131 67.982 48.3363 70.9539 48.5584 74.8286Z" fill="#F0940F"/>
</svg>
