<svg width="550" height="6" viewBox="0 0 550 6" fill="none" xmlns="http://www.w3.org/2000/svg">
            <g clip-path="url(#clip0_120_2710)">
                <path d="M0 0V6H4.23685C4.23685 4.20233 5.80885 2.74708 7.75074 2.74708C9.69263 2.74708 11.2646 4.20233 11.2646 6H15.8461C15.8461 4.20233 17.4182 2.74708 19.36 2.74708C21.3019 2.74708 22.8739 4.20233 22.8739 6H27.4554C27.4554 4.20233 29.0275 2.74708 30.9693 2.74708C32.9112 2.74708 34.4832 4.20233 34.4832 6H39.0647C39.0647 4.20233 40.6367 2.74708 42.5786 2.74708C44.5205 2.74708 46.0925 4.20233 46.0925 6H50.674C50.674 4.20233 52.246 2.74708 54.1879 2.74708C56.1298 2.74708 57.7018 4.20233 57.7018 6H62.2833C62.2833 4.20233 63.8553 2.74708 65.7972 2.74708C67.7391 2.74708 69.3111 4.20233 69.3111 6H73.8926C73.8926 4.20233 75.4646 2.74708 77.4065 2.74708C79.3484 2.74708 80.9204 4.20233 80.9204 6H85.5019C85.5019 4.20233 87.0739 2.74708 89.0158 2.74708C90.9577 2.74708 92.5297 4.20233 92.5297 6H97.1112C97.1112 4.20233 98.6832 2.74708 100.625 2.74708C102.567 2.74708 104.139 4.20233 104.139 6H108.721C108.721 4.20233 110.293 2.74708 112.234 2.74708C114.176 2.74708 115.748 4.20233 115.748 6H120.33C120.33 4.20233 121.902 2.74708 123.844 2.74708C125.786 2.74708 127.358 4.20233 127.358 6H131.939C131.939 4.20233 133.511 2.74708 135.453 2.74708C137.395 2.74708 138.967 4.20233 138.967 6H143.548C143.548 4.20233 145.12 2.74708 147.062 2.74708C149.004 2.74708 150.576 4.20233 150.576 6H155.158C155.158 4.20233 156.73 2.74708 158.672 2.74708C160.614 2.74708 162.186 4.20233 162.186 6H166.767C166.767 4.20233 168.339 2.74708 170.281 2.74708C172.223 2.74708 173.795 4.20233 173.795 6H178.376C178.376 4.20233 179.948 2.74708 181.89 2.74708C183.832 2.74708 185.404 4.20233 185.404 6H189.986C189.986 4.20233 191.558 2.74708 193.5 2.74708C195.441 2.74708 197.013 4.20233 197.013 6H201.595C201.595 4.20233 203.167 2.74708 205.109 2.74708C207.051 2.74708 208.623 4.20233 208.623 6H213.204C213.204 4.20233 214.776 2.74708 216.718 2.74708C218.66 2.74708 220.232 4.20233 220.232 6H224.814C224.814 4.20233 226.386 2.74708 228.327 2.74708C230.269 2.74708 231.841 4.20233 231.841 6H236.423C236.423 4.20233 237.995 2.74708 239.937 2.74708C241.879 2.74708 243.451 4.20233 243.451 6H248.032C248.032 4.20233 249.604 2.74708 251.546 2.74708C253.488 2.74708 255.06 4.20233 255.06 6H259.641C259.641 4.20233 261.213 2.74708 263.155 2.74708C265.097 2.74708 266.669 4.20233 266.669 6H271.251C271.251 4.20233 272.823 2.74708 274.765 2.74708C276.707 2.74708 278.279 4.20233 278.279 6H282.86C282.86 4.20233 284.432 2.74708 286.374 2.74708C288.316 2.74708 289.888 4.20233 289.888 6H294.469C294.469 4.20233 296.041 2.74708 297.983 2.74708C299.925 2.74708 301.497 4.20233 301.497 6H306.079C306.079 4.20233 307.651 2.74708 309.592 2.74708C311.534 2.74708 313.106 4.20233 313.106 6H317.688C317.688 4.20233 319.26 2.74708 321.202 2.74708C323.144 2.74708 324.716 4.20233 324.716 6H329.297C329.297 4.20233 330.869 2.74708 332.811 2.74708C334.753 2.74708 336.325 4.20233 336.325 6H340.906C340.906 4.20233 342.479 2.74708 344.42 2.74708C346.362 2.74708 347.934 4.20233 347.934 6H352.516C352.516 4.20233 354.088 2.74708 356.03 2.74708C357.972 2.74708 359.544 4.20233 359.544 6H364.125C364.125 4.20233 365.697 2.74708 367.639 2.74708C369.581 2.74708 371.153 4.20233 371.153 6H375.734C375.734 4.20233 377.306 2.74708 379.248 2.74708C381.19 2.74708 382.762 4.20233 382.762 6H387.344C387.344 4.20233 388.916 2.74708 390.858 2.74708C392.799 2.74708 394.371 4.20233 394.371 6H398.953C398.953 4.20233 400.525 2.74708 402.467 2.74708C404.409 2.74708 405.981 4.20233 405.981 6H410.562C410.562 4.20233 412.134 2.74708 414.076 2.74708C416.018 2.74708 417.59 4.20233 417.59 6H422.172C422.172 4.20233 423.744 2.74708 425.685 2.74708C427.627 2.74708 429.199 4.20233 429.199 6H433.781C433.781 4.20233 435.353 2.74708 437.295 2.74708C439.237 2.74708 440.809 4.20233 440.809 6H445.39C445.39 4.20233 446.962 2.74708 448.904 2.74708C450.846 2.74708 452.418 4.20233 452.418 6H457C457 4.20233 458.572 2.74708 460.513 2.74708C462.455 2.74708 464.027 4.20233 464.027 6H468.609C468.609 4.20233 470.181 2.74708 472.123 2.74708C474.065 2.74708 475.637 4.20233 475.637 6H480.218C480.218 4.20233 481.79 2.74708 483.732 2.74708C485.674 2.74708 487.246 4.20233 487.246 6H491.827C491.827 4.20233 493.399 2.74708 495.341 2.74708C497.283 2.74708 498.855 4.20233 498.855 6H503.437C503.437 4.20233 505.009 2.74708 506.951 2.74708C508.892 2.74708 510.464 4.20233 510.464 6H515.046C515.046 4.20233 516.618 2.74708 518.56 2.74708C520.502 2.74708 522.074 4.20233 522.074 6H526.655C526.655 4.20233 528.227 2.74708 530.169 2.74708C532.111 2.74708 533.683 4.20233 533.683 6H538.265C538.265 4.20233 539.837 2.74708 541.778 2.74708C543.72 2.74708 545.292 4.20233 545.292 6H550V0H0Z" fill="white"></path>
            </g>
            <defs>
                <clipPath id="clip0_120_2710">
                    <rect width="550" height="6" fill="white"></rect>
                </clipPath>
            </defs>
        </svg>