<svg width="24" height="24" viewBox="0 0 24 24" fill="none" xmlns="http://www.w3.org/2000/svg">
<path fill-rule="evenodd" clip-rule="evenodd" d="M4 3.25C2.48122 3.25 1.25 4.48122 1.25 6V18C1.25 19.5188 2.48122 20.75 4 20.75H20C21.5188 20.75 22.75 19.5188 22.75 18V6C22.75 4.48122 21.5188 3.25 20 3.25H4Z" fill="#ECEFF1"/>
<path fill-rule="evenodd" clip-rule="evenodd" d="M17 6.25C15.4812 6.25 14.25 7.48122 14.25 9C14.25 10.5188 15.4812 11.75 17 11.75C18.5188 11.75 19.75 10.5188 19.75 9C19.75 7.48122 18.5188 6.25 17 6.25Z" fill="#FFC44D"/>
<path fill-rule="evenodd" clip-rule="evenodd" d="M8.25225 10.2937C7.9793 10.1962 7.67461 10.2647 7.46967 10.4697L1.46967 16.4697C1.32902 16.6103 1.25 16.8011 1.25 17V18C1.25 19.5188 2.48122 20.75 4 20.75H20C21.5188 20.75 22.75 19.5188 22.75 18V16C22.75 15.6831 22.5507 15.4003 22.2523 15.2937L8.25225 10.2937Z" fill="#8BC94D"/>
</svg>
