<svg width="24" height="24" viewBox="0 0 24 24" fill="none" xmlns="http://www.w3.org/2000/svg">
<path fill-rule="evenodd" clip-rule="evenodd" d="M12.5 12V20H11.5V12H12.5Z" fill="#fff"/>
<path fill-rule="evenodd" clip-rule="evenodd" d="M11.6465 11.6464C11.8417 11.4512 12.1583 11.4512 12.3536 11.6464L15.3536 14.6464L14.6465 15.3536L12 12.7071L9.35356 15.3536L8.64645 14.6464L11.6465 11.6464Z" fill="#fff"/>
<path fill-rule="evenodd" clip-rule="evenodd" d="M11.0625 3.5C8.07775 3.5 5.625 6.02212 5.625 9.175C5.625 9.27571 5.62751 9.37576 5.63246 9.4751C5.63928 9.61186 5.58971 9.74543 5.49533 9.84464C5.40095 9.94384 5.27001 10 5.13308 10H5.125C3.69355 10 2.5 11.2126 2.5 12.75C2.5 14.2874 3.69355 15.5 5.125 15.5H7V16.5H5.125C3.10467 16.5 1.5 14.8024 1.5 12.75C1.5 10.8696 2.84692 9.2871 4.62639 9.035C4.69816 5.43095 7.53444 2.5 11.0625 2.5C13.4372 2.5 15.502 3.83149 16.6165 5.79801C16.8444 5.76634 17.0767 5.75 17.3125 5.75C20.1958 5.75 22.5 8.17513 22.5 11.125C22.5 13.4145 21.1161 15.3814 19.1498 16.153C18.6861 16.3756 18.1692 16.5 17.625 16.5H17V15.5H17.625C18.0205 15.5 18.3947 15.4087 18.7307 15.2449C18.7432 15.2388 18.756 15.2332 18.769 15.2282C20.3554 14.6131 21.5 13.0149 21.5 11.125C21.5 8.69009 19.6069 6.75 17.3125 6.75C17.0171 6.75 16.7294 6.78188 16.4521 6.84236C16.2278 6.89127 15.9991 6.78125 15.8974 6.57555C14.9896 4.74067 13.1593 3.5 11.0625 3.5Z" fill="#fff"/>
</svg>
