<svg width="32" height="33" viewBox="0 0 32 33" fill="none" xmlns="http://www.w3.org/2000/svg">
<path d="M1 31.8H30.3" stroke="#fff" stroke-width="2" stroke-linecap="round" stroke-linejoin="round"/>
<path d="M2.69995 28.2C3.23794 25.1354 4.83336 22.3564 7.20861 20.3466C9.58385 18.3368 12.5886 17.2233 15.7 17.2C18.805 17.2072 21.8065 18.3172 24.1692 20.3319C26.532 22.3466 28.1022 25.1351 28.5999 28.2" stroke="#fff" stroke-width="2" stroke-linecap="round" stroke-linejoin="round"/>
<path d="M15.7 17.1C17.1359 17.1 18.3 15.9359 18.3 14.5C18.3 13.0641 17.1359 11.9 15.7 11.9C14.264 11.9 13.1 13.0641 13.1 14.5C13.1 15.9359 14.264 17.1 15.7 17.1Z" stroke="#fff" stroke-width="2" stroke-linecap="round" stroke-linejoin="round"/>
<path d="M15.7 4V7.69998" stroke="#fff" stroke-width="2" stroke-linecap="round" stroke-linejoin="round"/>
<path d="M8 6.5V10.1" stroke="#fff" stroke-width="2" stroke-linecap="round" stroke-linejoin="round"/>
<path d="M23.4 6.5V10.1" stroke="#fff" stroke-width="2" stroke-linecap="round" stroke-linejoin="round"/>
</svg>
