<svg width="24" height="24" viewBox="0 0 24 24" fill="none" xmlns="http://www.w3.org/2000/svg">
<path fill-rule="evenodd" clip-rule="evenodd" d="M9 15.4316C8.96853 15.4316 8.9371 15.4336 8.90588 15.4376C7.39769 15.6284 6.06669 15.9593 5.08992 16.4038C4.60331 16.6252 4.16669 16.8918 3.84103 17.2145C3.51314 17.5394 3.25 17.9726 3.25 18.4999C3.25 19.1948 3.69922 19.7188 4.183 20.0762C4.68146 20.4445 5.35481 20.7446 6.11944 20.9835C7.65763 21.4642 9.73658 21.7499 12 21.7499C14.2634 21.7499 16.3424 21.4642 17.8806 20.9835C18.6452 20.7446 19.3185 20.4445 19.817 20.0762C20.3008 19.7188 20.75 19.1948 20.75 18.4999C20.75 17.9726 20.4869 17.5394 20.159 17.2145C19.8333 16.8918 19.3967 16.6252 18.9101 16.4038C17.9333 15.9593 16.6023 15.6284 15.0941 15.4376C15.0629 15.4336 15.0315 15.4316 15 15.4316H14.5H9.5H9Z" fill="#CFD8DC"/>
<path fill-rule="evenodd" clip-rule="evenodd" d="M12 2.25C10.1773 2.25 8.48178 2.85799 7.23719 4.0562C5.98681 5.25998 5.25 7.00346 5.25 9.15789C5.25 10.7521 6.07253 12.5097 7.02991 14.0429C8.00476 15.604 9.1998 17.0564 10.0976 18.068C11.1195 19.2194 12.8805 19.2194 13.9024 18.068C14.8002 17.0564 15.9952 15.604 16.9701 14.0429C17.9275 12.5097 18.75 10.7521 18.75 9.15789C18.75 7.00346 18.0132 5.25998 16.7628 4.0562C15.5182 2.85799 13.8227 2.25 12 2.25Z" fill="#cfa670"/>
<path fill-rule="evenodd" clip-rule="evenodd" d="M12 5.25C10.4812 5.25 9.25 6.48122 9.25 8C9.25 9.51878 10.4812 10.75 12 10.75C13.5188 10.75 14.75 9.51878 14.75 8C14.75 6.48122 13.5188 5.25 12 5.25Z" fill="#F9F9F9"/>
</svg>
