<?xml version="1.0" encoding="iso-8859-1"?>
<!-- Uploaded to: SVG Repo, www.svgrepo.com, Generator: SVG Repo Mixer Tools -->
<svg fill="#fff" height="800px" width="800px" version="1.1" id="Layer_1" xmlns="http://www.w3.org/2000/svg" xmlns:xlink="http://www.w3.org/1999/xlink" 
	 viewBox="0 0 480 480" xml:space="preserve">
<g>
	<g>
		<path d="M240,48c-75,0-136,61-136,136s61,136,136,136s136-61,136-136S315,48,240,48z M240,304c-66.2,0-120-53.8-120-120
			S173.8,64,240,64s120,53.8,120,120S306.2,304,240,304z"/>
	</g>
</g>
<g>
	<g>
		<path d="M294.1,141.8c-3.6-26.6-26.5-47.2-54.1-47.2c-27.6,0-50.5,20.6-54.1,47.2c-20.5,3.5-36.1,21.1-36.1,42.2
			c0,21.3,16.7,37.9,34.2,41.9V264c0,4.4,3.6,8,8,8h96c4.4,0,8-3.6,8-8v-38.1c17.4-4,34.2-20.7,34.2-41.9
			C330.2,162.9,314.6,145.3,294.1,141.8z M287.9,211c-4.3-0.1-7.9,3.5-7.9,7.9V256h-80v-37.1c0-4.4-3.6-8-8-8
			c-11.8,0-26.2-12.4-26.2-26.9c0-14.1,11.8-25.9,26.1-26.7c18.8,9.2,17.2,23.6,16.9,25.3c-0.8,4.3,2.1,8.5,6.4,9.3
			c0.5,0.1,1,0.1,1.5,0.1c3.8,0,7.1-2.7,7.8-6.5c1.8-9.3-1-29.1-22.7-41.1c2.4-19,18.4-33.8,38.1-33.8c21.3,0,38.6,17.3,38.6,38.6
			c0,4.4,3.6,8,8,8c15,0,27.6,12.3,27.6,26.9C314.1,198.6,299.7,211,287.9,211z"/>
	</g>
</g>
<g>
	<g>
		<path d="M384,464H281.3C349.6,417.2,432,278.3,432,192C432,86.1,345.9,0,240,0S48,86.1,48,192c0,86.3,82.4,225.2,150.7,272H96
			c-4.4,0-8,3.6-8,8c0,4.4,3.6,8,8,8h288c4.4,0,8-3.6,8-8C392,467.6,388.4,464,384,464z M64,192c0-97,79-176,176-176s176,79,176,176
			c0,101.2-120,272-176,272C174.5,464,64,278.6,64,192z"/>
	</g>
</g>
<g>
	<g>
		<path d="M240,352c-22.1,0-40,17.9-40,40c0,22.1,17.9,40,40,40c22.1,0,40-17.9,40-40C280,369.9,262.1,352,240,352z M240,416
			c-13.2,0-24-10.8-24-24s10.8-24,24-24s24,10.8,24,24S253.2,416,240,416z"/>
	</g>
</g>
</svg>