<svg width="24" height="24" viewBox="0 0 24 24" fill="none" xmlns="http://www.w3.org/2000/svg">
<path fill-rule="evenodd" clip-rule="evenodd" d="M12 2.25C17.3848 2.25 21.75 6.61522 21.75 12C21.75 13.5143 21.4043 14.9499 20.7868 16.2303L21.5851 20.1204C21.7636 20.9903 21.0036 21.7637 20.1307 21.6004L16.1034 20.8468C14.8553 21.4267 13.4644 21.75 12 21.75C6.61522 21.75 2.25 17.3848 2.25 12C2.25 6.61522 6.61522 2.25 12 2.25Z" fill="#5E94FF"/>
<path fill-rule="evenodd" clip-rule="evenodd" d="M7 10.25C6.0335 10.25 5.25 11.0335 5.25 12C5.25 12.9665 6.0335 13.75 7 13.75C7.9665 13.75 8.75 12.9665 8.75 12C8.75 11.0335 7.9665 10.25 7 10.25Z" fill="#F9F9F9"/>
<path fill-rule="evenodd" clip-rule="evenodd" d="M12 10.25C11.0335 10.25 10.25 11.0335 10.25 12C10.25 12.9665 11.0335 13.75 12 13.75C12.9665 13.75 13.75 12.9665 13.75 12C13.75 11.0335 12.9665 10.25 12 10.25Z" fill="#F9F9F9"/>
<path fill-rule="evenodd" clip-rule="evenodd" d="M17 10.25C16.0335 10.25 15.25 11.0335 15.25 12C15.25 12.9665 16.0335 13.75 17 13.75C17.9665 13.75 18.75 12.9665 18.75 12C18.75 11.0335 17.9665 10.25 17 10.25Z" fill="#F9F9F9"/>
</svg>
