<svg width="24" height="24" viewBox="0 0 24 24" fill="none" xmlns="http://www.w3.org/2000/svg">
<path fill-rule="evenodd" clip-rule="evenodd" d="M8.69529 3.80977C7.94893 3.06341 6.73885 3.06341 5.99249 3.80977L4.60134 5.20092C3.24155 6.56071 2.86788 8.62136 3.66364 10.372C5.67129 14.7889 9.21117 18.3287 13.628 20.3364C15.3787 21.1321 17.4393 20.7585 18.7991 19.3987L20.1903 18.0075C20.9366 17.2612 20.9366 16.0511 20.1903 15.3047L18.3188 13.4333C17.7372 12.8516 16.8485 12.7074 16.1127 13.0753L15.0742 13.5946C14.4688 13.8973 13.7377 13.7786 13.2592 13.3001L10.6999 10.7408C10.2214 10.2623 10.1028 9.53119 10.4054 8.92586L10.9247 7.88728C11.2926 7.1515 11.1484 6.26286 10.5667 5.68118L8.69529 3.80977Z" fill="#8BC94D"/>
</svg>
