<svg xmlns:xlink="http://www.w3.org/1999/xlink" width="14" height="14" viewBox="0 0 14 14" fill="none" xmlns="http://www.w3.org/2000/svg">
                                        <g clip-path="url(#clip0_129_1309)" fill="none">
                                            <path d="M10.5 0H3.5C2.57174 0 1.6815 0.368749 1.02513 1.02513C0.368749 1.6815 0 2.57174 0 3.5L0 4.375C0 4.60706 0.0921872 4.82962 0.256282 4.99372C0.420376 5.15781 0.642936 5.25 0.875 5.25H3.5C3.73206 5.25 3.95462 5.15781 4.11872 4.99372C4.28281 4.82962 4.375 4.60706 4.375 4.375V2.625H9.625V4.375C9.625 4.60706 9.71719 4.82962 9.88128 4.99372C10.0454 5.15781 10.2679 5.25 10.5 5.25H13.125C13.3571 5.25 13.5796 5.15781 13.7437 4.99372C13.9078 4.82962 14 4.60706 14 4.375V3.5C14 2.57174 13.6313 1.6815 12.9749 1.02513C12.3185 0.368749 11.4283 0 10.5 0Z" fill="#cfa670"></path>
                                            <path d="M11.1186 7.25638C10.9546 7.09227 10.732 7.00005 10.5 7H3.5C3.26795 7.00005 3.04543 7.09227 2.88138 7.25638L0.256375 9.88138C0.0922693 10.0454 4.95577e-05 10.268 0 10.5L0 12.25C0 12.7141 0.184374 13.1592 0.512563 13.4874C0.840752 13.8156 1.28587 14 1.75 14H12.25C12.7141 14 13.1592 13.8156 13.4874 13.4874C13.8156 13.1592 14 12.7141 14 12.25V10.5C14 10.268 13.9077 10.0454 13.7436 9.88138L11.1186 7.25638ZM7 12.25C6.65388 12.25 6.31554 12.1474 6.02775 11.9551C5.73997 11.7628 5.51566 11.4895 5.38321 11.1697C5.25076 10.8499 5.2161 10.4981 5.28363 10.1586C5.35115 9.81913 5.51782 9.50731 5.76256 9.26256C6.00731 9.01782 6.31913 8.85115 6.65859 8.78363C6.99806 8.7161 7.34993 8.75076 7.6697 8.88321C7.98947 9.01566 8.26278 9.23997 8.45507 9.52775C8.64736 9.81554 8.75 10.1539 8.75 10.5C8.75 10.9641 8.56563 11.4092 8.23744 11.7374C7.90925 12.0656 7.46413 12.25 7 12.25Z" fill="#cfa670"></path>
                                        </g>
                                        <defs>
                                            <clipPath id="clip0_129_1309">
                                                <rect width="14" height="14" fill="white"></rect>
                                            </clipPath>
                                        </defs>
                                    </svg>