<svg width="24" height="24" viewBox="0 0 24 24" fill="none" xmlns="http://www.w3.org/2000/svg">
<path fill-rule="evenodd" clip-rule="evenodd" d="M12 1.25C6.06294 1.25 1.25 6.06294 1.25 12C1.25 17.9371 6.06294 22.75 12 22.75C17.9371 22.75 22.75 17.9371 22.75 12C22.75 6.06294 17.9371 1.25 12 1.25Z" fill="#FFC44D"/>
<path fill-rule="evenodd" clip-rule="evenodd" d="M11.2222 6.63892C10.5318 6.63892 9.97217 7.19856 9.97217 7.88892V9.22225C9.97217 9.63646 9.63638 9.97225 9.22217 9.97225C8.80795 9.97225 8.47217 9.63646 8.47217 9.22225V7.88892C8.47217 6.37013 9.70339 5.13892 11.2222 5.13892H12.7777C14.2965 5.13892 15.5277 6.37013 15.5277 7.88892V9.50493C15.5277 10.2343 15.238 10.9338 14.7223 11.4495L13.1161 13.0557C12.8816 13.2901 12.7499 13.608 12.7499 13.9396V15.8889C12.7499 16.3031 12.4142 16.6389 11.9999 16.6389C11.5857 16.6389 11.2499 16.3031 11.2499 15.8889V13.9396C11.2499 13.2102 11.5397 12.5107 12.0554 11.995L13.6616 10.3888C13.896 10.1544 14.0277 9.83645 14.0277 9.50493V7.88892C14.0277 7.19856 13.4681 6.63892 12.7777 6.63892H11.2222Z" fill="#F9F9F9"/>
<path fill-rule="evenodd" clip-rule="evenodd" d="M12 17.25C12.4142 17.25 12.75 17.5858 12.75 18V19.2222C12.75 19.6364 12.4142 19.9722 12 19.9722C11.5858 19.9722 11.25 19.6364 11.25 19.2222V18C11.25 17.5858 11.5858 17.25 12 17.25Z" fill="#F9F9F9"/>
</svg>
