<svg width="24" height="24" viewBox="0 0 24 24" fill="none" xmlns="http://www.w3.org/2000/svg">
<path fill-rule="evenodd" clip-rule="evenodd" d="M2.25 6C2.25 5.58579 2.58579 5.25 3 5.25H6.5C6.91421 5.25 7.25 5.58579 7.25 6C7.25 6.41421 6.91421 6.75 6.5 6.75H3C2.58579 6.75 2.25 6.41421 2.25 6ZM10.75 6C10.75 5.58579 11.0858 5.25 11.5 5.25H21C21.4142 5.25 21.75 5.58579 21.75 6C21.75 6.41421 21.4142 6.75 21 6.75H11.5C11.0858 6.75 10.75 6.41421 10.75 6Z" fill="#000"/>
<path fill-rule="evenodd" clip-rule="evenodd" d="M9 2.75C7.20507 2.75 5.75 4.20507 5.75 6C5.75 7.79493 7.20507 9.25 9 9.25C10.7949 9.25 12.25 7.79493 12.25 6C12.25 4.20507 10.7949 2.75 9 2.75Z" fill="#000"/>
<path fill-rule="evenodd" clip-rule="evenodd" d="M21.75 12C21.75 11.5858 21.4142 11.25 21 11.25H19C18.5858 11.25 18.25 11.5858 18.25 12C18.25 12.4142 18.5858 12.75 19 12.75H21C21.4142 12.75 21.75 12.4142 21.75 12ZM14.75 12C14.75 11.5858 14.4142 11.25 14 11.25H3C2.58579 11.25 2.25 11.5858 2.25 12C2.25 12.4142 2.58579 12.75 3 12.75H14C14.4142 12.75 14.75 12.4142 14.75 12Z" fill="#000"/>
<path fill-rule="evenodd" clip-rule="evenodd" d="M16.5 8.75C18.2949 8.75 19.75 10.2051 19.75 12C19.75 13.7949 18.2949 15.25 16.5 15.25C14.7051 15.25 13.25 13.7949 13.25 12C13.25 10.2051 14.7051 8.75 16.5 8.75Z" fill="#000"/>
<path fill-rule="evenodd" clip-rule="evenodd" d="M2.25 18C2.25 17.5858 2.58579 17.25 3 17.25H8C8.41421 17.25 8.75 17.5858 8.75 18C8.75 18.4142 8.41421 18.75 8 18.75H3C2.58579 18.75 2.25 18.4142 2.25 18ZM12.25 18C12.25 17.5858 12.5858 17.25 13 17.25H21C21.4142 17.25 21.75 17.5858 21.75 18C21.75 18.4142 21.4142 18.75 21 18.75H13C12.5858 18.75 12.25 18.4142 12.25 18Z" fill="#000"/>
<path fill-rule="evenodd" clip-rule="evenodd" d="M10.5 14.75C8.70507 14.75 7.25 16.2051 7.25 18C7.25 19.7949 8.70507 21.25 10.5 21.25C12.2949 21.25 13.75 19.7949 13.75 18C13.75 16.2051 12.2949 14.75 10.5 14.75Z" fill="#000"/>
</svg>
