<svg width="24" height="24" viewBox="0 0 24 24" fill="none" xmlns="http://www.w3.org/2000/svg">
<path fill-rule="evenodd" clip-rule="evenodd" d="M2 1.25C2.41421 1.25 2.75 1.58579 2.75 2V20C2.75 20.6904 3.30964 21.25 4 21.25H22C22.4142 21.25 22.75 21.5858 22.75 22C22.75 22.4142 22.4142 22.75 22 22.75H4C2.48122 22.75 1.25 21.5188 1.25 20V2C1.25 1.58579 1.58579 1.25 2 1.25Z" fill="#8B98A6"/>
<path fill-rule="evenodd" clip-rule="evenodd" d="M5 11.25C4.58579 11.25 4.25 11.5858 4.25 12V19C4.25 19.4142 4.58579 19.75 5 19.75H10C10.4142 19.75 10.75 19.4142 10.75 19V12C10.75 11.5858 10.4142 11.25 10 11.25H5Z" fill="#7EA9FF"/>
<path fill-rule="evenodd" clip-rule="evenodd" d="M10 6.25C9.58579 6.25 9.25 6.58579 9.25 7V19C9.25 19.4142 9.58579 19.75 10 19.75H15C15.4142 19.75 15.75 19.4142 15.75 19V7C15.75 6.58579 15.4142 6.25 15 6.25H10Z" fill="#5E94FF"/>
<path fill-rule="evenodd" clip-rule="evenodd" d="M15 2.25C14.5858 2.25 14.25 2.58579 14.25 3V19C14.25 19.4142 14.5858 19.75 15 19.75H20C20.4142 19.75 20.75 19.4142 20.75 19V3C20.75 2.58579 20.4142 2.25 20 2.25H15Z" fill="#7EA9FF"/>
</svg>
