<svg width="24" height="24" viewBox="0 0 24 24" fill="none" xmlns="http://www.w3.org/2000/svg">
<path fill-rule="evenodd" clip-rule="evenodd" d="M12 1.72607C12.4142 1.72607 12.75 2.06186 12.75 2.47607V4.85703C12.75 5.27124 12.4142 5.60703 12 5.60703C11.5858 5.60703 11.25 5.27124 11.25 4.85703V2.47607C11.25 2.06186 11.5858 1.72607 12 1.72607Z" fill="#8B98A6"/>
<path fill-rule="evenodd" clip-rule="evenodd" d="M11.9999 4.10718C6.87305 4.10718 2.72363 8.28426 2.72363 13.4286C2.72363 18.573 6.87305 22.75 11.9999 22.75C17.1268 22.75 21.2763 18.573 21.2763 13.4286C21.2763 8.28426 17.1268 4.10718 11.9999 4.10718Z" fill="#ECEFF1"/>
<path fill-rule="evenodd" clip-rule="evenodd" d="M11.9999 5.60718C7.70893 5.60718 4.22363 9.10521 4.22363 13.4286C4.22363 17.752 7.70893 21.25 11.9999 21.25C16.291 21.25 19.7763 17.752 19.7763 13.4286C19.7763 9.10521 16.291 5.60718 11.9999 5.60718ZM2.72363 13.4286C2.72363 8.28426 6.87305 4.10718 11.9999 4.10718C17.1268 4.10718 21.2763 8.28426 21.2763 13.4286C21.2763 18.573 17.1268 22.75 11.9999 22.75C6.87305 22.75 2.72363 18.573 2.72363 13.4286Z" fill="#FFC44D"/>
<path fill-rule="evenodd" clip-rule="evenodd" d="M17.629 3.37306C17.9227 3.08094 18.3976 3.08219 18.6897 3.37586L21.5318 6.233C21.8239 6.52666 21.8227 7.00154 21.529 7.29366C21.2353 7.58578 20.7605 7.58452 20.4683 7.29086L17.6262 4.43371C17.3341 4.14005 17.3354 3.66518 17.629 3.37306Z" fill="#8B98A6"/>
<path fill-rule="evenodd" clip-rule="evenodd" d="M6.37097 3.37306C6.0773 3.08094 5.60243 3.08219 5.31031 3.37586L2.46821 6.233C2.17609 6.52666 2.17734 7.00154 2.47101 7.29366C2.76467 7.58578 3.23954 7.58452 3.53166 7.29086L6.37377 4.43371C6.66589 4.14005 6.66463 3.66518 6.37097 3.37306Z" fill="#8B98A6"/>
<path fill-rule="evenodd" clip-rule="evenodd" d="M9.35522 2C9.35522 1.58579 9.69101 1.25 10.1052 1.25H13.8947C14.3089 1.25 14.6447 1.58579 14.6447 2C14.6447 2.41421 14.3089 2.75 13.8947 2.75H10.1052C9.69101 2.75 9.35522 2.41421 9.35522 2Z" fill="#8B98A6"/>
<path fill-rule="evenodd" clip-rule="evenodd" d="M12 6.48804C12.4142 6.48804 12.75 6.82382 12.75 7.23804V13.9047C12.75 14.3189 12.4142 14.6547 12 14.6547C11.5858 14.6547 11.25 14.3189 11.25 13.9047V7.23804C11.25 6.82382 11.5858 6.48804 12 6.48804Z" fill="#8B98A6"/>
</svg>
