<svg width="24" height="24" viewBox="0 0 24 24" fill="none" xmlns="http://www.w3.org/2000/svg">
<path fill-rule="evenodd" clip-rule="evenodd" d="M5 6.75C4.79213 6.75 4.59357 6.83628 4.45173 6.98824C4.30989 7.1402 4.23748 7.34422 4.25178 7.5516L5.25178 22.0516C5.2789 22.4449 5.60582 22.75 6 22.75H18C18.3942 22.75 18.7211 22.4449 18.7482 22.0516L19.7482 7.5516C19.7625 7.34422 19.6901 7.1402 19.5483 6.98824C19.4064 6.83628 19.2079 6.75 19 6.75H5Z" fill="#EE4D4D"/>
<path fill-rule="evenodd" clip-rule="evenodd" d="M12 9.25C12.4142 9.25 12.75 9.58579 12.75 10V19C12.75 19.4142 12.4142 19.75 12 19.75C11.5858 19.75 11.25 19.4142 11.25 19V10C11.25 9.58579 11.5858 9.25 12 9.25Z" fill="#F9F9F9"/>
<path fill-rule="evenodd" clip-rule="evenodd" d="M8.45842 9.25118C8.87199 9.2282 9.22589 9.54484 9.24887 9.95842L9.74887 18.9584C9.77184 19.372 9.4552 19.7259 9.04162 19.7489C8.62805 19.7718 8.27415 19.4552 8.25118 19.0416L7.75118 10.0416C7.7282 9.62805 8.04484 9.27415 8.45842 9.25118Z" fill="#F9F9F9"/>
<path fill-rule="evenodd" clip-rule="evenodd" d="M15.5416 9.25118C15.128 9.2282 14.7741 9.54484 14.7511 9.95842L14.2511 18.9584C14.2282 19.372 14.5448 19.7259 14.9584 19.7489C15.372 19.7718 15.7258 19.4552 15.7488 19.0416L16.2488 10.0416C16.2718 9.62805 15.9552 9.27415 15.5416 9.25118Z" fill="#F9F9F9"/>
<path fill-rule="evenodd" clip-rule="evenodd" d="M8 1.25C6.48122 1.25 5.25 2.48122 5.25 4V5C5.25 5.41421 5.58579 5.75 6 5.75H18C18.4142 5.75 18.75 5.41421 18.75 5V4C18.75 2.48122 17.5188 1.25 16 1.25H8Z" fill="#EE4D4D"/>
<path fill-rule="evenodd" clip-rule="evenodd" d="M1.25 5C1.25 4.58579 1.58579 4.25 2 4.25H22C22.4142 4.25 22.75 4.58579 22.75 5C22.75 5.41421 22.4142 5.75 22 5.75H2C1.58579 5.75 1.25 5.41421 1.25 5Z" fill="#F17171"/>
</svg>
