<svg width="24" height="24" viewBox="0 0 24 24" fill="none" xmlns="http://www.w3.org/2000/svg">
<path fill-rule="evenodd" clip-rule="evenodd" d="M14.3703 4.55027C13.307 2.74268 10.693 2.74268 9.6297 4.55027L3.12653 15.6057C2.04815 17.4389 3.36996 19.75 5.49685 19.75H18.5032C20.6301 19.75 21.9519 17.4389 20.8735 15.6057L14.3703 4.55027Z" fill="#FFC44D"/>
<path fill-rule="evenodd" clip-rule="evenodd" d="M12 6.25C12.4142 6.25 12.75 6.58579 12.75 7V13C12.75 13.4142 12.4142 13.75 12 13.75C11.5858 13.75 11.25 13.4142 11.25 13V7C11.25 6.58579 11.5858 6.25 12 6.25Z" fill="#F9F9F9"/>
<path fill-rule="evenodd" clip-rule="evenodd" d="M12 14.25C12.4142 14.25 12.75 14.5858 12.75 15V16.5C12.75 16.9142 12.4142 17.25 12 17.25C11.5858 17.25 11.25 16.9142 11.25 16.5V15C11.25 14.5858 11.5858 14.25 12 14.25Z" fill="#F9F9F9"/>
</svg>
